<?xml version="1.0" encoding="utf-8"?>
<!-- Generator: Adobe Illustrator 25.2.1, SVG Export Plug-In . SVG Version: 6.00 Build 0)  -->
<svg version="1.1"
	 id="svg102" xmlns:cc="http://creativecommons.org/ns#" xmlns:dc="http://purl.org/dc/elements/1.1/" xmlns:rdf="http://www.w3.org/1999/02/22-rdf-syntax-ns#" xmlns:svg="http://www.w3.org/2000/svg"
	 xmlns="http://www.w3.org/2000/svg" xmlns:xlink="http://www.w3.org/1999/xlink" x="0px" y="0px" viewBox="0 0 75 75"
	 style="enable-background:new 0 0 75 75;" xml:space="preserve">
<style type="text/css">
	.st0{fill:#F32848;}
	.st1{fill:#D332AC;}
	.st2{fill:#00C2F8;}
	.st3{fill:#0DE552;}
	.st4{fill:#FFA10A;}
	.st5{fill:#FFFFFF;}
</style>
<path id="path58" class="st0" d="M37.3,37.7c-4.1-5.6-11.8-6.8-17.4-2.8c-5.5,4-6.7,11.7-2.6,17.3l0.3,0.4c-6.6-8.7-7-20.8-0.3-29.8
	l0.1-0.2c4.1-5.4,11.9-6.5,17.4-2.3S41.4,32.3,37.3,37.7z"/>
<path id="path60" class="st1" d="M37.3,37.7c-6.5,2.2-9.9,9.2-7.6,15.7s9.4,10,15.8,7.8l0.4-0.1c-8,2.9-17.4,1.5-24.5-4.5
	c-1.5-1.2-2.7-2.6-3.8-4l-0.3-0.4c-4.1-5.6-2.9-13.3,2.6-17.3C25.5,30.9,33.3,32.1,37.3,37.7z"/>
<path id="path62" class="st2" d="M37.3,37.7c0,6.8,5.6,12.4,12.5,12.5s12.4-5.5,12.3-12.3l0-0.2c0.1,5.7-1.8,11.4-5.7,16.1
	c-2.9,3.4-6.5,5.9-10.5,7.3l-0.4,0.1c-6.5,2.2-13.6-1.3-15.8-7.8S30.9,39.9,37.3,37.7z"/>
<path id="path64" class="st3" d="M37.3,37.7c6.5,2.2,13.5-1.4,15.6-7.9c2.1-6.5-1.5-13.5-8.1-15.7L44.3,14c3.1,1,6.2,2.6,8.9,4.8
	c5.8,4.9,8.9,11.9,9,18.9l0,0.2c0,6.8-5.5,12.4-12.3,12.3C43,50.1,37.4,44.6,37.3,37.7z"/>
<path id="path66" class="st4" d="M37.3,37.7c4.1-5.4,3-13.2-2.6-17.4s-13.3-3.1-17.4,2.3l-0.1,0.2c0.3-0.4,0.6-0.8,0.9-1.2
	c6.5-7.8,16.9-10.5,26.1-7.7l0.5,0.2c6.5,2.2,10.2,9.2,8.1,15.7S43.9,39.9,37.3,37.7z"/>
<path id="P_Letter" class="st5" d="M35.4,43h4.5c4.3,0,7.8-3.4,7.8-7.5S44.2,28,39.9,28h-6.6c-2.5,0-4.5,1.9-4.5,4.3v16.9L35.4,43z"
	/>
</svg>
