<?xml version="1.0" encoding="utf-8"?>
<!-- Generator: Adobe Illustrator 25.2.1, SVG Export Plug-In . SVG Version: 6.00 Build 0)  -->
<svg version="1.1"
	 id="svg114" xmlns:cc="http://creativecommons.org/ns#" xmlns:dc="http://purl.org/dc/elements/1.1/" xmlns:rdf="http://www.w3.org/1999/02/22-rdf-syntax-ns#" xmlns:svg="http://www.w3.org/2000/svg"
	 xmlns="http://www.w3.org/2000/svg" xmlns:xlink="http://www.w3.org/1999/xlink" x="0px" y="0px" viewBox="0 0 282.3 74.5"
	 style="enable-background:new 0 0 282.3 74.5;" xml:space="preserve">
<style type="text/css">
	.st0{fill:#FF5C34;}
	.st1{fill:#D332AC;}
	.st2{fill:#00C2F8;}
	.st3{fill:#0DE552;}
	.st4{fill:#FFA10A;}
	.st5{fill:#FFFFFF;}
</style>
<desc  id="desc4">Created with Sketch.</desc>
<g id="svg102">
	<path id="path58_1_" class="st0" d="M37.2,37.3c-4.1-5.6-11.8-6.8-17.4-2.8s-6.7,11.7-2.6,17.3l0.3,0.4c-6.6-8.7-7-20.8-0.3-29.8
		l0.1-0.2c4.1-5.4,11.9-6.5,17.4-2.3S41.3,31.9,37.2,37.3z"/>
	<path id="path60_1_" class="st1" d="M37.2,37.3c-6.5,2.2-9.9,9.2-7.6,15.7s9.4,10,15.8,7.8l0.4-0.1c-8,2.9-17.4,1.5-24.5-4.5
		c-1.5-1.2-2.7-2.6-3.8-4l-0.3-0.4c-4.1-5.6-2.9-13.3,2.6-17.3S33.2,31.7,37.2,37.3z"/>
	<path id="path62_1_" class="st2" d="M37.2,37.3c0,6.8,5.6,12.4,12.5,12.5s12.4-5.5,12.3-12.3l0-0.2c0.1,5.7-1.8,11.4-5.7,16.1
		c-2.9,3.4-6.5,5.9-10.5,7.3l-0.4,0.1C39,63,31.9,59.5,29.6,53S30.8,39.5,37.2,37.3z"/>
	<path id="path64_1_" class="st3" d="M37.2,37.3c6.5,2.2,13.5-1.4,15.6-7.9c2.1-6.5-1.5-13.5-8.1-15.7l-0.5-0.2
		c3.1,1,6.2,2.6,8.9,4.8c5.8,4.9,8.9,11.9,9,18.9l0,0.2c0,6.8-5.5,12.4-12.3,12.3C42.9,49.7,37.3,44.1,37.2,37.3z"/>
	<path id="path66_1_" class="st4" d="M37.2,37.3c4.1-5.4,3-13.2-2.6-17.4s-13.3-3.1-17.4,2.3l-0.1,0.2c0.3-0.4,0.6-0.8,0.9-1.2
		c6.5-7.8,16.9-10.5,26.1-7.7l0.5,0.2c6.5,2.2,10.2,9.2,8.1,15.7S43.8,39.5,37.2,37.3z"/>
	<path id="P_Letter" class="st5" d="M35.3,42.6h4.5c4.3,0,7.8-3.4,7.8-7.5s-3.5-7.5-7.8-7.5h-6.6c-2.5,0-4.5,1.9-4.5,4.3v16.9
		L35.3,42.6z"/>
</g>
<path id="text1003" d="M205.7,16c-1.4,0-2.7,0.3-4,0.8s-2.3,1.4-3.1,2.5s-1.2,2.5-1.2,4.2v4h-4.7v3.8h4.7v25.3h4.5V31.3h6.5v-3.8
	h-6.5v-3c0-1.4,0.3-2.5,1-3.3c0.7-0.7,1.7-1.1,3.2-1.1c0.6,0,1.2,0.1,1.6,0.2c0.4,0.1,0.7,0.2,0.9,0.3l1.3-3.9
	c-0.3-0.2-0.9-0.3-1.6-0.5S206.8,16,205.7,16z M114,16.6c-0.9,0-1.6,0.3-2.3,0.9c-0.6,0.6-0.9,1.3-0.9,2.1s0.3,1.5,0.9,2.1
	c0.6,0.6,1.4,0.9,2.3,0.9s1.6-0.3,2.2-0.9c0.6-0.6,0.9-1.3,0.9-2.1s-0.3-1.5-0.9-2.1C115.6,16.9,114.9,16.6,114,16.6z M182.9,17.8
	v38.8h4.5V17.8H182.9z M264.4,17.8v14.3H264c-0.3-0.5-0.8-1.1-1.4-1.9c-0.6-0.8-1.4-1.5-2.5-2.1c-1.1-0.6-2.6-0.9-4.5-0.9
	c-2.4,0-4.6,0.6-6.5,1.8c-1.9,1.2-3.3,3-4.4,5.2c-1,2.2-1.6,4.9-1.6,8c0,3.1,0.5,5.8,1.6,8c1,2.2,2.5,4,4.4,5.2
	c1.9,1.2,4,1.8,6.4,1.8c1.9,0,3.4-0.3,4.5-0.9c1.1-0.6,2-1.3,2.6-2.1c0.6-0.8,1.1-1.5,1.4-2h0.5v4.5h4.3V17.8H264.4z M92.5,27.2
	c-1.9,0-3.4,0.3-4.5,0.9c-1.1,0.6-1.9,1.3-2.5,2.1c-0.6,0.8-1,1.4-1.4,1.9h-0.5v-4.6h-4.3v40h4.5V52.2h0.4c0.3,0.5,0.8,1.2,1.4,2
	c0.6,0.8,1.5,1.5,2.6,2.1c1.1,0.6,2.6,0.9,4.5,0.9c2.4,0,4.6-0.6,6.4-1.8c1.9-1.2,3.3-3,4.4-5.2c1-2.3,1.6-4.9,1.6-8
	c0-3.1-0.5-5.7-1.6-8s-2.5-4-4.4-5.2C97.1,27.8,95,27.2,92.5,27.2z M163.6,27.2c-2.6,0-4.9,0.6-6.9,1.9c-2,1.3-3.5,3.1-4.6,5.3
	c-1.1,2.3-1.6,4.9-1.6,7.9s0.5,5.6,1.6,7.8c1.1,2.2,2.7,4,4.7,5.2c2,1.2,4.5,1.9,7.3,1.9c3,0,5.5-0.7,7.5-2s3.4-3.1,4.1-5.3
	l-4.3-1.2c-0.6,1.5-1.5,2.7-2.7,3.4c-1.3,0.8-2.8,1.1-4.5,1.1c-2.6,0-4.8-0.8-6.4-2.5c-1.7-1.7-2.5-4-2.6-7.1h21.1v-1.9
	c0-2.7-0.4-5-1.1-6.9s-1.7-3.3-2.9-4.5c-1.2-1.1-2.6-2-4-2.5S165.1,27.2,163.6,27.2z M225.3,27.2c-2.6,0-4.9,0.6-6.9,1.9
	c-2,1.3-3.5,3.1-4.6,5.3c-1.1,2.3-1.6,4.9-1.6,7.9s0.5,5.6,1.6,7.8c1.1,2.2,2.7,4,4.7,5.2c2,1.2,4.5,1.9,7.3,1.9c3,0,5.5-0.7,7.5-2
	s3.4-3.1,4.1-5.3l-4.3-1.2c-0.6,1.5-1.5,2.7-2.7,3.4c-1.3,0.8-2.8,1.1-4.5,1.1c-2.6,0-4.8-0.8-6.4-2.5c-1.7-1.7-2.5-4-2.6-7.1h21.1
	v-1.9c0-2.7-0.4-5-1.1-6.9s-1.7-3.3-2.9-4.5c-1.2-1.1-2.6-2-4-2.5S226.8,27.2,225.3,27.2z M111.8,27.5v29.1h4.5V27.5H111.8z
	 M122.5,27.5l9.2,14.5l-9.2,14.5h5.2l7-11.3l7,11.3h5.2l-9.4-14.5l9.4-14.5h-5.2l-7,11.9l-7-11.9H122.5z M92,31.2
	c1.9,0,3.5,0.5,4.7,1.5c1.3,1,2.2,2.3,2.8,3.9c0.6,1.6,0.9,3.5,0.9,5.5c0,2.1-0.3,4-1,5.6c-0.6,1.7-1.6,3-2.8,4
	c-1.2,1-2.8,1.5-4.7,1.5c-2.7,0-4.8-1-6.2-3.1c-1.4-2.1-2.1-4.8-2.1-8c0-3.3,0.7-5.9,2.1-7.9S89.3,31.2,92,31.2z M163.6,31.2
	c2.4,0,4.4,0.8,5.8,2.4c1.4,1.6,2.2,3.7,2.2,6.1H155c0.1-1.5,0.5-2.9,1.2-4.2c0.7-1.3,1.7-2.4,3-3.2S161.9,31.2,163.6,31.2z
	 M225.3,31.2c2.4,0,4.4,0.8,5.8,2.4c1.4,1.6,2.2,3.7,2.2,6.1h-16.6c0.1-1.5,0.5-2.9,1.2-4.2c0.7-1.3,1.7-2.4,3-3.2
	S223.6,31.2,225.3,31.2z M256.2,31.2c2.7,0,4.8,1,6.2,3s2.1,4.6,2.1,7.9c0,3.3-0.7,6-2.2,8c-1.4,2.1-3.5,3.1-6.2,3.1
	c-1.9,0-3.4-0.5-4.7-1.5c-1.2-1-2.2-2.3-2.8-4c-0.6-1.7-0.9-3.6-0.9-5.6c0-2,0.3-3.9,0.9-5.5c0.6-1.7,1.6-3,2.8-3.9
	C252.7,31.7,254.3,31.2,256.2,31.2z"/>
</svg>
