<?xml version="1.0" encoding="UTF-8" standalone="no"?>
<svg
   xmlns:dc="http://purl.org/dc/elements/1.1/"
   xmlns:cc="http://creativecommons.org/ns#"
   xmlns:rdf="http://www.w3.org/1999/02/22-rdf-syntax-ns#"
   xmlns:svg="http://www.w3.org/2000/svg"
   xmlns="http://www.w3.org/2000/svg"
   xmlns:xlink="http://www.w3.org/1999/xlink"
   id="svg114"
   version="1.1"
   viewBox="0 0 282.34698 74.533203"
   height="74.533203"
   width="282.34698">
  <metadata
     id="metadata118">
    <rdf:RDF>
      <cc:Work
         rdf:about="">
        <dc:format>image/svg+xml</dc:format>
        <dc:type
           rdf:resource="http://purl.org/dc/dcmitype/StillImage" />
        <dc:title>icon/color/svg/pixelfed-icon-color</dc:title>
      </cc:Work>
    </rdf:RDF>
  </metadata>
  <!-- Generator: Sketch 51.3 (57544) - http://www.bohemiancoding.com/sketch -->
  <title
     id="title2">icon/color/svg/pixelfed-icon-color</title>
  <desc
     id="desc4">Created with Sketch.</desc>
  <defs
     id="defs61">
    <rect
       height="49.775784"
       width="50"
       y="0.11210762"
       x="0"
       id="path-1" />
    <linearGradient
       id="linearGradient-3"
       y2="0.60117739"
       x2="0"
       y1="0.55806792"
       x1="1">
      <stop
         id="stop7"
         offset="0%"
         stop-color="#FF5C34" />
      <stop
         id="stop9"
         offset="100%"
         stop-color="#EB0256" />
    </linearGradient>
    <linearGradient
       gradientUnits="userSpaceOnUse"
       gradientTransform="scale(1.2181633,0.82090802)"
       id="linearGradient-4"
       y2="34.263325"
       x2="29.551889"
       y1="60.088772"
       x1="18.604218">
      <stop
         id="stop12"
         offset="0%"
         stop-color="#A63FDB" />
      <stop
         id="stop14"
         offset="100%"
         stop-color="#FF257E" />
    </linearGradient>
    <linearGradient
       gradientUnits="userSpaceOnUse"
       gradientTransform="scale(0.87861868,1.1381502)"
       id="linearGradient-5"
       y2="28.198187"
       x2="56.143276"
       y1="22.861416"
       x1="31.906258">
      <stop
         id="stop17"
         offset="0%"
         stop-color="#00FFF0" />
      <stop
         id="stop19"
         offset="100%"
         stop-color="#0087FF" />
    </linearGradient>
    <linearGradient
       gradientUnits="userSpaceOnUse"
       gradientTransform="scale(1.0479971,0.95420109)"
       id="linearGradient-6"
       y2="22.693472"
       x2="21.610674"
       y1="3.0503507"
       x1="40.01442">
      <stop
         id="stop22"
         offset="0%"
         stop-color="#17C934" />
      <stop
         id="stop24"
         offset="100%"
         stop-color="#03FF6E" />
    </linearGradient>
    <linearGradient
       id="linearGradient-7"
       y2="0"
       x2="0.30560157"
       y1="1.1191301"
       x1="0.5">
      <stop
         id="stop27"
         offset="0%"
         stop-color="#FFB000" />
      <stop
         id="stop29"
         offset="100%"
         stop-color="#FF7725" />
    </linearGradient>
    <path
       id="path-8"
       d="M 25.87962,24.663677 C 25.518751,17.862325 19.644178,12.637694 12.758394,12.994138 5.8726091,13.350581 0.58311968,19.153122 0.94398835,25.954474 l 0.010371,0.195465 c -0.0295871,-0.491682 -0.0445914,-0.987241 -0.0445914,-1.486262 0,-10.155941 6.21464645,-18.8781713 15.09259805,-22.6588956 l 0.523383,-0.2088675 c 6.393149,-2.55132802 13.669757,0.4995351 16.252757,6.8142936 2.583,6.3147585 -0.505736,13.5021415 -6.898886,16.0534695 z" />
    <path
       id="path-9"
       d="m 16.338766,1.8705335 0.186983,-0.07462 c 6.393149,-2.55132802 13.669757,0.4995351 16.252757,6.8142936 2.583,6.3147589 -0.505736,13.5021419 -6.898886,16.0534699 -0.05343,-1.007011 -0.227732,-1.979458 -0.50829,-2.904343 3.429966,-1.856689 5.75552,-5.45605 5.75552,-9.591913 0,-6.0367452 -4.954499,-10.9304937 -11.066184,-10.9304937 -1.305803,0 -2.558782,0.223396 -3.7219,0.6336062 z" />
    <linearGradient
       gradientUnits="userSpaceOnUse"
       gradientTransform="scale(0.85441984,1.1703848)"
       id="linearGradient-10"
       y2="21.720842"
       x2="57.873302"
       y1="19.195547"
       x1="16.690788">
      <stop
         id="stop34"
         offset="0%"
         stop-color="#9EE85D" />
      <stop
         id="stop36"
         offset="100%"
         stop-color="#0ED061" />
    </linearGradient>
    <path
       id="path-11"
       d="m 28.379451,9.2701483 0.186983,-0.07462 c 6.393149,-2.551328 13.669757,0.4995351 16.252757,6.8142937 2.583,6.314759 -0.505736,13.502142 -6.898886,16.05347 -0.05343,-1.007011 -0.227732,-1.979458 -0.50829,-2.904343 3.429966,-1.856689 5.75552,-5.45605 5.75552,-9.591913 0,-6.036745 -4.954499,-10.9304939 -11.066184,-10.9304939 -1.305803,0 -2.558782,0.223396 -3.7219,0.6336062 z" />
    <linearGradient
       gradientUnits="userSpaceOnUse"
       gradientTransform="scale(0.85441985,1.1703848)"
       id="linearGradient-12"
       y2="17.769199"
       x2="29.417906"
       y1="42.313534"
       x1="38.66045">
      <stop
         id="stop40"
         offset="0%"
         stop-color="#21EFE3" />
      <stop
         id="stop42"
         offset="100%"
         stop-color="#2598FF" />
    </linearGradient>
    <path
       id="path-13"
       d="m 25.135241,22.73235 0.186983,-0.07462 c 6.39315,-2.551328 13.669757,0.499535 16.252757,6.814293 2.583001,6.314759 -0.505736,13.502142 -6.898886,16.05347 -0.05343,-1.007011 -0.227731,-1.979458 -0.50829,-2.904343 3.429966,-1.856689 5.755521,-5.45605 5.755521,-9.591913 0,-6.036745 -4.9545,-10.930494 -11.066185,-10.930494 -1.305803,0 -2.558782,0.223396 -3.7219,0.633607 z" />
    <linearGradient
       gradientUnits="userSpaceOnUse"
       gradientTransform="scale(0.85441985,1.1703848)"
       id="linearGradient-14"
       y2="34.564075"
       x2="-5.737164"
       y1="31.292349"
       x1="32.778084">
      <stop
         id="stop46"
         offset="0%"
         stop-color="#A63FDB" />
      <stop
         id="stop48"
         offset="100%"
         stop-color="#FF257E" />
    </linearGradient>
    <path
       id="path-15"
       d="m 10.654093,23.764822 0.186983,-0.07462 c 6.393149,-2.551328 13.669757,0.499535 16.252757,6.814293 2.583,6.314759 -0.505736,13.502142 -6.898886,16.05347 -0.05343,-1.007011 -0.227732,-1.979458 -0.50829,-2.904343 3.429966,-1.856689 5.75552,-5.45605 5.75552,-9.591913 0,-6.036745 -4.954499,-10.930493 -11.066184,-10.930493 -1.305803,0 -2.558782,0.223396 -3.7219,0.633606 z" />
    <path
       id="path-16"
       d="m 5.5458544,10.697205 0.1869826,-0.07462 c 6.39315,-2.5513278 13.669757,0.499535 16.252757,6.814294 2.583,6.314758 -0.505736,13.502141 -6.898886,16.053469 -0.05343,-1.007011 -0.227732,-1.979458 -0.50829,-2.904342 3.429966,-1.856689 5.755521,-5.45605 5.755521,-9.591914 0,-6.036745 -4.9545,-10.930493 -11.0661847,-10.930493 -1.3058034,0 -2.5587821,0.223396 -3.7218999,0.633606 z" />
    <path
       id="path-17"
       d="m 35.631732,42.373098 h 4.544831 c 4.281413,0 7.752184,-3.36365 7.752184,-7.512922 0,-4.149273 -3.470771,-7.512923 -7.752184,-7.512923 h -6.55954 c -2.470046,0 -4.472413,1.940568 -4.472413,4.334379 v 16.869977 z" />
    <filter
       id="filter-18"
       filterUnits="objectBoundingBox"
       height="1.472"
       width="1.5319999"
       y="-0.189"
       x="-0.266">
      <feOffset
         id="feOffset54"
         result="shadowOffsetOuter1"
         in="SourceAlpha"
         dy="1"
         dx="0" />
      <feGaussianBlur
         id="feGaussianBlur56"
         result="shadowBlurOuter1"
         in="shadowOffsetOuter1"
         stdDeviation="1.5" />
      <feColorMatrix
         id="feColorMatrix58"
         in="shadowBlurOuter1"
         type="matrix"
         values="0 0 0 0 0   0 0 0 0 0   0 0 0 0 0  0 0 0 0.298686594 0" />
    </filter>
    <linearGradient
       gradientUnits="userSpaceOnUse"
       gradientTransform="scale(0.83554453,1.1968243)"
       y2="28.796618"
       x2="1.1089396"
       y1="27.509178"
       x1="30.973358"
       id="linearGradient937"
       xlink:href="#linearGradient-3" />
    <linearGradient
       gradientUnits="userSpaceOnUse"
       gradientTransform="scale(1.1392952,0.87773565)"
       y2="1.0193164"
       x2="9.5916662"
       y1="33.220253"
       x1="15.185128"
       id="linearGradient939"
       xlink:href="#linearGradient-7" />
    <linearGradient
       gradientUnits="userSpaceOnUse"
       gradientTransform="scale(1.1392952,0.87773565)"
       y2="1.0193164"
       x2="9.5916662"
       y1="33.220253"
       x1="15.185128"
       id="linearGradient941"
       xlink:href="#linearGradient-7" />
    <linearGradient
       gradientUnits="userSpaceOnUse"
       gradientTransform="scale(1.1392952,0.87773565)"
       y2="1.0193164"
       x2="9.5916662"
       y1="33.220253"
       x1="15.185128"
       id="linearGradient943"
       xlink:href="#linearGradient-7" />
    <linearGradient
       gradientUnits="userSpaceOnUse"
       gradientTransform="scale(0.85441984,1.1703848)"
       y2="0.76444119"
       x2="25.329012"
       y1="23.492514"
       x1="29.276991"
       id="linearGradient945"
       xlink:href="#linearGradient-7" />
    <linearGradient
       gradientUnits="userSpaceOnUse"
       gradientTransform="scale(0.85441985,1.1703848)"
       y2="20.515251"
       x2="6.4907837"
       y1="19.639755"
       x1="26.799479"
       id="linearGradient947"
       xlink:href="#linearGradient-3" />
  </defs>
  <g
     style="fill:none;fill-rule:evenodd;stroke:none;stroke-width:1"
     transform="translate(12.27485,12.36159)"
     id="Page-1">
    <g
       id="icon-copy-9">
      <g
         id="Group">
        <mask
           fill="white"
           id="mask-2">
          <use
             height="100%"
             width="100%"
             y="0"
             x="0"
             id="use63"
             xlink:href="#path-1" />
        </mask>
        <g
           id="Rectangle" />
        <g
           mask="url(#mask-2)"
           id="Group-12">
          <g
             id="g108"
             transform="translate(-12.598536,-12.100617)">
            <g
               style="fill-rule:evenodd;stroke-width:1"
               transform="rotate(40,14.707207,46.948765)"
               id="Group-5">
              <path
                 style="fill:url(#linearGradient937)"
                 id="Combined-Shape"
                 d="m 25.87962,24.663677 c -6.690416,-1.647654 -13.466339,2.373809 -15.134447,8.982189 -1.6681085,6.60838 2.403277,13.301217 9.093693,14.948872 l 0.506171,0.124655 C 9.690881,46.338007 1.6209996,37.228229 0.95435936,26.149938 l -0.010371,-0.195464 C 0.58311968,19.153122 5.8726091,13.350581 12.758394,12.994138 19.644178,12.637694 25.518751,17.862325 25.87962,24.663677 Z" />
              <path
                 style="fill:url(#linearGradient-4)"
                 id="Combined-Shape-Copy-6"
                 d="m 25.87962,24.663677 c -3.551308,5.837898 -1.638912,13.414052 4.271458,16.921815 5.910369,3.507763 13.580574,1.618816 17.131882,-4.219082 l 0.23527,-0.386753 c -4.315115,7.380735 -12.389614,12.347697 -21.63861,12.347697 -1.902025,0 -3.754379,-0.210055 -5.534583,-0.607961 L 19.838866,48.594738 C 13.14845,46.947083 9.0770645,40.254246 10.745173,33.645866 12.413281,27.037486 19.189204,23.016023 25.87962,24.663677 Z" />
              <path
                 style="fill:url(#linearGradient-5)"
                 id="Combined-Shape-Copy-5"
                 d="m 25.87962,24.663677 c 4.432171,5.217289 12.307108,5.897808 17.589163,1.519983 5.282056,-4.377824 5.971024,-12.1562 1.538853,-17.3734889 L 44.906151,8.6907085 c 3.706614,4.3033865 5.94332,9.8801755 5.94332,15.9729685 0,4.485786 -1.21242,8.691868 -3.331241,12.31598 L 47.28296,37.36641 C 43.731652,43.204308 36.061447,45.093255 30.151078,41.585492 24.240708,38.077729 22.328312,30.501575 25.87962,24.663677 Z" />
              <path
                 style="fill:url(#linearGradient-6)"
                 id="Combined-Shape-Copy-4"
                 d="M 25.87962,24.663677 C 32.27277,22.112349 35.361506,14.924966 32.778506,8.6102075 30.195506,2.295449 22.918898,-0.75541412 16.525749,1.7959139 L 16.002366,2.0047814 C 19.031719,0.71471464 22.371168,0 25.87962,0 33.501659,0 40.326061,3.373215 44.906151,8.6907085 l 0.101485,0.1194626 C 49.439807,14.02746 48.750839,21.805836 43.468783,26.18366 38.186728,30.561485 30.311791,29.880966 25.87962,24.663677 Z" />
              <g
                 style="fill:url(#linearGradient943)"
                 id="Combined-Shape-Copy-3">
                <use
                   height="100%"
                   width="100%"
                   y="0"
                   x="0"
                   style="fill:url(#linearGradient939)"
                   id="use71"
                   xlink:href="#path-8" />
                <use
                   height="100%"
                   width="100%"
                   y="0"
                   x="0"
                   id="use73"
                   xlink:href="#path-8"
                   style="mix-blend-mode:multiply;fill:url(#linearGradient941);fill-opacity:0.1" />
              </g>
              <g
                 style="opacity:0.5049107"
                 id="g80">
                <use
                   height="100%"
                   width="100%"
                   y="0"
                   x="0"
                   style="fill:url(#linearGradient945)"
                   id="use76"
                   xlink:href="#path-9" />
                <use
                   height="100%"
                   width="100%"
                   y="0"
                   x="0"
                   id="use78"
                   xlink:href="#path-9"
                   style="mix-blend-mode:overlay;fill:#000000;fill-opacity:0.49617866" />
              </g>
              <g
                 style="opacity:0.54425222"
                 transform="rotate(72,37.055527,20.178799)"
                 id="Combined-Shape-Copy-7">
                <use
                   height="100%"
                   width="100%"
                   y="0"
                   x="0"
                   style="fill:url(#linearGradient-10)"
                   id="use82"
                   xlink:href="#path-11" />
                <use
                   height="100%"
                   width="100%"
                   y="0"
                   x="0"
                   id="use84"
                   xlink:href="#path-11"
                   style="mix-blend-mode:overlay;fill:#000000;fill-opacity:0.49988679" />
              </g>
              <g
                 style="opacity:0.56222097"
                 transform="rotate(143,33.811317,33.641001)"
                 id="Combined-Shape-Copy-8">
                <use
                   height="100%"
                   width="100%"
                   y="0"
                   x="0"
                   style="fill:url(#linearGradient-12)"
                   id="use87"
                   xlink:href="#path-13" />
                <use
                   height="100%"
                   width="100%"
                   y="0"
                   x="0"
                   id="use89"
                   xlink:href="#path-13"
                   style="mix-blend-mode:overlay;fill:#000000" />
              </g>
              <g
                 style="opacity:0.5841518"
                 transform="rotate(-143,19.330169,34.673473)"
                 id="Combined-Shape-Copy-9">
                <use
                   height="100%"
                   width="100%"
                   y="0"
                   x="0"
                   style="fill:url(#linearGradient-14)"
                   id="use92"
                   xlink:href="#path-15" />
                <use
                   height="100%"
                   width="100%"
                   y="0"
                   x="0"
                   id="use94"
                   xlink:href="#path-15"
                   style="mix-blend-mode:overlay;fill:#000000;fill-opacity:0.50308539" />
              </g>
              <g
                 style="opacity:0.18013395"
                 transform="rotate(-71,14.22193,21.605855)"
                 id="Combined-Shape-Copy-10">
                <use
                   height="100%"
                   width="100%"
                   y="0"
                   x="0"
                   style="fill:url(#linearGradient947)"
                   id="use97"
                   xlink:href="#path-16" />
                <use
                   height="100%"
                   width="100%"
                   y="0"
                   x="0"
                   id="use99"
                   xlink:href="#path-16"
                   style="mix-blend-mode:multiply;fill:#000000;fill-opacity:0.77284307" />
              </g>
            </g>
            <g
               style="fill-rule:nonzero"
               id="Path-6-Copy-2">
              <use
                 height="100%"
                 width="100%"
                 y="0"
                 x="0"
                 style="fill:#000000;fill-opacity:1;filter:url(#filter-18)"
                 id="use103"
                 xlink:href="#path-17" />
              <use
                 height="100%"
                 width="100%"
                 y="0"
                 x="0"
                 style="fill:#ffffff"
                 id="use105"
                 xlink:href="#path-17" />
            </g>
          </g>
        </g>
      </g>
    </g>
  </g>
  <path
     id="text897"
     d="M 206.69531 16.451172 C 205.30642 16.451172 203.98633 16.729601 202.73633 17.285156 C 201.48633 17.840712 200.47033 18.674045 199.6875 19.785156 C 198.90467 20.896267 198.51367 22.284505 198.51367 23.951172 L 198.51367 27.966797 L 193.81641 27.966797 L 193.81641 31.755859 L 198.51367 31.755859 L 198.51367 57.058594 L 202.98438 57.058594 L 202.98438 31.755859 L 209.49805 31.755859 L 209.49805 27.966797 L 202.98438 27.966797 L 202.98438 25.011719 C 202.98438 23.572325 203.30528 22.481278 203.94922 21.736328 C 204.60578 20.991379 205.67312 20.619141 207.15039 20.619141 C 207.79433 20.619141 208.31171 20.675426 208.70312 20.789062 C 209.10717 20.902699 209.42312 20.998461 209.65039 21.074219 L 210.9375 17.208984 C 210.59659 17.057469 210.07921 16.893565 209.38477 16.716797 C 208.69032 16.540029 207.7938 16.451172 206.69531 16.451172 z M 115.06641 17.058594 C 114.19519 17.058594 113.44381 17.355784 112.8125 17.949219 C 112.19381 18.542653 111.88477 19.254557 111.88477 20.087891 C 111.88477 20.921224 112.19381 21.635081 112.8125 22.228516 C 113.44381 22.82195 114.19519 23.119141 115.06641 23.119141 C 115.93762 23.119141 116.68209 22.82195 117.30078 22.228516 C 117.93209 21.635081 118.24805 20.921224 118.24805 20.087891 C 118.24805 19.254557 117.93209 18.542653 117.30078 17.949219 C 116.68209 17.355784 115.93762 17.058594 115.06641 17.058594 z M 79.546875 18.269531 L 79.546875 57.058594 L 84.242188 57.058594 L 84.242188 42.890625 L 92.728516 42.890625 C 95.746192 42.890625 98.220526 42.342625 100.15234 41.244141 C 102.08416 40.13303 103.50992 38.642124 104.43164 36.773438 C 105.36598 34.904751 105.83398 32.828322 105.83398 30.542969 C 105.83398 28.257615 105.36598 26.186139 104.43164 24.330078 C 103.4973 22.474018 102.05773 21.003827 100.11328 19.917969 C 98.181463 18.819484 95.695273 18.269531 92.652344 18.269531 L 79.546875 18.269531 z M 183.93945 18.269531 L 183.93945 57.058594 L 188.41016 57.058594 L 188.41016 18.269531 L 183.93945 18.269531 z M 265.45508 18.269531 L 265.45508 32.587891 L 265.07617 32.587891 C 264.74789 32.08284 264.28679 31.439078 263.69336 30.65625 C 263.11255 29.860795 262.26736 29.153843 261.15625 28.535156 C 260.05777 27.903843 258.56191 27.587891 256.66797 27.587891 C 254.21847 27.587891 252.05814 28.201034 250.18945 29.425781 C 248.32077 30.650529 246.86243 32.387291 245.81445 34.634766 C 244.76647 36.88224 244.24219 39.532335 244.24219 42.587891 C 244.24219 45.668699 244.76647 48.339508 245.81445 50.599609 C 246.86243 52.847084 248.31581 54.588798 250.17188 55.826172 C 252.02794 57.050919 254.16755 57.664062 256.5918 57.664062 C 258.46048 57.664063 259.95634 57.355015 261.08008 56.736328 C 262.20382 56.105015 263.06777 55.391158 263.67383 54.595703 C 264.27989 53.787622 264.74789 53.118194 265.07617 52.587891 L 265.60742 52.587891 L 265.60742 57.058594 L 269.92383 57.058594 L 269.92383 18.269531 L 265.45508 18.269531 z M 84.242188 22.4375 L 92.5 22.4375 C 95.656566 22.4375 97.898852 23.207643 99.224609 24.748047 C 100.55037 26.275825 101.21289 28.20711 101.21289 30.542969 C 101.21289 32.866201 100.55037 34.811297 99.224609 36.376953 C 97.911478 37.94261 95.694859 38.724609 92.576172 38.724609 L 84.242188 38.724609 L 84.242188 22.4375 z M 164.64062 27.587891 C 162.01436 27.587891 159.71579 28.231652 157.74609 29.519531 C 155.78902 30.794784 154.26255 32.575975 153.16406 34.861328 C 152.0782 37.134055 151.53516 39.760436 151.53516 42.740234 C 151.53516 45.720032 152.0782 48.332603 153.16406 50.580078 C 154.26255 52.814927 155.82159 54.558594 157.8418 55.808594 C 159.87463 57.045967 162.29267 57.664062 165.0957 57.664062 C 168.05025 57.664063 170.55025 56.987729 172.5957 55.636719 C 174.64116 54.285709 176.00373 52.513376 176.68555 50.316406 L 172.36719 49.103516 C 171.79901 50.618667 170.88372 51.754143 169.62109 52.511719 C 168.35847 53.269294 166.85075 53.648438 165.0957 53.648438 C 162.46944 53.648438 160.32292 52.822009 158.65625 51.167969 C 157.00221 49.513928 156.12445 47.133404 156.02344 44.027344 L 177.14062 44.027344 L 177.14062 42.134766 C 177.14062 39.420119 176.78024 37.133404 176.06055 35.277344 C 175.34085 33.421283 174.37618 31.932331 173.16406 30.808594 C 171.95194 29.67223 170.60618 28.850754 169.12891 28.345703 C 167.65163 27.840653 166.15578 27.587891 164.64062 27.587891 z M 226.30664 27.587891 C 223.68038 27.587891 221.38376 28.231652 219.41406 29.519531 C 217.45699 30.794784 215.92856 32.575975 214.83008 34.861328 C 213.74422 37.134055 213.20117 39.760436 213.20117 42.740234 C 213.20117 45.720032 213.74422 48.332603 214.83008 50.580078 C 215.92856 52.814927 217.48761 54.558594 219.50781 55.808594 C 221.54064 57.045967 223.95869 57.664062 226.76172 57.664062 C 229.71626 57.664063 232.21626 56.987729 234.26172 55.636719 C 236.30717 54.285709 237.6717 52.513376 238.35352 50.316406 L 234.03516 49.103516 C 233.46697 50.618667 232.55169 51.754143 231.28906 52.511719 C 230.02644 53.269294 228.51677 53.648438 226.76172 53.648438 C 224.13546 53.648438 221.98893 52.822009 220.32227 51.167969 C 218.66823 49.513928 217.79046 47.133404 217.68945 44.027344 L 238.80664 44.027344 L 238.80664 42.134766 C 238.80664 39.420119 238.44821 37.133404 237.72852 35.277344 C 237.00882 33.421283 236.0422 31.932331 234.83008 30.808594 C 233.61796 29.67223 232.27415 28.850754 230.79688 28.345703 C 229.3196 27.840653 227.82179 27.587891 226.30664 27.587891 z M 112.79492 27.966797 L 112.79492 57.058594 L 117.26367 57.058594 L 117.26367 27.966797 L 112.79492 27.966797 z M 123.58008 27.966797 L 132.82227 42.511719 L 123.58008 57.058594 L 128.73242 57.058594 L 135.70117 45.769531 L 142.67188 57.058594 L 147.82227 57.058594 L 138.42773 42.511719 L 147.82227 27.966797 L 142.67188 27.966797 L 135.70117 39.861328 L 128.73242 27.966797 L 123.58008 27.966797 z M 164.64062 31.603516 C 167.06487 31.603516 168.99615 32.418087 170.43555 34.046875 C 171.87494 35.663037 172.5957 37.701941 172.5957 40.164062 L 156.02344 40.164062 C 156.12445 38.661537 156.53421 37.259489 157.25391 35.958984 C 157.9736 34.645853 158.95898 33.59233 160.20898 32.796875 C 161.45898 32.00142 162.93608 31.603516 164.64062 31.603516 z M 226.30664 31.603516 C 228.73088 31.603516 230.66412 32.418087 232.10352 34.046875 C 233.54291 35.663037 234.26172 37.701941 234.26172 40.164062 L 217.68945 40.164062 C 217.79046 38.661537 218.20218 37.259489 218.92188 35.958984 C 219.64157 34.645853 220.625 33.59233 221.875 32.796875 C 223.125 32.00142 224.6021 31.603516 226.30664 31.603516 z M 257.19727 31.603516 C 259.92454 31.603516 261.99601 32.607659 263.41016 34.615234 C 264.8243 36.62281 265.53125 39.254143 265.53125 42.511719 C 265.53125 45.807173 264.81049 48.491793 263.37109 50.5625 C 261.94433 52.620581 259.88666 53.648438 257.19727 53.648438 C 255.32858 53.648438 253.76263 53.156723 252.5 52.171875 C 251.25 51.1744 250.3041 49.835543 249.66016 48.15625 C 249.02884 46.464331 248.71289 44.582426 248.71289 42.511719 C 248.71289 40.466264 249.02194 38.623836 249.64062 36.982422 C 250.27194 35.328382 251.21289 34.022096 252.46289 33.0625 C 253.72552 32.090278 255.30333 31.603516 257.19727 31.603516 z "
     style="font-style:normal;font-weight:normal;font-size:40px;line-height:1.25;font-family:sans-serif;letter-spacing:0px;word-spacing:0px;fill:#000000;fill-opacity:1;stroke:none" />
</svg>
