<?xml version="1.0" encoding="UTF-8" standalone="no"?>
<svg
   xmlns:dc="http://purl.org/dc/elements/1.1/"
   xmlns:cc="http://creativecommons.org/ns#"
   xmlns:rdf="http://www.w3.org/1999/02/22-rdf-syntax-ns#"
   xmlns:svg="http://www.w3.org/2000/svg"
   xmlns="http://www.w3.org/2000/svg"
   xmlns:xlink="http://www.w3.org/1999/xlink"
   width="282.34698"
   height="74.533203"
   viewBox="0 0 282.34698 74.533203"
   version="1.1"
   id="svg114">
  <metadata
     id="metadata118">
    <rdf:RDF>
      <cc:Work
         rdf:about="">
        <dc:format>image/svg+xml</dc:format>
        <dc:type
           rdf:resource="http://purl.org/dc/dcmitype/StillImage" />
        <dc:title>icon/color/svg/pixelfed-icon-color</dc:title>
      </cc:Work>
    </rdf:RDF>
  </metadata>
  <!-- Generator: Sketch 51.3 (57544) - http://www.bohemiancoding.com/sketch -->
  <title
     id="title2">icon/color/svg/pixelfed-icon-color</title>
  <desc
     id="desc4">Created with Sketch.</desc>
  <g
     transform="translate(6.9055313e-8,-0.46679723)"
     id="g993">
    <path
       id="path58"
       d="M 37.344501,37.708859 C 33.27843,32.146166 25.502814,30.871306 19.977177,34.86138 14.451539,38.851453 13.268326,46.5955 17.334396,52.158194 l 0.307623,0.420851 C 11.011178,43.906438 10.684942,31.740724 17.295264,22.825752 l 0.117697,-0.1564 c 4.095389,-5.4421 11.877186,-6.487086 17.381128,-2.33404 5.503943,4.153045 6.6458,11.931447 2.550412,17.373547 z"
       style="fill:url(#g14)" />
    <path
       id="path60"
       d="m 37.344501,37.708859 c -6.472999,2.189353 -9.877881,9.222288 -7.605018,15.708503 2.272862,6.486214 9.362782,9.969509 15.835779,7.780157 l 0.428828,-0.145041 c -8.049827,2.880268 -17.427966,1.494994 -24.513119,-4.450146 -1.457037,-1.222598 -2.741004,-2.57418 -3.848952,-4.023287 L 17.334396,52.158194 C 13.268326,46.5955 14.451539,38.851453 19.977177,34.86138 25.502814,30.871306 33.27843,32.146166 37.344501,37.708859 Z"
       style="fill:url(#g13)" />
    <path
       id="path62"
       d="m 37.344501,37.708859 c 0.04163,6.84562 5.636761,12.42884 12.497071,12.470471 6.860311,0.04163 12.387942,-5.47409 12.346311,-12.319709 l -9.53e-4,-0.156747 c 0.07327,5.679151 -1.798009,11.388946 -5.714387,16.056296 -2.883411,3.436311 -6.515801,5.879029 -10.468453,7.293308 l -0.428828,0.145041 C 39.102265,63.386871 32.012345,59.903576 29.739483,53.417362 27.46662,46.931147 30.871502,39.898212 37.344501,37.708859 Z"
       style="fill:url(#g12)" />
    <path
       id="path64"
       d="M 37.344501,37.708859 C 43.881909,39.863866 50.867988,36.343413 52.948347,29.845706 55.028706,23.348 51.415553,16.33359 44.878144,14.178584 l -0.535192,-0.176422 c 3.149862,0.958982 6.167442,2.558035 8.855077,4.813224 5.838829,4.899353 8.898368,11.870026 8.988901,18.887488 l 9.53e-4,0.156747 c 0.04163,6.845619 -5.486,12.361341 -12.346311,12.319709 -6.86031,-0.04163 -12.45544,-5.624851 -12.497071,-12.470471 z"
       style="fill:url(#g11)" />
    <path
       id="path66"
       style="fill:url(#linearGradient995)"
       d="m 37.344501,37.708859 c 4.095388,-5.4421 2.953531,-13.220502 -2.550412,-17.373547 -5.503942,-4.153046 -13.285739,-3.10806 -17.381128,2.33404 l -0.117698,0.156401 c 0.293382,-0.395668 0.600429,-0.784933 0.921193,-1.167205 6.528123,-7.779903 16.895374,-10.466821 26.126496,-7.656386 l 0.535192,0.176422 c 6.537409,2.155006 10.150562,9.169416 8.070203,15.667122 -2.080359,6.497707 -9.066438,10.01816 -15.603846,7.863153 z" />
    <g
       id="g72"
       style="opacity:0.54425222;fill:none"
       transform="matrix(-0.37460713,0.92718385,-0.92718518,-0.37460659,81.342244,14.622857)">
      <path
         id="path68"
         d="m 28.379451,9.2701483 0.186983,-0.07462 c 6.393149,-2.551328 13.669757,0.4995351 16.252757,6.8142937 2.583,6.314759 -0.505736,13.502142 -6.898886,16.05347 -0.05343,-1.007011 -0.227732,-1.979458 -0.50829,-2.904343 3.429966,-1.856689 5.75552,-5.45605 5.75552,-9.591913 0,-6.036745 -4.954499,-10.9304939 -11.066184,-10.9304939 -1.305803,0 -2.558782,0.223396 -3.7219,0.6336062 z"
         style="fill:url(#g9)" />
      <path
         id="path70"
         d="m 28.379451,9.2701483 0.186983,-0.07462 c 6.393149,-2.551328 13.669757,0.4995351 16.252757,6.8142937 2.583,6.314759 -0.505736,13.502142 -6.898886,16.05347 -0.05343,-1.007011 -0.227732,-1.979458 -0.50829,-2.904343 3.429966,-1.856689 5.75552,-5.45605 5.75552,-9.591913 0,-6.036745 -4.954499,-10.9304939 -11.066184,-10.9304939 -1.305803,0 -2.558782,0.223396 -3.7219,0.6336062 z"
         style="mix-blend-mode:overlay;fill:#000000;fill-opacity:0.49988679" />
    </g>
    <path
       id="path74"
       style="opacity:0.1;fill:url(#g8)"
       d="m 37.344501,37.708859 c 4.095388,-5.4421 2.953531,-13.220502 -2.550412,-17.373547 -5.503942,-4.153046 -13.285739,-3.10806 -17.381128,2.33404 l -0.117698,0.156401 c 0.293382,-0.395668 0.600429,-0.784933 0.921193,-1.167205 6.528123,-7.779903 16.895374,-10.466821 26.126496,-7.656386 l 0.535192,0.176422 c 6.537409,2.155006 10.150562,9.169416 8.070203,15.667122 -2.080359,6.497707 -9.066438,10.01816 -15.603846,7.863153 z" />
    <path
       id="path76"
       style="opacity:0.18013395;fill:url(#g7)"
       d="m 17.324475,22.990984 0.121843,-0.160265 c 4.165973,-5.47963 11.974565,-6.61226 17.440978,-2.529799 5.466411,4.082461 6.520625,11.834067 2.354651,17.313698 -0.564448,-0.835659 -1.214702,-1.579436 -1.931538,-2.227718 1.983791,-3.358057 2.123373,-7.64106 -0.0068,-11.186188 -3.109159,-5.1745 -9.87647,-6.817505 -15.115214,-3.669755 -1.119294,0.672539 -2.07825,1.509358 -2.863963,2.460027 z" />
    <g
       id="g82"
       style="opacity:0.18013395;fill:none"
       transform="matrix(0.85716853,-0.51503807,0.51503881,0.8571673,7.2277095,16.834214)">
      <path
         id="path78"
         d="m 5.5458544,10.697205 0.1869826,-0.07462 c 6.39315,-2.5513278 13.669757,0.499535 16.252757,6.814294 2.583,6.314758 -0.505736,13.502141 -6.898886,16.053469 -0.05343,-1.007011 -0.227732,-1.979458 -0.50829,-2.904342 3.429966,-1.856689 5.755521,-5.45605 5.755521,-9.591914 0,-6.036745 -4.9545,-10.930493 -11.0661847,-10.930493 -1.3058034,0 -2.5587821,0.223396 -3.7218999,0.633606 z"
         style="fill:url(#linearGradient997)" />
      <path
         id="path80"
         d="m 5.5458544,10.697205 0.1869826,-0.07462 c 6.39315,-2.5513278 13.669757,0.499535 16.252757,6.814294 2.583,6.314758 -0.505736,13.502141 -6.898886,16.053469 -0.05343,-1.007011 -0.227732,-1.979458 -0.50829,-2.904342 3.429966,-1.856689 5.755521,-5.45605 5.755521,-9.591914 0,-6.036745 -4.9545,-10.930493 -11.0661847,-10.930493 -1.3058034,0 -2.5587821,0.223396 -3.7218999,0.633606 z"
         style="mix-blend-mode:multiply;fill:#000000;fill-opacity:0.77284307" />
    </g>
    <g
       id="g88"
       style="opacity:0.5841518;fill:none"
       transform="matrix(-0.22495138,-0.97437006,0.97437146,-0.22495105,-3.413458,67.921439)">
      <path
         id="path84"
         d="m 10.654093,23.764822 0.186983,-0.07462 c 6.393149,-2.551328 13.669757,0.499535 16.252757,6.814293 2.583,6.314759 -0.505736,13.502142 -6.898886,16.05347 -0.05343,-1.007011 -0.227732,-1.979458 -0.50829,-2.904343 3.429966,-1.856689 5.75552,-5.45605 5.75552,-9.591913 0,-6.036745 -4.954499,-10.930493 -11.066184,-10.930493 -1.305803,0 -2.558782,0.223396 -3.7219,0.633606 z"
         style="fill:url(#linearGradient999)" />
      <path
         id="path86"
         d="m 10.654093,23.764822 0.186983,-0.07462 c 6.393149,-2.551328 13.669757,0.499535 16.252757,6.814293 2.583,6.314759 -0.505736,13.502142 -6.898886,16.05347 -0.05343,-1.007011 -0.227732,-1.979458 -0.50829,-2.904343 3.429966,-1.856689 5.75552,-5.45605 5.75552,-9.591913 0,-6.036745 -4.954499,-10.930493 -11.066184,-10.930493 -1.305803,0 -2.558782,0.223396 -3.7219,0.633606 z"
         style="mix-blend-mode:overlay;fill:#000000;fill-opacity:0.50308539" />
    </g>
    <g
       id="g94"
       style="opacity:0.56222097;fill:none"
       transform="matrix(-0.99863096,-0.05233596,0.05233603,-0.99862953,69.65441,85.048735)">
      <path
         id="path90"
         d="m 25.135241,22.73235 0.186983,-0.07462 c 6.39315,-2.551328 13.669757,0.499535 16.252757,6.814293 2.583001,6.314759 -0.505736,13.502142 -6.898886,16.05347 -0.05343,-1.007011 -0.227731,-1.979458 -0.50829,-2.904343 3.429966,-1.856689 5.755521,-5.45605 5.755521,-9.591913 0,-6.036745 -4.9545,-10.930494 -11.066185,-10.930494 -1.305803,0 -2.558782,0.223396 -3.7219,0.633607 z"
         style="fill:url(#g3)" />
      <path
         id="path92"
         d="m 25.135241,22.73235 0.186983,-0.07462 c 6.39315,-2.551328 13.669757,0.499535 16.252757,6.814293 2.583001,6.314759 -0.505736,13.502142 -6.898886,16.05347 -0.05343,-1.007011 -0.227731,-1.979458 -0.50829,-2.904343 3.429966,-1.856689 5.755521,-5.45605 5.755521,-9.591913 0,-6.036745 -4.9545,-10.930494 -11.066185,-10.930494 -1.305803,0 -2.558782,0.223396 -3.7219,0.633607 z"
         style="mix-blend-mode:overlay;fill:#000000" />
    </g>
    <path
       id="path96"
       d="m 44.686954,14.115568 0.191202,0.06303 c 6.537408,2.155006 10.150561,9.169416 8.070202,15.667122 -2.080359,6.497706 -9.066438,10.01816 -15.603846,7.863153 0.606364,-0.805759 1.097919,-1.662736 1.477505,-2.551578 3.820968,0.782433 7.916076,-0.48 10.574561,-3.648255 3.88035,-4.624415 3.230624,-11.557934 -1.451204,-15.486449 -1.000306,-0.839354 -2.10374,-1.473623 -3.25842,-1.907021 z"
       style="mix-blend-mode:overlay;fill:#000000;fill-opacity:0.49617866" />
    <path
       id="path98"
       d="m 24.100846,55.523071 h 4.544831 c 4.281413,0 7.752184,-3.36365 7.752184,-7.512922 0,-4.149273 -3.470771,-7.512923 -7.752184,-7.512923 h -6.55954 c -2.470046,0 -4.472413,1.940568 -4.472413,4.334379 v 16.869977 z"
       style="fill:#000000;filter:url(#filter-18-3)"
       transform="matrix(1.0000014,0,0,1,11.284998,-12.5)" />
    <path
       id="path100"
       d="m 35.385879,43.023071 h 4.544837 c 4.281419,0 7.752195,-3.36365 7.752195,-7.512922 0,-4.149273 -3.470776,-7.512923 -7.752195,-7.512923 h -6.559549 c -2.47005,0 -4.47242,1.940568 -4.47242,4.334379 v 16.869977 z"
       style="fill:#ffffff" />
  </g>
  <defs
     id="defs61">
    <rect
       id="path-1"
       x="0"
       y="0.11210762"
       width="50"
       height="49.775784" />
    <linearGradient
       x1="1"
       y1="0.55806792"
       x2="0"
       y2="0.60117739"
       id="linearGradient-3">
      <stop
         stop-color="#FF5C34"
         offset="0%"
         id="stop7" />
      <stop
         stop-color="#EB0256"
         offset="100%"
         id="stop9" />
    </linearGradient>
    <linearGradient
       x1="18.604218"
       y1="60.088772"
       x2="29.551889"
       y2="34.263325"
       id="linearGradient-4"
       gradientTransform="scale(1.2181633,0.82090802)"
       gradientUnits="userSpaceOnUse">
      <stop
         stop-color="#A63FDB"
         offset="0%"
         id="stop12" />
      <stop
         stop-color="#FF257E"
         offset="100%"
         id="stop14" />
    </linearGradient>
    <linearGradient
       x1="31.906258"
       y1="22.861416"
       x2="56.143276"
       y2="28.198187"
       id="linearGradient-5"
       gradientTransform="scale(0.87861868,1.1381502)"
       gradientUnits="userSpaceOnUse">
      <stop
         stop-color="#00FFF0"
         offset="0%"
         id="stop17" />
      <stop
         stop-color="#0087FF"
         offset="100%"
         id="stop19" />
    </linearGradient>
    <linearGradient
       x1="40.01442"
       y1="3.0503507"
       x2="21.610674"
       y2="22.693472"
       id="linearGradient-6"
       gradientTransform="scale(1.0479971,0.95420109)"
       gradientUnits="userSpaceOnUse">
      <stop
         stop-color="#17C934"
         offset="0%"
         id="stop22" />
      <stop
         stop-color="#03FF6E"
         offset="100%"
         id="stop24" />
    </linearGradient>
    <linearGradient
       x1="0.5"
       y1="1.1191301"
       x2="0.30560157"
       y2="0"
       id="linearGradient-7">
      <stop
         stop-color="#FFB000"
         offset="0%"
         id="stop27" />
      <stop
         stop-color="#FF7725"
         offset="100%"
         id="stop29" />
    </linearGradient>
    <path
       d="M 25.87962,24.663677 C 25.518751,17.862325 19.644178,12.637694 12.758394,12.994138 5.8726091,13.350581 0.58311968,19.153122 0.94398835,25.954474 l 0.010371,0.195465 c -0.0295871,-0.491682 -0.0445914,-0.987241 -0.0445914,-1.486262 0,-10.155941 6.21464645,-18.8781713 15.09259805,-22.6588956 l 0.523383,-0.2088675 c 6.393149,-2.55132802 13.669757,0.4995351 16.252757,6.8142936 2.583,6.3147585 -0.505736,13.5021415 -6.898886,16.0534695 z"
       id="path-8" />
    <path
       d="m 16.338766,1.8705335 0.186983,-0.07462 c 6.393149,-2.55132802 13.669757,0.4995351 16.252757,6.8142936 2.583,6.3147589 -0.505736,13.5021419 -6.898886,16.0534699 -0.05343,-1.007011 -0.227732,-1.979458 -0.50829,-2.904343 3.429966,-1.856689 5.75552,-5.45605 5.75552,-9.591913 0,-6.0367452 -4.954499,-10.9304937 -11.066184,-10.9304937 -1.305803,0 -2.558782,0.223396 -3.7219,0.6336062 z"
       id="path-9" />
    <linearGradient
       x1="16.690788"
       y1="19.195547"
       x2="57.873302"
       y2="21.720842"
       id="linearGradient-10"
       gradientTransform="scale(0.85441984,1.1703848)"
       gradientUnits="userSpaceOnUse">
      <stop
         stop-color="#9EE85D"
         offset="0%"
         id="stop34" />
      <stop
         stop-color="#0ED061"
         offset="100%"
         id="stop36" />
    </linearGradient>
    <path
       d="m 28.379451,9.2701483 0.186983,-0.07462 c 6.393149,-2.551328 13.669757,0.4995351 16.252757,6.8142937 2.583,6.314759 -0.505736,13.502142 -6.898886,16.05347 -0.05343,-1.007011 -0.227732,-1.979458 -0.50829,-2.904343 3.429966,-1.856689 5.75552,-5.45605 5.75552,-9.591913 0,-6.036745 -4.954499,-10.9304939 -11.066184,-10.9304939 -1.305803,0 -2.558782,0.223396 -3.7219,0.6336062 z"
       id="path-11" />
    <linearGradient
       x1="38.66045"
       y1="42.313534"
       x2="29.417906"
       y2="17.769199"
       id="linearGradient-12"
       gradientTransform="scale(0.85441985,1.1703848)"
       gradientUnits="userSpaceOnUse">
      <stop
         stop-color="#21EFE3"
         offset="0%"
         id="stop40" />
      <stop
         stop-color="#2598FF"
         offset="100%"
         id="stop42" />
    </linearGradient>
    <path
       d="m 25.135241,22.73235 0.186983,-0.07462 c 6.39315,-2.551328 13.669757,0.499535 16.252757,6.814293 2.583001,6.314759 -0.505736,13.502142 -6.898886,16.05347 -0.05343,-1.007011 -0.227731,-1.979458 -0.50829,-2.904343 3.429966,-1.856689 5.755521,-5.45605 5.755521,-9.591913 0,-6.036745 -4.9545,-10.930494 -11.066185,-10.930494 -1.305803,0 -2.558782,0.223396 -3.7219,0.633607 z"
       id="path-13" />
    <linearGradient
       x1="32.778084"
       y1="31.292349"
       x2="-5.737164"
       y2="34.564075"
       id="linearGradient-14"
       gradientTransform="scale(0.85441985,1.1703848)"
       gradientUnits="userSpaceOnUse">
      <stop
         stop-color="#A63FDB"
         offset="0%"
         id="stop46" />
      <stop
         stop-color="#FF257E"
         offset="100%"
         id="stop48" />
    </linearGradient>
    <path
       d="m 10.654093,23.764822 0.186983,-0.07462 c 6.393149,-2.551328 13.669757,0.499535 16.252757,6.814293 2.583,6.314759 -0.505736,13.502142 -6.898886,16.05347 -0.05343,-1.007011 -0.227732,-1.979458 -0.50829,-2.904343 3.429966,-1.856689 5.75552,-5.45605 5.75552,-9.591913 0,-6.036745 -4.954499,-10.930493 -11.066184,-10.930493 -1.305803,0 -2.558782,0.223396 -3.7219,0.633606 z"
       id="path-15" />
    <path
       d="m 5.5458544,10.697205 0.1869826,-0.07462 c 6.39315,-2.5513278 13.669757,0.499535 16.252757,6.814294 2.583,6.314758 -0.505736,13.502141 -6.898886,16.053469 -0.05343,-1.007011 -0.227732,-1.979458 -0.50829,-2.904342 3.429966,-1.856689 5.755521,-5.45605 5.755521,-9.591914 0,-6.036745 -4.9545,-10.930493 -11.0661847,-10.930493 -1.3058034,0 -2.5587821,0.223396 -3.7218999,0.633606 z"
       id="path-16" />
    <path
       d="m 35.631732,42.373098 h 4.544831 c 4.281413,0 7.752184,-3.36365 7.752184,-7.512922 0,-4.149273 -3.470771,-7.512923 -7.752184,-7.512923 h -6.55954 c -2.470046,0 -4.472413,1.940568 -4.472413,4.334379 v 16.869977 z"
       id="path-17" />
    <filter
       x="-0.266"
       y="-0.189"
       width="1.5319999"
       height="1.472"
       filterUnits="objectBoundingBox"
       id="filter-18">
      <feOffset
         dx="0"
         dy="1"
         in="SourceAlpha"
         result="shadowOffsetOuter1"
         id="feOffset54" />
      <feGaussianBlur
         stdDeviation="1.5"
         in="shadowOffsetOuter1"
         result="shadowBlurOuter1"
         id="feGaussianBlur56" />
      <feColorMatrix
         values="0 0 0 0 0   0 0 0 0 0   0 0 0 0 0  0 0 0 0.298686594 0"
         type="matrix"
         in="shadowBlurOuter1"
         id="feColorMatrix58" />
    </filter>
    <linearGradient
       xlink:href="#linearGradient-3"
       id="linearGradient937"
       x1="30.973358"
       y1="27.509178"
       x2="1.1089396"
       y2="28.796618"
       gradientTransform="scale(0.83554453,1.1968243)"
       gradientUnits="userSpaceOnUse" />
    <linearGradient
       xlink:href="#linearGradient-7"
       id="linearGradient939"
       x1="15.185128"
       y1="33.220253"
       x2="9.5916662"
       y2="1.0193164"
       gradientTransform="scale(1.1392952,0.87773565)"
       gradientUnits="userSpaceOnUse" />
    <linearGradient
       xlink:href="#linearGradient-7"
       id="linearGradient941"
       x1="15.185128"
       y1="33.220253"
       x2="9.5916662"
       y2="1.0193164"
       gradientTransform="scale(1.1392952,0.87773565)"
       gradientUnits="userSpaceOnUse" />
    <linearGradient
       xlink:href="#linearGradient-7"
       id="linearGradient943"
       x1="15.185128"
       y1="33.220253"
       x2="9.5916662"
       y2="1.0193164"
       gradientTransform="scale(1.1392952,0.87773565)"
       gradientUnits="userSpaceOnUse" />
    <linearGradient
       xlink:href="#linearGradient-7"
       id="linearGradient945"
       x1="29.276991"
       y1="23.492514"
       x2="25.329012"
       y2="0.76444119"
       gradientTransform="scale(0.85441984,1.1703848)"
       gradientUnits="userSpaceOnUse" />
    <linearGradient
       xlink:href="#linearGradient-3"
       id="linearGradient947"
       x1="26.799479"
       y1="19.639755"
       x2="6.4907837"
       y2="20.515251"
       gradientTransform="scale(0.85441985,1.1703848)"
       gradientUnits="userSpaceOnUse" />
    <filter
       x="-0.266"
       y="-0.189"
       width="1.5319999"
       height="1.472"
       filterUnits="objectBoundingBox"
       id="filter-18-3">
      <feOffset
         id="feOffset12"
         dx="0"
         dy="1"
         in="SourceAlpha"
         result="shadowOffsetOuter1" />
      <feGaussianBlur
         id="feGaussianBlur14"
         stdDeviation="1.5"
         in="shadowOffsetOuter1"
         result="shadowBlurOuter1" />
      <feColorMatrix
         id="feColorMatrix16"
         values="0 0 0 0 0   0 0 0 0 0   0 0 0 0 0  0 0 0 0.298686594 0"
         type="matrix"
         in="shadowBlurOuter1" />
    </filter>
    <linearGradient
       xlink:href="#linearGradient-12"
       id="g3"
       gradientUnits="userSpaceOnUse"
       gradientTransform="scale(0.85441985,1.1703848)"
       x1="38.66045"
       y1="42.313534"
       x2="29.417906"
       y2="17.769199" />
    <linearGradient
       xlink:href="#linearGradient-3"
       id="g7"
       x1="26.799479"
       y1="19.639755"
       x2="6.4907837"
       y2="20.515251"
       gradientTransform="matrix(0.73238181,-0.44005875,0.60279359,1.0032156,7.0612668,16.678016)"
       gradientUnits="userSpaceOnUse" />
    <linearGradient
       xlink:href="#linearGradient-7"
       id="g8"
       x1="15.185128"
       y1="33.220253"
       x2="9.5916662"
       y2="1.0193164"
       gradientTransform="matrix(0.87275201,0.73232484,-0.56419841,0.67238452,33.373061,2.1802866)"
       gradientUnits="userSpaceOnUse" />
    <linearGradient
       xlink:href="#linearGradient-10"
       id="g9"
       gradientUnits="userSpaceOnUse"
       gradientTransform="scale(0.85441984,1.1703848)"
       x1="16.690788"
       y1="19.195547"
       x2="57.873302"
       y2="21.720842" />
    <linearGradient
       x1="40.01442"
       y1="3.0503507"
       x2="21.610674"
       y2="22.693472"
       id="g11"
       gradientTransform="matrix(0.8028135,0.67363955,-0.61334952,0.73096044,33.373061,2.1802866)"
       gradientUnits="userSpaceOnUse">
      <stop
         id="stop39"
         stop-color="#17C934"
         offset="0" />
      <stop
         id="stop41"
         stop-color="#03FF6E"
         offset="1" />
    </linearGradient>
    <linearGradient
       x1="31.906258"
       y1="22.861416"
       x2="56.143276"
       y2="28.198187"
       id="g12"
       gradientTransform="matrix(0.67306192,0.5647652,-0.7315899,0.87187364,33.373061,2.1802866)"
       gradientUnits="userSpaceOnUse">
      <stop
         id="stop44"
         stop-color="#00FFF0"
         offset="0" />
      <stop
         id="stop46-6"
         stop-color="#0087FF"
         offset="1" />
    </linearGradient>
    <linearGradient
       x1="18.604218"
       y1="60.088772"
       x2="29.551889"
       y2="34.263325"
       id="g13"
       gradientTransform="matrix(0.93316856,0.78302028,-0.52767025,0.62885203,33.373061,2.1802866)"
       gradientUnits="userSpaceOnUse">
      <stop
         id="stop49"
         stop-color="#A63FDB"
         offset="0" />
      <stop
         id="stop51"
         stop-color="#FF257E"
         offset="1" />
    </linearGradient>
    <linearGradient
       xlink:href="#linearGradient-3"
       id="g14"
       x1="30.973358"
       y1="27.509178"
       x2="1.1089396"
       y2="28.796618"
       gradientTransform="matrix(0.64006516,0.53707767,-0.76930493,0.9168206,33.373061,2.1802866)"
       gradientUnits="userSpaceOnUse" />
    <linearGradient
       y2="1.0193164"
       x2="9.5916662"
       y1="33.220253"
       x1="15.185128"
       gradientTransform="matrix(0.87275201,0.73232484,-0.56419841,0.67238452,33.373061,2.1802866)"
       gradientUnits="userSpaceOnUse"
       id="linearGradient995"
       xlink:href="#linearGradient-7" />
    <linearGradient
       y2="20.515251"
       x2="6.4907837"
       y1="19.639755"
       x1="26.799479"
       gradientTransform="scale(0.85441985,1.1703848)"
       gradientUnits="userSpaceOnUse"
       id="linearGradient997"
       xlink:href="#linearGradient-3" />
    <linearGradient
       y2="34.564075"
       x2="-5.737164"
       y1="31.292349"
       x1="32.778084"
       gradientTransform="scale(0.85441985,1.1703848)"
       gradientUnits="userSpaceOnUse"
       id="linearGradient999"
       xlink:href="#linearGradient-14" />
  </defs>
  <path
     id="text1003"
     d="M 205.6543 16.013672 C 204.26541 16.013672 202.94727 16.292101 201.69727 16.847656 C 200.44727 17.403212 199.42931 18.236545 198.64648 19.347656 C 197.86366 20.458767 197.47266 21.847005 197.47266 23.513672 L 197.47266 27.529297 L 192.77539 27.529297 L 192.77539 31.316406 L 197.47266 31.316406 L 197.47266 56.621094 L 201.94336 56.621094 L 201.94336 31.316406 L 208.45898 31.316406 L 208.45898 27.529297 L 201.94336 27.529297 L 201.94336 24.574219 C 201.94336 23.134825 202.26426 22.043778 202.9082 21.298828 C 203.56477 20.553879 204.6321 20.181641 206.10938 20.181641 C 206.75331 20.181641 207.2707 20.237926 207.66211 20.351562 C 208.06615 20.465199 208.3821 20.559008 208.60938 20.634766 L 209.89648 16.771484 C 209.55558 16.619969 209.03819 16.456065 208.34375 16.279297 C 207.64931 16.102529 206.75278 16.013672 205.6543 16.013672 z M 114.02539 16.621094 C 113.15418 16.621094 112.4028 16.916331 111.77148 17.509766 C 111.1528 18.1032 110.84375 18.817057 110.84375 19.650391 C 110.84375 20.483724 111.1528 21.197581 111.77148 21.791016 C 112.4028 22.38445 113.15418 22.681641 114.02539 22.681641 C 114.8966 22.681641 115.64303 22.38445 116.26172 21.791016 C 116.89303 21.197581 117.20898 20.483724 117.20898 19.650391 C 117.20898 18.817057 116.89303 18.1032 116.26172 17.509766 C 115.64303 16.916331 114.8966 16.621094 114.02539 16.621094 z M 182.89844 17.832031 L 182.89844 56.621094 L 187.36914 56.621094 L 187.36914 17.832031 L 182.89844 17.832031 z M 264.41406 17.832031 L 264.41406 32.150391 L 264.03516 32.150391 C 263.70687 31.64534 263.24578 31.001578 262.65234 30.21875 C 262.07154 29.423295 261.22635 28.716343 260.11523 28.097656 C 259.01675 27.466343 257.52089 27.150391 255.62695 27.150391 C 253.17746 27.150391 251.01712 27.763534 249.14844 28.988281 C 247.27975 30.213029 245.82142 31.947838 244.77344 34.195312 C 243.72546 36.442787 243.20312 39.094835 243.20312 42.150391 C 243.20313 45.231199 243.72546 47.902008 244.77344 50.162109 C 245.82142 52.409584 247.2748 54.151298 249.13086 55.388672 C 250.98692 56.613419 253.12654 57.226562 255.55078 57.226562 C 257.41947 57.226563 258.91533 56.917515 260.03906 56.298828 C 261.1628 55.667515 262.02871 54.953658 262.63477 54.158203 C 263.24083 53.350122 263.70687 52.680694 264.03516 52.150391 L 264.56641 52.150391 L 264.56641 56.621094 L 268.88477 56.621094 L 268.88477 17.832031 L 264.41406 17.832031 z M 92.511719 27.150391 C 90.617779 27.150391 89.115017 27.466343 88.003906 28.097656 C 86.905421 28.716343 86.058278 29.423295 85.464844 30.21875 C 84.884036 31.001578 84.429845 31.64534 84.101562 32.150391 L 83.572266 32.150391 L 83.572266 27.529297 L 79.253906 27.529297 L 79.253906 67.529297 L 83.722656 67.529297 L 83.722656 52.150391 L 84.101562 52.150391 C 84.429845 52.680694 84.897846 53.350122 85.503906 54.158203 C 86.109967 54.953658 86.973919 55.667515 88.097656 56.298828 C 89.221394 56.917515 90.717251 57.226563 92.585938 57.226562 C 95.01018 57.226562 97.151752 56.613419 99.007812 55.388672 C 100.86387 54.151298 102.3153 52.409584 103.36328 50.162109 C 104.41126 47.902008 104.93555 45.231199 104.93555 42.150391 C 104.93555 39.094835 104.41126 36.442787 103.36328 34.195312 C 102.3153 31.947838 100.85697 30.213029 98.988281 28.988281 C 97.119594 27.763534 94.961214 27.150391 92.511719 27.150391 z M 163.59961 27.150391 C 160.97335 27.150391 158.67673 27.794152 156.70703 29.082031 C 154.74996 30.357284 153.22153 32.138475 152.12305 34.423828 C 151.03719 36.696555 150.49414 39.322936 150.49414 42.302734 C 150.49414 45.282532 151.03719 47.895103 152.12305 50.142578 C 153.22153 52.377427 154.78058 54.121094 156.80078 55.371094 C 158.83361 56.608467 161.25166 57.226562 164.05469 57.226562 C 167.00923 57.226563 169.50923 56.550229 171.55469 55.199219 C 173.60014 53.848209 174.96467 52.073923 175.64648 49.876953 L 171.32812 48.666016 C 170.75994 50.181167 169.84466 51.316643 168.58203 52.074219 C 167.31941 52.831794 165.80974 53.210938 164.05469 53.210938 C 161.42842 53.210938 159.2819 52.384509 157.61523 50.730469 C 155.96119 49.076428 155.08343 46.695904 154.98242 43.589844 L 176.09961 43.589844 L 176.09961 41.695312 C 176.09961 38.980666 175.74118 36.695904 175.02148 34.839844 C 174.30179 32.983783 173.33517 31.494831 172.12305 30.371094 C 170.91093 29.23473 169.56516 28.413254 168.08789 27.908203 C 166.61062 27.403153 165.11476 27.150391 163.59961 27.150391 z M 225.26758 27.150391 C 222.64132 27.150391 220.34274 27.794152 218.37305 29.082031 C 216.41598 30.357284 214.88755 32.138475 213.78906 34.423828 C 212.7032 36.696555 212.16016 39.322936 212.16016 42.302734 C 212.16016 45.282532 212.7032 47.895103 213.78906 50.142578 C 214.88755 52.377427 216.44659 54.121094 218.4668 55.371094 C 220.49963 56.608467 222.91767 57.226562 225.7207 57.226562 C 228.67525 57.226563 231.17525 56.550229 233.2207 55.199219 C 235.26616 53.848209 236.63068 52.073923 237.3125 49.876953 L 232.99414 48.666016 C 232.42596 50.181167 231.51067 51.316643 230.24805 52.074219 C 228.98542 52.831794 227.47575 53.210938 225.7207 53.210938 C 223.09444 53.210938 220.94792 52.384509 219.28125 50.730469 C 217.62721 49.076428 216.74945 46.695904 216.64844 43.589844 L 237.76758 43.589844 L 237.76758 41.695312 C 237.76758 38.980666 237.4072 36.695904 236.6875 34.839844 C 235.9678 32.983783 235.00118 31.494831 233.78906 30.371094 C 232.57694 29.23473 231.23313 28.413254 229.75586 27.908203 C 228.27859 27.403153 226.78273 27.150391 225.26758 27.150391 z M 111.75391 27.529297 L 111.75391 56.621094 L 116.22266 56.621094 L 116.22266 27.529297 L 111.75391 27.529297 z M 122.53906 27.529297 L 131.78125 42.074219 L 122.53906 56.621094 L 127.69141 56.621094 L 134.66016 45.332031 L 141.63086 56.621094 L 146.78125 56.621094 L 137.38867 42.074219 L 146.78125 27.529297 L 141.63086 27.529297 L 134.66016 39.423828 L 127.69141 27.529297 L 122.53906 27.529297 z M 91.980469 31.166016 C 93.874408 31.166016 95.447266 31.650825 96.697266 32.623047 C 97.959892 33.582643 98.900844 34.890882 99.519531 36.544922 C 100.15084 38.186336 100.46484 40.028764 100.46484 42.074219 C 100.46484 44.144926 100.14394 46.026831 99.5 47.71875 C 98.868687 49.398043 97.920829 50.7369 96.658203 51.734375 C 95.408203 52.719223 93.849156 53.210938 91.980469 53.210938 C 89.291075 53.210938 87.226503 52.181128 85.787109 50.123047 C 84.360342 48.05234 83.646484 45.369673 83.646484 42.074219 C 83.646484 38.816643 84.35539 36.18531 85.769531 34.177734 C 87.183673 32.170159 89.253196 31.166016 91.980469 31.166016 z M 163.59961 31.166016 C 166.02385 31.166016 167.95709 31.980587 169.39648 33.609375 C 170.83588 35.225537 171.55469 37.264441 171.55469 39.726562 L 154.98242 39.726562 C 155.08343 38.224037 155.49319 36.821989 156.21289 35.521484 C 156.93259 34.208353 157.91797 33.15483 159.16797 32.359375 C 160.41797 31.56392 161.89506 31.166016 163.59961 31.166016 z M 225.26758 31.166016 C 227.69182 31.166016 229.62311 31.980587 231.0625 33.609375 C 232.50189 35.225537 233.2207 37.264441 233.2207 39.726562 L 216.64844 39.726562 C 216.74945 38.224037 217.16116 36.821989 217.88086 35.521484 C 218.60056 34.208353 219.58398 33.15483 220.83398 32.359375 C 222.08398 31.56392 223.56303 31.166016 225.26758 31.166016 z M 256.15625 31.166016 C 258.88352 31.166016 260.955 32.170159 262.36914 34.177734 C 263.78328 36.18531 264.49023 38.816643 264.49023 42.074219 C 264.49023 45.369673 263.77143 48.05234 262.33203 50.123047 C 260.90526 52.181128 258.84564 53.210938 256.15625 53.210938 C 254.28756 53.210938 252.72161 52.719223 251.45898 51.734375 C 250.20898 50.7369 249.26308 49.398043 248.61914 47.71875 C 247.98783 46.026831 247.67188 44.144926 247.67188 42.074219 C 247.67188 40.028764 247.98092 38.186336 248.59961 36.544922 C 249.23092 34.890882 250.17188 33.582643 251.42188 32.623047 C 252.6845 31.650825 254.26231 31.166016 256.15625 31.166016 z "
     style="font-style:normal;font-variant:normal;font-weight:normal;font-stretch:normal;font-size:40px;line-height:1.25;font-family:Inter;-inkscape-font-specification:Inter;letter-spacing:0px;word-spacing:0px;fill:#000000;fill-opacity:1;stroke:none" />
</svg>
