<?xml version="1.0" encoding="UTF-8" standalone="no"?>
<svg
   xmlns:dc="http://purl.org/dc/elements/1.1/"
   xmlns:cc="http://creativecommons.org/ns#"
   xmlns:rdf="http://www.w3.org/1999/02/22-rdf-syntax-ns#"
   xmlns:svg="http://www.w3.org/2000/svg"
   xmlns="http://www.w3.org/2000/svg"
   xmlns:xlink="http://www.w3.org/1999/xlink"
   id="13f95f58-9b10-4e82-b9a2-2634369cd5bb"
   data-name="Layer 1"
   width="356.388"
   height="280"
   viewBox="0 0 356.38801 279.99999"
   version="1.1">
  <metadata
     id="metadata105">
    <rdf:RDF>
      <cc:Work
         rdf:about="">
        <dc:format>image/svg+xml</dc:format>
        <dc:type
           rdf:resource="http://purl.org/dc/dcmitype/StillImage" />
        <dc:title>online world</dc:title>
      </cc:Work>
    </rdf:RDF>
  </metadata>
  <defs
     id="defs10">
    <linearGradient
       id="a26385e9-dbb5-4257-86ba-bfe3022541ed"
       x1="519.52002"
       y1="832.48999"
       x2="519.52002"
       y2="85.349998"
       gradientTransform="matrix(-1,0,0,1,1096.85,0)"
       gradientUnits="userSpaceOnUse">
      <stop
         offset="0"
         stop-color="gray"
         stop-opacity="0.25"
         id="stop2" />
      <stop
         offset="0.54"
         stop-color="gray"
         stop-opacity="0.12"
         id="stop4" />
      <stop
         offset="1"
         stop-color="gray"
         stop-opacity="0.1"
         id="stop6" />
    </linearGradient>
    <linearGradient
       id="c19457ba-d106-459d-825f-d0f53650d6d3"
       x1="572.54999"
       y1="577.91998"
       x2="572.54999"
       y2="263.34"
       xlink:href="#a26385e9-dbb5-4257-86ba-bfe3022541ed" />
    <linearGradient
       id="linearGradient1062">
      <stop
         style="stop-color:#f07e13;stop-opacity:1"
         offset="0"
         id="stop1058" />
      <stop
         id="stop1068"
         offset="0.71794772"
         style="stop-color:#f07e13;stop-opacity:1" />
      <stop
         style="stop-color:#fbd8b7;stop-opacity:1"
         offset="1"
         id="stop1060" />
    </linearGradient>
    <linearGradient
       id="linearGradient1054">
      <stop
         style="stop-color:#a4510c;stop-opacity:1"
         offset="0"
         id="stop1050" />
      <stop
         style="stop-color:#f07e13;stop-opacity:1"
         offset="1"
         id="stop1052" />
    </linearGradient>
    <linearGradient
       xlink:href="#linearGradient1054"
       id="linearGradient1056"
       x1="73.271484"
       y1="151.51759"
       x2="73.183128"
       y2="146.0872"
       gradientUnits="userSpaceOnUse"
       gradientTransform="matrix(4.4022126,0,0,4.4022126,-240.46248,-524.76782)" />
    <radialGradient
       xlink:href="#linearGradient1062"
       id="radialGradient1066"
       cx="74.360054"
       cy="137.43727"
       fx="74.360054"
       fy="137.43727"
       r="4.3465238"
       gradientTransform="matrix(7.8259815,-0.11661981,0.08704816,5.8415217,-505.61863,-710.48965)"
       gradientUnits="userSpaceOnUse" />
    <filter
       style="color-interpolation-filters:sRGB"
       id="filter1076"
       x="-0.15718214"
       width="1.3143643"
       y="-0.50728273"
       height="2.0145655">
      <feGaussianBlur
         stdDeviation="0.084229839"
         id="feGaussianBlur1078" />
    </filter>
    <filter
       style="color-interpolation-filters:sRGB"
       id="filter1076-0"
       x="-0.15718214"
       width="1.3143643"
       y="-0.50728273"
       height="2.0145655">
      <feGaussianBlur
         stdDeviation="0.084229839"
         id="feGaussianBlur1078-6" />
    </filter>
    <filter
       style="color-interpolation-filters:sRGB"
       id="filter1103"
       x="-0.19452769"
       width="1.3890554"
       y="-0.31321678"
       height="1.6264335">
      <feGaussianBlur
         stdDeviation="0.39377909"
         id="feGaussianBlur1105" />
    </filter>
    <filter
       style="color-interpolation-filters:sRGB"
       id="filter1109"
       x="-0.3412649"
       width="1.6825298"
       y="-0.18508036"
       height="1.3701607">
      <feGaussianBlur
         stdDeviation="0.21537348"
         id="feGaussianBlur1111" />
    </filter>
    <filter
       style="color-interpolation-filters:sRGB"
       id="filter1109-6"
       x="-0.3412649"
       width="1.6825298"
       y="-0.18508036"
       height="1.3701607">
      <feGaussianBlur
         stdDeviation="0.21537348"
         id="feGaussianBlur1111-1" />
    </filter>
    <linearGradient
       y2="85.349998"
       x2="519.52002"
       y1="832.48999"
       x1="519.52002"
       gradientTransform="matrix(-0.34236716,0,0,0.34236716,348.29511,-14.066027)"
       gradientUnits="userSpaceOnUse"
       id="linearGradient887"
       xlink:href="#a26385e9-dbb5-4257-86ba-bfe3022541ed" />
  </defs>
  <title
     id="title12">online world</title>
  <path
     style="opacity:0.1;fill:#6c63ff;stroke-width:0.34236714"
     d="m 174.01652,24.556433 c -12.76002,-1.53039 -24.69494,-6.23108 -36.73941,-10.20596 A 328.33011,328.33011 0 0 0 96.364234,3.7781631 C 81.608209,0.95706314 66.396837,-0.88143686 51.603152,0.43324314 36.809466,1.7479231 22.375266,6.4760231 12.939627,15.120783 c -15.9851227,14.66359 -14.6361961,36.89007 -9.3568944,56.48032 6.2653191,23.2433 17.0978164,46.219567 34.8290114,66.015237 12.602536,14.07129 28.416475,26.25272 44.090043,38.34512 8.860463,6.82338 17.803093,13.69469 28.152853,19.05959 9.62736,4.98485 20.25787,8.55917 30.81304,12.08212 11.27073,3.76604 22.56884,7.55263 34.20591,10.43193 37.14341,9.18914 76.24516,8.90155 114.4773,8.08329 13.45504,-0.28416 27.51948,-0.75321 38.80732,-6.00855 8.79541,-4.10839 15.06415,-10.76402 19.8128,-17.86129 6.21396,-9.29869 10.13748,-20.39481 5.72437,-30.7651 -6.50498,-15.29697 -28.79993,-24.30808 -36.22245,-39.37224 -9.51095,-19.33004 8.96318,-39.762507 3.73523,-59.883437 -2.17403,-8.37087 -8.30583,-15.93719 -14.80395,-22.99337 -15.49896,-16.82392 -36.0992,-32.14828 -63.78644,-29.9092 -23.44188,1.88988 -44.82269,8.68243 -69.40125,5.73123 z"
     id="path14" />
  <path
     style="fill:url(#linearGradient887);stroke-width:0.34236714"
     d="m 116.85148,15.155033 h 107.16093 a 10.613382,10.613382 0 0 1 10.61338,10.57914 V 260.37208 a 10.613382,10.613382 0 0 1 -10.61338,10.57915 H 116.85148 A 10.613382,10.613382 0 0 1 106.2381,260.37208 V 25.730743 a 10.613382,10.613382 0 0 1 10.61338,-10.57571 z"
     id="path16" />
  <rect
     style="fill:#4e5a86;stroke-width:0.34236714"
     x="-233.6432"
     y="-269.97205"
     width="126.42935"
     height="252.8587"
     rx="9.1994057"
     ry="9.1994057"
     transform="scale(-1)"
     id="rect18" />
  <rect
     style="fill:#ffffff;stroke-width:0.34236714"
     x="-224.33081"
     y="-246.45142"
     width="107.80801"
     height="205.81403"
     transform="scale(-1)"
     id="rect20" />
  <circle
     style="fill:#ffffff;stroke-width:0.34236714"
     cx="183.16801"
     cy="28.873657"
     r="0.97917002"
     id="circle22" />
  <rect
     style="fill:#ffffff;stroke-width:0.34236714"
     x="-178.2653"
     y="-29.852905"
     width="21.562283"
     height="1.9617639"
     rx="0.34236714"
     ry="0.34236714"
     transform="scale(-1)"
     id="rect24" />
  <circle
     style="fill:#ffffff;stroke-width:0.34236714"
     cx="170.91811"
     cy="256.25"
     r="6.8610382"
     id="circle26" />
  <ellipse
     style="opacity:0.1;fill:#6c63ff;stroke-width:0.34236714"
     cx="165.29301"
     cy="263.224"
     rx="86.961266"
     ry="16.775991"
     id="ellipse28" />
  <rect
     style="opacity:0.1;fill:#6c63ff;stroke-width:0.34236714"
     x="128.8309"
     y="72.525513"
     width="83.195221"
     height="111.26933"
     id="rect30" />
  <path
     style="fill:none;stroke:#535461;stroke-width:0.68473428;stroke-miterlimit:10"
     d="m 238.98755,267.12357 c 0,0 -4.95748,-25.11606 5.25191,-42.33029 a 38.7902,38.7902 0 0 0 5.3512,-23.94514 65.238063,65.238063 0 0 0 -2.39657,-11.68842"
     stroke-miterlimit="10"
     id="path74" />
  <path
     style="fill:#6c63ff;stroke-width:0.34236714"
     d="m 253.56896,178.27244 c -0.27388,2.99571 -6.50497,11.18856 -6.50497,11.18856 0,0 -4.62881,-9.18914 -4.35149,-12.18827 a 5.4504853,5.4504853 0 1 1 10.85305,0.99628 z"
     id="path76" />
  <path
     style="fill:#6c63ff;stroke-width:0.34236714"
     d="m 261.01545,195.6955 c -1.85906,2.36576 -11.53778,5.86133 -11.53778,5.86133 0,0 1.10928,-10.22994 2.96833,-12.59568 a 5.4504853,5.4504853 0 0 1 8.55919,6.73435 z"
     id="path78" />
  <path
     style="fill:#6c63ff;stroke-width:0.34236714"
     d="m 258.01631,224.02981 c -2.80056,1.10243 -12.91751,-0.7669 -12.91751,-0.7669 0,0 6.12152,-8.2716 8.92209,-9.37401 a 5.4504853,5.4504853 0 0 1 3.99542,10.14091 z"
     id="path80" />
  <path
     style="fill:#6c63ff;stroke-width:0.34236714"
     d="m 250.92247,244.95871 c -2.5746,1.5612 -12.86273,1.42768 -12.86273,1.42768 0,0 4.63565,-9.18572 7.21024,-10.74691 a 5.4504853,5.4504853 0 1 1 5.65249,9.31923 z"
     id="path82" />
  <path
     style="fill:#6c63ff;stroke-width:0.34236714"
     d="m 238.02892,201.09121 c 1.95834,2.28701 11.774,5.36831 11.774,5.36831 0,0 -1.54065,-10.17515 -3.49557,-12.45874 a 5.4504853,5.4504853 0 1 0 -8.27843,7.09043 z"
     id="path84" />
  <path
     style="fill:#6c63ff;stroke-width:0.34236714"
     d="m 230.04149,225.66974 c 2.55063,1.59543 12.84219,1.59886 12.84219,1.59886 0,0 -4.51239,-9.24391 -7.06645,-10.84277 a 5.4504853,5.4504853 0 1 0 -5.77574,9.24391 z"
     id="path86" />
  <path
     style="fill:#6c63ff;stroke-width:0.34236714"
     d="m 225.55306,250.62831 c 2.24593,2.00285 12.38684,3.74893 12.38684,3.74893 0,0 -2.88615,-9.8773 -5.1355,-11.88014 a 5.4504853,5.4504853 0 1 0 -7.25477,8.13464 z"
     id="path88" />
  <path
     style="fill:#6c63ff;stroke-width:0.34236714"
     d="M 152.622,53.989733 A 12.962021,12.962021 0 0 0 139.65999,41.027713 H 69.036487 a 12.962025,12.962025 0 0 0 0,25.92405 l 59.048063,-0.11301 13.58171,11.84933 V 66.777133 A 12.95175,12.95175 0 0 0 152.622,53.989713 Z"
     id="path90" />
  <circle
     style="opacity:0.2;fill:#ffffff;stroke-width:0.34236714"
     cx="71.275566"
     cy="54.434814"
     r="4.4713154"
     id="circle92" />
  <circle
     style="opacity:0.2;fill:#ffffff;stroke-width:0.34236714"
     cx="86.469826"
     cy="54.434814"
     r="4.4713154"
     id="circle94" />
  <circle
     style="opacity:0.2;fill:#ffffff;stroke-width:0.34236714"
     cx="101.6675"
     cy="54.434814"
     r="4.4713154"
     id="circle96" />
  <rect
     style="fill:#6c63ff;stroke-width:0.34236714"
     x="128.65973"
     y="201.5979"
     width="35.606186"
     height="10.613382"
     id="rect98" />
  <rect
     style="opacity:0.1;fill:#6c63ff;stroke-width:0.34236714"
     x="176.24875"
     y="201.5979"
     width="35.606186"
     height="10.613382"
     id="rect100" />
  <g
     id="layer1"
     transform="matrix(3.7795275,0,0,3.7795275,-620.08217,-416.63823)">
    <rect
       style="opacity:0.1;fill:#6c63ff;fill-opacity:1;stroke:none;stroke-width:1.16475201;stroke-linecap:round;stroke-linejoin:round;stroke-miterlimit:4;stroke-dasharray:none;stroke-opacity:1"
       id="rect926"
       width="64.293755"
       height="83.463631"
       x="54.950203"
       y="37.228069"
       ry="0" />
    <path
       style="fill:url(#linearGradient1056);fill-opacity:1;stroke:none;stroke-width:1.16475201px;stroke-linecap:butt;stroke-linejoin:miter;stroke-opacity:1"
       d="m 62.774994,135.66075 c 0.45335,-14.81397 3.90102,-28.87939 7.34258,-42.946306 l 32.681956,0.60895 c 2.82386,7.415216 4.3015,13.184236 5.96791,21.411616 2.10967,-0.30992 4.77884,1.70344 7.02367,2.94763 2.78237,2.22189 2.97216,5.45681 3.0449,8.72871 -2.68394,1.51762 -5.51142,1.85588 -9.77429,2.20828 -2.54487,-1.83986 -6.48213,-3.90894 -10.756896,-8.7737 -6.39645,1.09501 -12.61472,1.5664 -18.25076,0 l -6.97144,18.65077 c -4.04873,0.58681 -7.77778,0.37419 -10.30763,-2.83595 z"
       id="path961" />
    <path
       style="fill:url(#radialGradient1066);fill-opacity:1;stroke:none;stroke-width:1.16475201px;stroke-linecap:butt;stroke-linejoin:miter;stroke-opacity:1"
       d="m 74.326734,57.595129 c -5.4769,8.167601 -5.0692,17.512134 -6.88983,26.410987 -3.73009,18.231934 40.985526,23.928484 37.894056,0.861249 -1.26446,-9.434778 -0.3093,-19.609436 -6.028596,-27.559304 -2.7593,2.494734 -5.41514,5.033842 -6.31568,8.3252 -4.68825,-1.719812 -8.6968,-0.720818 -12.63135,0.574181 -1.39173,-3.797481 -3.55917,-6.431369 -6.0286,-8.612313 z"
       id="path959" />
    <rect
       style="opacity:1;fill:#481800;fill-opacity:1;stroke:none;stroke-width:1.16475201;stroke-linecap:round;stroke-linejoin:round;stroke-miterlimit:4;stroke-dasharray:none;stroke-opacity:1"
       id="rect963"
       width="1.7254351"
       height="7.7137651"
       x="77.425323"
       y="74.546524"
       ry="0.86271757" />
    <rect
       style="opacity:1;fill:#481800;fill-opacity:1;stroke:none;stroke-width:1.16475201;stroke-linecap:round;stroke-linejoin:round;stroke-miterlimit:4;stroke-dasharray:none;stroke-opacity:1"
       id="rect963-7"
       width="1.7254353"
       height="7.7137651"
       x="90.772186"
       y="74.445023"
       ry="0.86271763" />
    <path
       style="fill:#f8bf89;fill-opacity:1;stroke:none;stroke-width:0.26458332px;stroke-linecap:butt;stroke-linejoin:miter;stroke-opacity:1;filter:url(#filter1103)"
       d="m 72.85787,138.29081 c 0.321394,-0.0764 1.820023,-0.0764 2.363927,-0.0163 0.617824,0.6085 1.146405,1.3174 1.418358,2.31501 -1.637332,0.73572 -3.26415,1.02991 -4.858279,-0.0489 0.18091,-0.77729 0.345128,-1.55714 1.075994,-2.24981 z"
       id="path1101"
       transform="matrix(4.4022126,0,0,4.4022126,-240.46248,-524.76782)" />
    <path
       style="fill:#481800;fill-opacity:1;stroke:none;stroke-width:1.16475201px;stroke-linecap:butt;stroke-linejoin:miter;stroke-opacity:1"
       d="m 88.285494,83.681233 h -6.59729 l 2.94341,3.755351 z"
       id="path980" />
    <path
       style="fill:none;stroke:#481800;stroke-width:1.16658628;stroke-linecap:butt;stroke-linejoin:miter;stroke-miterlimit:4;stroke-dasharray:none;stroke-opacity:1"
       d="m 81.596914,93.298744 c 5.14683,-0.28394 9.33064,0.6315 11.97662,-3.65388"
       id="path982" />
    <path
       style="fill:#a9550d;fill-opacity:1;stroke:none;stroke-width:1.16475201px;stroke-linecap:butt;stroke-linejoin:miter;stroke-opacity:1"
       d="m 67.587154,83.162246 c -0.0531,0.28067 -0.0928,0.564159 -0.15014,0.843991 -1.75634,8.584627 7.22688,14.389517 16.90275,15.721117 -0.26226,-1.53007 0,0 -0.26226,-1.53007 -7.65487,-0.875 -14.79104,-5.58004 -16.49035,-15.035038 z"
       id="path959-0" />
    <path
       style="fill:#a9550d;fill-opacity:1;stroke:none;stroke-width:1.16475201px;stroke-linecap:butt;stroke-linejoin:miter;stroke-opacity:1"
       d="m 70.116854,92.714574 c -3.44158,14.066916 -6.88778,28.131706 -7.34113,42.945686 2.52985,3.21014 6.25888,3.42363 10.3076,2.83681 l 0.51186,-1.37177 c -3.60336,0.37632 -6.87987,-0.0649 -9.17015,-2.97103 0.4369,-14.27633 3.66158,-27.85743 6.97486,-41.414666 z m 11.58837,25.624546 -0.65063,1.73803 c 5.3694,1.2551 11.22805,0.79896 17.25062,-0.23204 4.274766,4.86476 8.210866,6.93445 10.755746,8.77432 4.26287,-0.3524 7.09134,-0.69132 9.77528,-2.20894 -0.006,-0.24256 -0.0264,-0.47939 -0.0341,-0.72115 -2.22352,0.86177 -4.70093,1.14396 -8.08958,1.4241 -2.54487,-1.83987 -6.48325,-3.90956 -10.758026,-8.77432 -6.39643,1.095 -12.61325,1.5664 -18.24929,0 z"
       id="path961-3" />
    <path
       style="fill:#bf620f;fill-opacity:1;stroke:none;stroke-width:1.16475201px;stroke-linecap:butt;stroke-linejoin:miter;stroke-opacity:1"
       d="m 108.76743,114.73501 c -1.30631,0.35174 -2.74705,0.4345 -3.67427,1.54407 l -0.87268,-0.88013 c 1.39302,-0.95713 2.88376,-1.32788 4.54695,-0.66394 z"
       id="path1048" />
    <rect
       style="opacity:1;fill:#f8bf89;fill-opacity:1;stroke:none;stroke-width:0.26499999;stroke-linecap:round;stroke-linejoin:round;stroke-miterlimit:4;stroke-dasharray:none;stroke-opacity:1;filter:url(#filter1076)"
       id="rect1070"
       width="1.2860979"
       height="0.39849889"
       x="75.311935"
       y="135.1875"
       ry="0.17619359"
       transform="matrix(4.4022126,0,0,4.4022126,-240.46248,-524.76782)" />
    <rect
       style="opacity:1;fill:#f8bf89;fill-opacity:1;stroke:none;stroke-width:0.26499999;stroke-linecap:round;stroke-linejoin:round;stroke-miterlimit:4;stroke-dasharray:none;stroke-opacity:1;filter:url(#filter1076-0)"
       id="rect1070-2"
       width="1.2860979"
       height="0.39849889"
       x="71.637032"
       y="135.31758"
       ry="0.17619359"
       transform="matrix(4.4022126,0,0,4.4022126,-240.46248,-524.76782)" />
    <path
       style="fill:#f8bf89;fill-opacity:1;stroke:none;stroke-width:0.26458332px;stroke-linecap:butt;stroke-linejoin:miter;stroke-opacity:1;filter:url(#filter1109)"
       d="m 76.477124,137.42675 c -0.367523,-0.20404 0.105224,-0.93334 0.733634,-0.44018 0.662333,0.51978 0.523142,1.68356 0.652118,2.62478 -0.416785,-0.77068 -0.43893,-1.65896 -1.385752,-2.1846 z"
       id="path1107"
       transform="matrix(4.4022126,0,0,4.4022126,-240.46248,-524.76782)" />
    <path
       style="fill:#f8bf89;fill-opacity:1;stroke:none;stroke-width:0.26458332px;stroke-linecap:butt;stroke-linejoin:miter;stroke-opacity:1;filter:url(#filter1109-6)"
       d="m 74.691188,138.17104 c -0.367523,-0.20404 0.105224,-0.93334 0.733634,-0.44018 0.662333,0.51978 0.523142,1.68356 0.652118,2.62478 -0.416785,-0.77068 -0.43893,-1.65896 -1.385752,-2.1846 z"
       id="path1107-8"
       transform="matrix(-4.4022126,0,0,4.4022126,404.16703,-529.36104)" />
    <path
       style="fill:#ee7b0e;fill-opacity:1;stroke:none;stroke-width:0.39877287px;stroke-linecap:butt;stroke-linejoin:miter;stroke-opacity:1"
       d="m 200.82882,163.98952 c 0.1552,-5.07183 1.33557,-9.88736 2.51385,-14.7034 l 11.18922,0.20848 c 0.96681,2.53872 1.47268,4.51385 2.04322,7.33063 0.72228,-0.10617 1.63613,0.58322 2.40468,1.00917 0.95259,0.7607 1.01757,1.86823 1.04246,2.98843 -0.91888,0.51959 -1.88691,0.6354 -3.34639,0.75604 -0.87129,-0.6299 -2.21927,-1.3383 -3.68281,-3.00383 -2.18994,0.37489 -4.31887,0.53629 -6.24847,0 l -2.38677,6.38541 c -1.38616,0.20092 -2.66287,0.12815 -3.52899,-0.97093 z"
       id="path961-1-6" />
    <path
       style="fill:#ee7b0e;fill-opacity:1;stroke:none;stroke-width:0.39877287px;stroke-linecap:butt;stroke-linejoin:miter;stroke-opacity:1"
       d="m 204.78373,137.26239 c -1.8751,2.79634 -1.73552,5.99558 -2.35884,9.04226 -1.27705,6.24204 14.0321,8.19235 12.97369,0.29487 -0.43292,-3.23017 -0.10602,-6.71364 -2.064,-9.4354 -0.9447,0.85411 -1.85396,1.72342 -2.16227,2.85027 -1.60511,-0.58881 -2.9775,-0.24678 -4.32457,0.19659 -0.47648,-1.30014 -1.21855,-2.20191 -2.06401,-2.94859 z"
       id="path959-9-7" />
    <rect
       style="opacity:1;fill:#481800;fill-opacity:1;stroke:none;stroke-width:0.39877287;stroke-linecap:round;stroke-linejoin:round;stroke-miterlimit:4;stroke-dasharray:none;stroke-opacity:1"
       id="rect963-4-5"
       width="0.59073234"
       height="2.6409397"
       x="205.84467"
       y="143.06598"
       ry="0.29536617" />
    <rect
       style="opacity:1;fill:#481800;fill-opacity:1;stroke:none;stroke-width:0.39877287;stroke-linecap:round;stroke-linejoin:round;stroke-miterlimit:4;stroke-dasharray:none;stroke-opacity:1"
       id="rect963-7-7-3"
       width="0.5907324"
       height="2.6409397"
       x="210.41418"
       y="143.03125"
       ry="0.2953662" />
    <path
       style="fill:#481800;fill-opacity:1;stroke:none;stroke-width:0.39877287px;stroke-linecap:butt;stroke-linejoin:miter;stroke-opacity:1"
       d="m 209.56276,146.19343 h -2.2587 l 1.00773,1.28571 z"
       id="path980-8-5" />
    <path
       style="fill:none;stroke:#481800;stroke-width:0.39940086;stroke-linecap:butt;stroke-linejoin:miter;stroke-miterlimit:4;stroke-dasharray:none;stroke-opacity:1"
       d="m 207.27282,149.48615 c 1.76209,-0.0973 3.1945,0.21621 4.10041,-1.25096"
       id="path982-4-6" />
    <path
       style="fill:#a9550d;fill-opacity:1;stroke:none;stroke-width:0.39877287px;stroke-linecap:butt;stroke-linejoin:miter;stroke-opacity:1"
       d="m 202.47635,146.01574 c -0.0183,0.0962 -0.0318,0.19315 -0.0514,0.28896 -0.6013,2.93911 2.47426,4.92651 5.78696,5.3824 -0.0898,-0.52384 0,0 -0.0898,-0.52384 -2.62078,-0.29956 -5.06396,-1.91042 -5.64574,-5.14752 z"
       id="path959-0-5-2" />
    <path
       style="fill:#a9550d;fill-opacity:1;stroke:none;stroke-width:0.39877287px;stroke-linecap:butt;stroke-linejoin:miter;stroke-opacity:1"
       d="m 203.34241,149.28616 c -1.17827,4.81606 -2.35813,9.63137 -2.51335,14.70318 0.86613,1.09906 2.14283,1.17215 3.52898,0.97123 l 0.17524,-0.46964 c -1.23366,0.12889 -2.35545,-0.0221 -3.13955,-1.01718 0.14952,-4.88775 1.25361,-9.53746 2.38796,-14.17902 z m 3.96747,8.77299 -0.22275,0.59505 c 1.83832,0.42971 3.84412,0.27353 5.90607,-0.0794 1.46352,1.66553 2.81111,2.37413 3.68241,3.00403 1.45945,-0.12058 2.42783,-0.23668 3.34673,-0.75625 -0.001,-0.083 -0.009,-0.16413 -0.0119,-0.2469 -0.76129,0.29505 -1.60946,0.39167 -2.76962,0.48756 -0.87128,-0.62991 -2.21966,-1.33851 -3.6832,-3.00405 -2.18992,0.37489 -4.31838,0.53631 -6.24796,0 z"
       id="path961-3-0-9" />
    <path
       style="fill:#bf620f;fill-opacity:1;stroke:none;stroke-width:0.39877287px;stroke-linecap:butt;stroke-linejoin:miter;stroke-opacity:1"
       d="m 216.57511,156.82523 c -0.44726,0.12043 -0.9405,0.14875 -1.25795,0.52864 l -0.29879,-0.30134 c 0.47694,-0.32768 0.9873,-0.45461 1.55674,-0.2273 z"
       id="path1048-3-1" />
  </g>
</svg>
