<?xml version="1.0" encoding="UTF-8" standalone="no"?>
<svg
   xmlns:dc="http://purl.org/dc/elements/1.1/"
   xmlns:cc="http://creativecommons.org/ns#"
   xmlns:rdf="http://www.w3.org/1999/02/22-rdf-syntax-ns#"
   xmlns:svg="http://www.w3.org/2000/svg"
   xmlns="http://www.w3.org/2000/svg"
   xmlns:xlink="http://www.w3.org/1999/xlink"
   width="240"
   height="280"
   viewBox="0 0 240 280.00001"
   version="1.1"
   id="svg1016">
  <defs
     id="defs1010">
    <linearGradient
       id="linearGradient1064">
      <stop
         id="stop1060"
         offset="0"
         style="stop-color:#7c4007;stop-opacity:1" />
      <stop
         id="stop1062"
         offset="1"
         style="stop-color:#b25c0b;stop-opacity:1" />
    </linearGradient>
    <linearGradient
       id="linearGradient1024">
      <stop
         id="stop1020"
         offset="0"
         style="stop-color:#ffffff;stop-opacity:1;" />
      <stop
         id="stop1022"
         offset="1"
         style="stop-color:#ffffff;stop-opacity:0;" />
    </linearGradient>
    <linearGradient
       id="linearGradient940">
      <stop
         id="stop936"
         offset="0"
         style="stop-color:#481800;stop-opacity:1" />
      <stop
         id="stop938"
         offset="1"
         style="stop-color:#070707;stop-opacity:0" />
    </linearGradient>
    <linearGradient
       id="linearGradient888">
      <stop
         id="stop884"
         offset="0"
         style="stop-color:#ffffff;stop-opacity:0" />
      <stop
         id="stop886"
         offset="1"
         style="stop-color:#ffffff;stop-opacity:1" />
    </linearGradient>
    <linearGradient
       xlink:href="#linearGradient885"
       id="linearGradient1080"
       x1="1.0043449"
       y1="35.870316"
       x2="210.91243"
       y2="262.85229"
       gradientUnits="userSpaceOnUse"
       gradientTransform="matrix(1.1433576,0,0,1.2335782,-1.148329,-44.24874)" />
    <linearGradient
       id="linearGradient885">
      <stop
         style="stop-color:#6736dd;stop-opacity:1"
         offset="0"
         id="stop881" />
      <stop
         style="stop-color:#10c5f8;stop-opacity:1"
         offset="1"
         id="stop883" />
    </linearGradient>
    <linearGradient
       gradientUnits="userSpaceOnUse"
       y2="24.247622"
       x2="131.17699"
       y1="48.506485"
       x1="143.2187"
       id="linearGradient890"
       xlink:href="#linearGradient888" />
    <linearGradient
       gradientUnits="userSpaceOnUse"
       y2="28.020306"
       x2="188.9798"
       y1="46.425514"
       x1="184.50851"
       id="linearGradient916"
       xlink:href="#linearGradient888" />
    <linearGradient
       gradientUnits="userSpaceOnUse"
       y2="186.54126"
       x2="145.95158"
       y1="221.84453"
       x1="146.41788"
       id="linearGradient942"
       xlink:href="#linearGradient940" />
    <linearGradient
       gradientUnits="userSpaceOnUse"
       y2="183.47211"
       x2="181.35631"
       y1="221.14125"
       x1="181.24841"
       id="linearGradient983"
       xlink:href="#linearGradient940" />
    <radialGradient
       gradientUnits="userSpaceOnUse"
       gradientTransform="matrix(1,0,0,0.40625001,-2.020877,36.803631)"
       r="7.3163562"
       fy="60.623631"
       fx="158.9021"
       cy="60.623631"
       cx="158.9021"
       id="radialGradient1026"
       xlink:href="#linearGradient1024" />
    <radialGradient
       gradientUnits="userSpaceOnUse"
       gradientTransform="matrix(-1.121531,0.00153109,-5.6855517e-4,-0.416466,411.21776,85.717823)"
       r="6.129436"
       fy="61.563683"
       fx="193.84447"
       cy="61.563683"
       cx="193.84447"
       id="radialGradient1050"
       xlink:href="#linearGradient1024" />
    <linearGradient
       gradientUnits="userSpaceOnUse"
       y2="184.27615"
       x2="102.52031"
       y1="220.58768"
       x1="102.21609"
       id="linearGradient1066"
       xlink:href="#linearGradient1064" />
    <linearGradient
       gradientUnits="userSpaceOnUse"
       y2="186.18263"
       x2="68.740425"
       y1="221.58841"
       x1="68.356438"
       id="linearGradient1092"
       xlink:href="#linearGradient940" />
    <filter
       height="1.163292"
       y="-0.081646013"
       width="1.4526248"
       x="-0.22631238"
       id="filter877"
       style="color-interpolation-filters:sRGB">
      <feGaussianBlur
         id="feGaussianBlur879"
         stdDeviation="1.0541576" />
    </filter>
    <filter
       height="1.1632921"
       y="-0.08164601"
       width="1.4526248"
       x="-0.22631238"
       id="filter877-3"
       style="color-interpolation-filters:sRGB">
      <feGaussianBlur
         id="feGaussianBlur879-6"
         stdDeviation="1.0541576" />
    </filter>
    <filter
       height="1.2790576"
       y="-0.13952878"
       width="1.2105333"
       x="-0.10526663"
       id="filter902"
       style="color-interpolation-filters:sRGB">
      <feGaussianBlur
         id="feGaussianBlur904"
         stdDeviation="1.8808248" />
    </filter>
    <linearGradient
       gradientTransform="matrix(1.4163717,0,0,1.4352848,-65.763777,-68.409579)"
       gradientUnits="userSpaceOnUse"
       y2="144.86392"
       x2="194.44211"
       y1="144.86392"
       x1="184.76669"
       id="linearGradient961"
       xlink:href="#linearGradient885" />
  </defs>
  <metadata
     id="metadata1013">
    <rdf:RDF>
      <cc:Work
         rdf:about="">
        <dc:format>image/svg+xml</dc:format>
        <dc:type
           rdf:resource="http://purl.org/dc/dcmitype/StillImage" />
        <dc:title></dc:title>
      </cc:Work>
    </rdf:RDF>
  </metadata>
  <rect
     y="-5.7714842e-05"
     x="0"
     height="280"
     width="240"
     id="rect1025"
     style="opacity:1;fill:url(#linearGradient1080);fill-opacity:1;stroke:none;stroke-width:1.25688875;stroke-linecap:round;stroke-linejoin:round;stroke-miterlimit:4;stroke-dasharray:none;stroke-opacity:1" />
  <path
     id="path828"
     d="m 90.565406,185.06305 0.713401,10.8858 c 0,0 -1.23253,3.2251 -0.820199,6.3118 0.102123,0.7646 1.751406,-0.8515 1.751406,-0.8515 0,0 -1.283928,4.396 -1.185429,6.1735 0.02872,0.5167 1.265521,-0.8992 1.265521,-0.8992 l 1.11727,14.0058 19.081734,-0.2041 4.36444,-38.468"
     style="fill:url(#linearGradient1066);fill-opacity:1;stroke:#481800;stroke-width:1.21005344;stroke-linecap:round;stroke-linejoin:round;stroke-miterlimit:4;stroke-dasharray:none;stroke-opacity:1" />
  <path
     id="path830"
     d="m 91.681897,120.81452 c -0.489751,0.15874 -4.12408,1.53525 -4.60998,1.6989 -4.67345,1.57266 -9.166931,3.43899 -13.439641,5.64888 -0.230249,0.12095 -2.454119,-0.25701 -2.869421,-0.12094 -0.359433,0.11716 1.107091,0.75061 0.674453,0.8776 -1.557491,0.45695 -3.392682,0.94866 -4.0896,1.35118 -0.746691,0.43163 1.406819,0.6206 0.67536,1.07528 -11.795849,7.33379 -21.580407,17.75131 -28.358264,32.48653 -0.04562,0.098 -2.576556,0.6475 -2.700472,0.7782 -0.124951,0.1323 2.156564,-0.1512 1.976314,8e-4 -1.001835,0.8583 -2.669944,1.9888 -2.914007,2.5617 -0.244762,0.5745 2.134487,0.1134 1.898547,0.7019 -3.544111,8.8203 -6.087798,19.0711 -7.448152,30.98 -0.172082,1.9775 -0.200617,3.8718 0.293783,5.4539 0.07034,0.2268 -0.02835,2.5247 0.06425,2.7364 0.06346,0.1436 0.311811,-1.7945 0.386593,-1.6562 0.469394,0.8685 1.168773,1.5991 2.185152,2.1392 0.695093,0.4607 1.554187,0.9124 2.543456,1.3315 0.520282,0.2192 0.789498,2.2984 1.376874,2.4979 0.788261,0.2684 1.919591,-1.3523 2.807935,-1.1365 0.262639,0.064 0.224693,1.5715 0.494733,1.6297 0.332069,0.072 1.046158,-1.4634 1.31622,-1.2438 1.057206,0.8591 2.160159,1.2934 3.292003,0.4392 1.442857,-1.0889 3.175959,-0.098 5.032841,-0.3515 0.256555,-0.038 0.443679,1.4407 0.704515,1.4128 0.283994,-0.038 0.642074,-1.564 0.930074,-1.5878 1.021179,-0.083 2.446466,-1.6158 3.251675,-0.8315 0.444469,0.4328 0.782068,1.2673 1.714568,-0.2041 0.229228,-0.3628 0.824133,0.1739 1.17798,0.4483 2.178527,1.6958 3.56445,-2.1351 4.985038,-3.6375 2.293331,-2.0148 3.95367,-2.2458 3.999682,-5.091 0.477429,-28.9602 11.131116,-49.53977 19.175939,-72.26796 -0.49759,-4.4708 4.09765,-5.34652 5.471581,-8.11993 z"
     style="fill:#f07e13;fill-opacity:1;stroke:#481800;stroke-width:1.21005344;stroke-linecap:round;stroke-linejoin:round;stroke-miterlimit:4;stroke-dasharray:none;stroke-opacity:1" />
  <path
     id="path842"
     d="m 32.358385,186.82855 c -0.516318,2.5553 -0.969978,5.1987 -1.357762,7.9351 l 36.104855,3.8664 c 0.109531,-2.9038 0.321184,-5.7237 0.62098,-8.471 z"
     style="fill:#481800;fill-opacity:1;stroke:#481800;stroke-width:1.21005344;stroke-linecap:round;stroke-linejoin:round;stroke-miterlimit:4;stroke-dasharray:none;stroke-opacity:1" />
  <path
     id="path844"
     d="m 41.043829,160.97845 c -0.51809,1.0242 -0.836996,2.457 -1.703146,3.6075 -0.602423,0.8002 -1.803049,1.3153 -2.126482,2.0807 -0.07627,0.1814 1.266174,0.3666 1.421717,1.0945 0.09434,0.4415 -0.951136,1.5356 -0.996558,1.6464 l 31.629194,10.6393 c 0.625482,-3.2163 1.358861,-6.3431 2.179053,-9.3993 z"
     style="fill:#481800;fill-opacity:1;stroke:#481800;stroke-width:1.21005344;stroke-linecap:round;stroke-linejoin:round;stroke-miterlimit:4;stroke-dasharray:none;stroke-opacity:1" />
  <path
     id="path846"
     d="m 59.345885,137.63229 c -1.868678,1.57228 -3.667661,3.24926 -5.392657,5.03584 l 19.538117,20.99152 c 1.0678,-3.3823 2.726041,-8.32028 3.921392,-11.59751 z"
     style="fill:#481800;fill-opacity:1;stroke:#481800;stroke-width:1.21005344;stroke-linecap:round;stroke-linejoin:round;stroke-miterlimit:4;stroke-dasharray:none;stroke-opacity:1" />
  <path
     id="path830-9"
     d="m 91.681138,120.81452 c -0.490644,0.15874 -4.123363,1.53525 -4.609202,1.6989 -4.67345,1.57266 -9.16667,3.43899 -13.439388,5.64888 -0.230211,0.12095 -2.45444,-0.25701 -2.869731,-0.12094 -0.359433,0.11716 1.107379,0.75099 0.67474,0.87798 -1.55749,0.45732 -3.392931,0.94866 -4.089842,1.35118 -0.746687,0.43162 1.406801,0.6206 0.675341,1.07566 -11.795848,7.33379 -21.580407,17.7513 -28.358264,32.48657 -0.04562,0.098 -2.576257,0.647 -2.700165,0.7782 -0.124951,0.1323 2.156042,-0.155 1.975789,4e-4 -1.001832,0.8583 -2.669997,1.9891 -2.91406,2.5621 -0.244762,0.5745 2.134918,0.1134 1.898977,0.7019 -3.544107,8.8199 -6.08785,19.0711 -7.448208,30.9796 -0.172082,1.9775 -0.200731,3.8718 0.293669,5.4535 0.07034,0.2268 -0.02797,2.5255 0.06437,2.7371 0.06346,0.1436 0.311622,-1.7945 0.386411,-1.6562 0.469395,0.8686 1.168569,1.5992 2.184956,2.1393 0.695082,0.4611 1.554316,0.912 2.543592,1.3311 0.520286,0.2192 0.78988,2.2987 1.377256,2.4983 0.788261,0.2683 1.919349,-1.3527 2.807704,-1.1369 0.262639,0.064 0.224466,1.5719 0.494536,1.6301 0.308674,0.068 0.947218,-1.2533 1.252596,-1.2635 -0.486762,-0.2494 -0.933267,-0.5027 -1.32291,-0.7612 -1.016379,-0.5401 -1.71555,-1.2711 -2.184945,-2.1396 -0.0748,-0.1398 -0.322961,1.8013 -0.386423,1.6562 -0.09248,-0.2117 0.0057,-2.5111 -0.06436,-2.736 -0.494395,-1.5821 -0.465731,-3.4764 -0.293669,-5.4535 1.360357,-11.9089 3.9041,-22.1601 7.448209,-30.98 0.637538,-1.8902 1.084509,-2.9942 1.739459,-4.0433 6.777857,-14.73491 16.562419,-25.1528 28.358257,-32.4866 2.785682,-1.99672 5.106561,-3.168 11.01397,-5.74526 0.263849,-3.58979 4.23058,-4.53997 5.491332,-7.08359 z m -49.686641,89.82913 c 0.443599,0.3553 0.894712,0.6339 1.353037,0.7711 -0.07638,-0.1248 -0.156624,-0.2193 -0.244611,-0.257 -0.392924,-0.1663 -0.758695,-0.3402 -1.108426,-0.5148 z"
     style="opacity:0.3;fill:#ffffff;fill-opacity:1;stroke:none;stroke-width:1.21005344;stroke-linecap:round;stroke-linejoin:round;stroke-miterlimit:4;stroke-dasharray:none;stroke-opacity:1" />
  <path
     id="path830-2"
     d="m 91.681897,120.81452 c -0.489751,0.15874 -4.12408,1.53525 -4.60998,1.6989 -4.673462,1.57266 -9.166931,3.43899 -13.439641,5.64888 -0.230249,0.12095 -2.454119,-0.25701 -2.869421,-0.12094 -0.359433,0.11716 1.10708,0.75061 0.674453,0.8776 -1.557491,0.45695 -3.392682,0.94866 -4.0896,1.35118 -0.746691,0.43163 1.406819,0.6206 0.67536,1.07528 -11.795849,7.33379 -21.580407,17.75131 -28.358264,32.48653 -0.04562,0.098 -2.576556,0.6475 -2.700472,0.7782 -0.124951,0.1323 2.156564,-0.1512 1.976314,8e-4 -1.001835,0.8583 -2.669944,1.9888 -2.914007,2.5617 -0.244762,0.5745 2.134487,0.1134 1.898547,0.7019 -3.544111,8.8203 -6.087798,19.0711 -7.448152,30.98 -0.172082,1.9775 -0.200655,3.8718 0.293783,5.4539 0.07034,0.2268 -0.02835,2.5247 0.06425,2.7364 0.06346,0.1436 0.311811,-1.7945 0.386593,-1.6562 0.469394,0.8685 1.168773,1.5991 2.185152,2.1392 0.695093,0.4607 1.554187,0.9124 2.543456,1.3315 0.520282,0.2192 0.789498,2.2984 1.376874,2.4979 0.788261,0.2684 1.919591,-1.3523 2.807935,-1.1365 0.262639,0.064 0.224655,1.5715 0.494733,1.6297 0.332069,0.072 1.046146,-1.4634 1.316209,-1.2438 1.057217,0.8591 2.16017,1.2934 3.292002,0.4392 1.442869,-1.0889 3.175971,-0.098 5.032853,-0.3515 0.256555,-0.038 0.443679,1.4407 0.704515,1.4128 0.283994,-0.038 0.642063,-1.564 0.930074,-1.5878 1.021179,-0.083 2.446466,-1.6158 3.251675,-0.8315 0.444469,0.4328 0.782068,1.2673 1.714568,-0.2041 0.229228,-0.3628 0.824133,0.1739 1.17798,0.4483 2.17852,1.6958 3.56445,-2.1351 4.985038,-3.6375 2.293331,-2.0148 3.95367,-2.2458 3.999682,-5.091 0.477429,-28.9602 11.131116,-49.53977 19.175939,-72.26796 -0.49759,-4.4708 4.09765,-5.34652 5.471581,-8.11993 z"
     style="fill:none;fill-opacity:1;stroke:#481800;stroke-width:1.21005344;stroke-linecap:round;stroke-linejoin:round;stroke-miterlimit:4;stroke-dasharray:none;stroke-opacity:1" />
  <path
     id="path826"
     d="m 128.93193,98.89062 c -4.39956,-8.49676 -6.0996,-17.50791 -5.77856,-26.90381 0.0242,-0.71018 -1.4624,1.41921 -1.41533,0.7045 0.0554,-0.84132 1.64893,-4.5275 1.73509,-5.37487 0.0777,-0.7646 -1.86213,2.02054 -1.76008,1.2514 0.15798,-1.19092 2.37461,-5.9399 2.58864,-7.14141 1.82063,-10.22098 5.62222,-20.81915 10.60181,-31.64183 0.17336,-0.37795 -0.99755,-1.6868 -0.82135,-2.064 0.17019,0.0454 0.71534,0.35528 1.2398,0.65348 0.0805,0.0454 0.46558,-0.86022 0.54373,-0.816 0.37704,0.21165 0.40435,1.34702 0.53083,1.38898 5.15723,1.71212 10.43434,5.94217 16.08309,17.97619 2.68254,-0.66369 5.36715,-1.3217 8.12423,-1.79906 0.78934,-0.13606 -0.71201,-1.19131 0.0909,-1.29411 0.56851,-0.0718 3.43749,0.7971 4.0142,0.74457 0.79265,-0.0718 -1.09779,-1.30696 -0.28702,-1.3338 0.81123,-0.0378 4.32368,1.15578 5.15609,1.18224 3.11448,0.0983 6.38793,0.5949 9.90028,1.68831 2.08792,-6.41234 3.49689,-13.75823 9.15538,-15.26097 0.25511,-0.068 -0.57582,-1.97178 -0.30312,-2.01525 0.11981,0.068 0.58953,0.73474 1.01053,1.32246 0.10129,0.13984 1.15049,-0.51175 1.24052,-0.38854 0.19653,0.26835 -0.59755,1.26048 -0.53791,1.30054 10.40795,6.97474 6.21287,29.36391 8.71922,44.67931 1.07275,1.92113 1.96007,3.85738 2.61578,5.81215 0.11792,0.3515 2.38144,2.35465 2.48413,2.70728 0.16365,0.56164 -1.84589,-0.52573 -1.72286,0.0378 0.18217,0.83603 2.47188,4.18771 2.55957,5.0313 0.0964,0.92599 -2.01959,-0.65537 -2.04586,0.27969 -0.18482,6.58129 -3.51485,13.4177 -11.60466,20.63962 0.94125,6.10658 1.69221,12.23282 2.26798,18.37757 0.034,0.38098 2.03131,3.60227 2.21393,4.25764 0.15988,0.57336 -1.5058,-1.44302 -1.29206,-0.768 0.67373,2.12825 1.42885,5.52567 1.51029,6.57751 0.0915,1.18148 -1.80268,-2.40718 -1.72372,-1.22494 0.0642,0.96491 1.79074,10.50331 1.84694,11.4686 0.0416,0.71471 -1.72853,-1.76126 -1.69134,-1.04618 0.77786,14.95256 0.64222,28.20696 -0.24718,41.82126 -0.0378,0.5627 1.04164,3.3592 1.00229,3.9235 -0.0416,0.5949 -1.20079,-1.0428 -1.24509,-0.446 -0.0522,0.7034 1.06088,4.0471 1.00475,4.7535 -0.0593,0.7457 -1.2878,-1.1455 -1.35129,-0.3957 -0.63107,7.4525 -1.47224,15.1234 -2.49854,23.3352 l -20.1129,0.2872 -2.00958,-17.2293 -1.9378,1.2918 c -0.73334,0.4891 1.74459,-3.4375 1.9378,-5.842 0.0922,-1.1467 -1.83014,2.0054 -1.83014,0.8553 0,-0.9694 2.09614,-6.2819 1.83014,-7.2143 l -3.1579,-11.0665 -6.29291,-0.4059 c 0,0 -1.25464,7.9162 -1.08255,14.7813 0.0648,2.5845 1.62855,3.7395 1.16553,6.9721 -0.13864,0.968 -0.68443,-2.0867 -1.61924,-1.7998 -0.47023,0.1436 0.42914,3.4526 0.21067,4.7573 -0.0931,0.5564 -1.38771,-1.2488 -1.44732,-0.5563 -0.51605,5.9935 0.0852,16.2625 -0.56933,16.3872 l -21.5177,-0.102 -1.73145,-8.2394 c 0,0 -1.66076,2.3683 -1.68579,1.595 -0.0939,-2.8997 1.37651,-7.7806 1.37651,-7.7806 0,0 -1.41934,2.5425 -1.4882,0.81 -0.0518,-1.3032 1.34502,-3.6737 1.34502,-3.6737 l -4.16296,-20.0258 c 0,0 -3.31099,1.0265 -3.82865,1.0235 -0.559,0 1.8781,-2.2243 1.81338,-2.3392 -0.21441,-0.381 -3.76588,1.6301 -4.14265,1.6135 -0.45168,-0.038 1.52295,-1.8187 1.16439,-2.0942 -0.51998,-0.3992 -2.53264,1.4229 -3.18672,1.6006 -0.67234,0.1814 0.4163,-1.6142 0.4163,-1.6142 l -17.7816,1.3938 c 0,0 -1.32147,1.5013 -3.316853,1.5546 -0.491842,0 0.676259,-1.3119 0.676259,-1.3119 0,0 -3.410241,2.1524 -4.893921,2.0058 -0.606391,-0.061 0.82422,-1.6316 0.82422,-1.6316 l -11.4089,1.0488 c 0,0 0.443312,1.2113 0.102916,1.6403 -0.259691,0.3288 -0.909301,-0.053 -1.236442,0.2079 -0.228586,0.1814 -0.0644,0.7033 -0.336605,0.8088 -0.419932,0.1625 -1.225542,-0.5696 -1.225542,-0.5696 l -0.93696,13.2465 c -0.01134,5.9512 1.028791,3.3513 1.125751,9.4522 -0.01134,0.7185 -1.9337,-2.4234 -1.94801,-0.9233 -0.01776,1.8542 1.248072,3.3222 0.937701,5.4829 -0.10851,0.7556 -1.322869,-0.6175 -1.322869,-0.6175 l -0.566562,7.0314 -21.923686,-0.4063 c -0.374816,-7.81 -0.454186,-15.0625 -0.263169,-21.8048 0.0257,-0.9105 -1.378889,1.2026 -1.343297,0.3099 0.03213,-0.8058 1.503674,-4.6182 1.543725,-5.4093 0.04415,-0.8723 -1.342253,0.4891 -1.288562,-0.3666 0.05775,-0.9192 1.556383,-4.0532 1.624986,-4.9519 0.783749,-10.269 2.270434,-19.211 4.346653,-27.0403 0.225713,-0.8511 -1.47939,0.3402 -1.239863,-0.4868 0.137764,-0.4747 0.984212,-1.6842 1.68627,-2.7364 0.187881,-0.2797 -1.428797,0.3629 -1.277949,0.121 0.219062,-0.3515 2.176109,-1.55757 2.232522,-1.73634 8.866568,-28.13594 25.982238,-40.70136 45.029147,-49.6218 0.42789,-0.20031 -1.72698,-0.47055 -1.29722,-0.66746 0.53837,-0.24567 2.94418,-0.0605 3.48526,-0.30236 0.57518,-0.25701 -1.32425,-1.12063 -0.74635,-1.37235 0.55323,-0.24189 4.30141,-0.22677 4.85683,-0.46526 4.79329,-2.04321 9.66243,-3.94318 14.51202,-5.88019 z"
     style="fill:#f07e13;fill-opacity:1;stroke:#481800;stroke-width:1.21;stroke-linecap:round;stroke-linejoin:round;stroke-miterlimit:4;stroke-dasharray:none;stroke-opacity:1" />
  <path
     id="path826-7"
     d="M 159.27344 181.56641 L 120.30273 182.88281 L 120.29883 182.88672 L 120.30273 182.88672 C 120.30273 182.88672 119.21438 184.6814 119.88672 184.5 C 120.5408 184.3223 122.55229 182.49924 123.07227 182.89844 C 123.43083 183.17394 121.45652 184.95614 121.9082 184.99414 C 122.28497 185.01074 125.83637 182.99986 126.05078 183.38086 C 126.1155 183.49576 123.67928 185.71875 124.23828 185.71875 C 124.75594 185.72175 128.06641 184.69531 128.06641 184.69531 L 132.22852 204.7207 C 132.22852 204.7207 130.83297 207.09133 130.88477 208.39453 C 130.95363 210.12703 132.37305 207.58594 132.37305 207.58594 C 132.37305 207.58594 130.90219 212.46553 130.99609 215.36523 C 131.02112 216.13853 132.68164 213.77148 132.68164 213.77148 L 134.41406 222.00977 L 155.93164 222.11133 C 156.58617 221.98663 155.98395 211.71811 156.5 205.72461 C 156.55961 205.03211 157.85417 206.83765 157.94727 206.28125 C 158.16574 204.97655 157.2661 201.66704 157.73633 201.52344 C 158.67114 201.23654 159.21683 204.29222 159.35547 203.32422 C 159.81849 200.09162 158.25621 198.93606 158.19141 196.35156 C 158.01932 189.48646 159.27344 181.57031 159.27344 181.57031 L 159.27344 181.56641 z "
     style="fill:url(#linearGradient942);fill-opacity:1;stroke:none;stroke-width:1.21005344;stroke-linecap:round;stroke-linejoin:round;stroke-miterlimit:4;stroke-dasharray:none;stroke-opacity:1;opacity:0.5" />
  <path
     id="path1019"
     d="m 164.20818,88.63373 c 12.01259,-8.59237 20.75562,-6.2725 30.49644,-3.64195 -10.30567,0.20032 -20.83162,0.0794 -30.49644,3.64195 z"
     style="opacity:0.3;fill:#ffffff;fill-opacity:1;stroke:none;stroke-width:0.3582412px;stroke-linecap:round;stroke-linejoin:round;stroke-opacity:1" />
  <path
     id="path896-9"
     d="m 156.46163,108.02092 c 1.14656,0.70564 2.27771,1.36139 3.39305,1.96573 0.50261,0.27251 2.93983,3.11622 3.43598,3.36945 0.67216,0.34091 -0.59944,-1.92227 0.0607,-1.6199 0.84714,0.3874 3.69385,3.32636 4.52079,3.64762 0.69874,0.27175 -0.6193,-2.06211 0.0648,-1.83912 6.90077,2.26318 13.04799,2.08668 18.31427,-0.94299 0.67082,-0.38551 -0.53874,2.91439 0.10318,2.43515 1.13178,-0.84511 4.08434,-5.56876 5.12421,-6.71131 6.51146,-5.88501 5.24768,-5.47006 7.86441,-8.823499 -1.2476,-4.62061 -2.09898,-12.251937 -4.85319,-17.087776 -21.53852,-0.123101 -26.51426,2.379771 -30.49644,3.64195 -4.79432,6.46023 -7.76432,14.114795 -7.53176,21.964695 z"
     style="opacity:0.5;fill:#ffffff;fill-opacity:1;stroke:none;stroke-width:1.21005344;stroke-linecap:round;stroke-linejoin:round;stroke-miterlimit:4;stroke-dasharray:none;stroke-opacity:1;filter:url(#filter902)" />
  <path
     id="path832"
     d="m 173.74351,103.61049 c 2.50798,0.6463 5.01487,1.27786 7.47867,1.32057 0.38543,0 0.94926,-0.7544 1.33247,-0.77896 0.58715,-0.0378 0.99201,0.64025 1.57293,0.51704 1.69848,-0.35906 3.36759,-1.12063 4.99298,-2.47975"
     style="fill:none;fill-opacity:1;stroke:#481800;stroke-width:1.21005344;stroke-linecap:round;stroke-linejoin:round;stroke-miterlimit:4;stroke-dasharray:none;stroke-opacity:1" />
  <path
     id="path834"
     d="m 191.78713,66.57188 0.0507,11.36806"
     style="fill:#f07e13;fill-opacity:1;stroke:#481800;stroke-width:3.02513361;stroke-linecap:round;stroke-linejoin:round;stroke-miterlimit:4;stroke-dasharray:none;stroke-opacity:1" />
  <path
     id="path836"
     d="M 160.2442,67.12142 V 80.16419"
     style="fill:#f07e13;fill-opacity:1;stroke:#481800;stroke-width:3.02513361;stroke-linecap:round;stroke-linejoin:round;stroke-miterlimit:4;stroke-dasharray:none;stroke-opacity:1" />
  <path
     id="path838"
     d="m 178.4632,85.13767 1.33886,1.99975 c 0.67034,0.56768 1.2254,1.19282 1.35863,2.02923 l 1.31172,1.95931 1.05588,-2.34634 c 0.0695,-0.66066 0.28347,-1.32094 0.89167,-1.9816 l 0.79287,-1.76202 z"
     style="fill:#481800;fill-opacity:1;stroke:#481800;stroke-width:1.21005344;stroke-linecap:round;stroke-linejoin:round;stroke-miterlimit:4;stroke-dasharray:none;stroke-opacity:1" />
  <path
     id="path896"
     d="m 191.04903,110.25868 c -1.03987,1.14255 -3.99243,5.8662 -5.12421,6.71131 -0.64192,0.47924 0.56764,-2.82066 -0.10318,-2.43515 -5.26628,3.02967 -11.4135,3.20617 -18.31427,0.94299 -0.6841,-0.22299 0.63394,2.11087 -0.0648,1.83912 -0.82694,-0.32126 -3.67365,-3.26022 -4.52079,-3.64762 -0.66014,-0.30237 0.61146,1.96081 -0.0607,1.6199 -0.49615,-0.25323 -2.93337,-3.09694 -3.43598,-3.36945 -1.11534,-0.60434 -2.24649,-1.26009 -3.39305,-1.96573"
     style="fill:none;fill-opacity:1;stroke:#481800;stroke-width:1.21005344;stroke-linecap:round;stroke-linejoin:round;stroke-miterlimit:4;stroke-dasharray:none;stroke-opacity:1" />
  <path
     id="path843"
     d="M 135.86523 27.550781 C 135.78708 27.506561 135.40277 28.412588 135.32227 28.367188 C 134.79781 28.068988 134.25222 27.760244 134.08203 27.714844 C 133.90583 28.092044 135.07766 29.399394 134.9043 29.777344 C 129.92471 40.600024 126.12141 51.198942 124.30078 61.419922 C 124.22938 61.820776 123.91327 62.657283 123.54688 63.583984 L 123.57812 63.595703 L 152.48047 46.923828 L 152.48047 46.916016 C 152.47985 46.916167 152.47913 46.915864 152.47852 46.916016 C 146.82977 34.881996 141.55371 30.653526 136.39648 28.941406 C 136.27 28.899446 136.24227 27.762431 135.86523 27.550781 z "
     style="fill:url(#linearGradient890);stroke:none;stroke-width:1px;stroke-linecap:butt;stroke-linejoin:miter;stroke-opacity:1;fill-opacity:1" />
  <path
     id="path892"
     d="m 188.33008,28.835938 c -0.2727,0.04347 0.55784,1.945671 0.30273,2.013671 -5.65849,1.50274 -7.06637,8.849379 -9.15429,15.261719 5.02217,1.543823 10.88462,4.936277 18.18945,11.501953 -0.28158,-11.233578 -0.94319,-22.065246 -7.625,-26.542969 -0.0596,-0.04006 0.73559,-1.032431 0.53906,-1.300781 -0.09,-0.12321 -1.13894,0.528512 -1.24023,0.388672 -0.421,-0.58772 -0.89191,-1.254265 -1.01172,-1.322265 z"
     style="fill:url(#linearGradient916);stroke:none;stroke-width:1px;stroke-linecap:butt;stroke-linejoin:miter;stroke-opacity:1;fill-opacity:1" />
  <path
     id="path826-2"
     d="M 57.617188 185.9082 C 57.520192 186.95141 57.425558 188.00039 57.34375 189.07227 C 57.275147 189.97097 55.7765 193.10424 55.71875 194.02344 C 55.665059 194.87914 57.051963 193.51833 57.007812 194.39062 C 56.967761 195.18173 55.496974 198.99498 55.464844 199.80078 C 55.429252 200.69348 56.834294 198.57973 56.808594 199.49023 C 56.617577 206.23253 56.695496 213.48492 57.070312 221.29492 L 78.994141 221.70117 L 79.560547 214.66992 C 79.560547 214.66992 80.776256 216.04271 80.884766 215.28711 C 81.195137 213.12641 79.927553 211.65889 79.945312 209.80469 C 79.959622 208.30459 81.883191 211.44702 81.894531 210.72852 C 81.797571 204.62762 80.756238 207.22659 80.767578 201.27539 L 81.705078 188.0293 C 81.705078 188.0293 82.511709 188.76211 82.931641 188.59961 C 83.203846 188.49411 83.038992 187.97242 83.267578 187.79102 C 83.594719 187.53012 84.244215 187.91083 84.503906 187.58203 C 84.522413 187.55871 84.530851 187.52568 84.544922 187.49805 L 84.421875 186.02344 C 84.418762 186.01461 84.400391 185.94141 84.400391 185.94141 L 57.617188 185.9082 z "
     style="fill:url(#linearGradient1092);fill-opacity:1;stroke:none;stroke-width:1.21005344;stroke-linecap:round;stroke-linejoin:round;stroke-miterlimit:4;stroke-dasharray:none;stroke-opacity:1;opacity:0.5" />
  <path
     id="path944"
     d="M 194.67969 165.49023 C 187.42719 173.84549 180.29647 182.34123 165.56641 181.97266 L 168.72266 193.03906 C 168.98866 193.97146 166.89258 199.28451 166.89258 200.25391 C 166.89258 201.40401 168.81486 198.25174 168.72266 199.39844 C 168.52945 201.80294 166.05182 205.72933 166.78516 205.24023 L 168.72266 203.94922 L 170.73242 221.17773 L 190.8457 220.89062 C 191.872 212.67882 192.71268 205.00719 193.34375 197.55469 C 193.40724 196.80489 194.63601 198.69687 194.69531 197.95117 C 194.75144 197.24477 193.63921 193.90067 193.69141 193.19727 C 193.73571 192.60047 194.89395 194.23943 194.93555 193.64453 C 194.9749 193.08023 193.89579 190.2834 193.93359 189.7207 C 194.46001 181.66263 194.71451 173.72288 194.67969 165.49023 z "
     style="fill:url(#linearGradient983);stroke:none;stroke-width:1px;stroke-linecap:butt;stroke-linejoin:miter;stroke-opacity:1;fill-opacity:1;opacity:0.5" />
  <path
     id="path826-5"
     d="m 135.86541,27.5577 c -0.0781,-0.0453 -0.46308,0.86174 -0.54358,0.816 -0.52445,-0.29858 -1.06941,-0.60661 -1.23959,-0.65348 -0.17621,0.37796 0.99463,1.68794 0.82128,2.06438 -4.9796,10.82268 -8.78094,21.42085 -10.60156,31.64183 -0.21404,1.20151 -2.43112,5.95049 -2.5891,7.14141 -0.10209,0.76952 1.83788,-2.016 1.76013,-1.2514 -0.0861,0.84737 -1.67926,4.53355 -1.73472,5.37525 -0.0471,0.71433 1.43933,-1.41544 1.41508,-0.70488 -0.32104,9.3959 1.37892,18.40705 5.77847,26.90418 -4.84958,1.93663 -9.71847,3.83698 -14.51177,5.88019 -0.55543,0.23811 -4.30352,0.223 -4.85675,0.46489 -0.57791,0.25322 1.32142,1.11571 0.74623,1.37234 -0.54107,0.24189 -2.94703,0.0529 -3.48541,0.30236 -0.42975,0.19654 1.7254,0.46753 1.29751,0.66785 -19.046915,8.92006 -36.163023,21.48548 -45.029595,49.62104 -0.0565,0.17763 -2.01315,1.38519 -2.232219,1.73669 -0.150841,0.2419 1.465901,-0.4029 1.278002,-0.1209 -0.702062,1.0518 -1.54848,2.2612 -1.68627,2.736 -0.239509,0.825 1.465307,-0.3629 1.239586,0.4868 -2.076215,7.8292 -3.562499,16.7712 -4.346263,27.0402 -0.0686,0.8988 -1.567654,4.0324 -1.62542,4.9519 -0.05363,0.8546 1.332824,-0.5068 1.288645,0.3667 -0.04002,0.7906 -1.511736,4.6034 -1.543888,5.4092 -0.03553,0.892 1.369379,-1.2215 1.343584,-0.3099 -0.190979,6.7423 -0.111836,13.9945 0.262942,21.8045 l 7.691047,0.1436 c -0.308636,-7.1751 -0.367559,-13.8788 -0.190261,-20.1366 0.09702,-4.0206 0.270123,-8.2711 0.537071,-10.416 0.78376,-10.269 2.270638,-19.2109 4.346857,-27.0402 0.352857,-1.6895 0.830941,-3.2425 1.400901,-4.8386 8.866571,-28.13554 25.982082,-40.70058 45.029001,-49.62102 2.16296,-1.1297 2.63829,-1.56019 6.29843,-2.80667 20.90125,-4.88276 8.33475,-17.398022 8.73329,-32.78438 0.0363,-3.83811 0.81672,-9.02627 1.14861,-10.56 1.7816,-10.00177 5.46295,-20.36561 10.28605,-30.94677 -2.01158,-1.67282 -3.9922,-2.6914 -5.95515,-3.343 -0.12647,-0.0416 -0.15409,-1.17618 -0.53117,-1.38935 z m 52.46538,1.27748 c -0.27288,0.0454 0.55816,1.94759 0.30312,2.01563 -5.65845,1.50274 -7.06779,8.84787 -9.15576,15.26022 -3.51231,-1.09342 -6.78572,-1.5893 -9.9002,-1.68794 -0.83241,-0.0378 -4.34509,-1.20907 -5.15633,-1.18224 -0.81076,0.0378 1.07979,1.26199 0.28716,1.33418 -0.57671,0.0529 -3.44569,-0.81789 -4.01421,-0.74533 -0.80291,0.10205 0.69834,1.15805 -0.091,1.29449 -0.66005,0.11339 -7.3038,1.40636 -7.95652,1.53902 0.53285,1.01141 1.06888,2.08857 1.60829,3.23793 8.124,-2.14262 12.81885,-3.35622 18.21777,-3.5161 0.79261,-0.0718 1.43955,0 2.25029,0 0.81124,-0.0378 1.78583,-0.16252 2.61827,-0.13606 3.11448,0.0983 6.3885,0.5949 9.90081,1.68831 1.64138,-5.04075 2.86387,-10.65675 6.06033,-13.55943 -0.886,-1.30885 -1.95871,-2.42079 -3.25909,-3.29197 -0.0597,-0.0416 0.73421,-1.03256 0.53767,-1.30129 -0.0899,-0.12472 -1.13899,0.53027 -1.24021,0.38891 -0.42096,-0.58771 -0.89034,-1.25253 -1.01034,-1.32245 z m -22.76507,153.13927 c 0,0 0.77834,0.4248 0.58736,1.965 l 2.5705,9.1011 c 0.26608,0.9324 -1.82987,6.2449 -1.82987,7.2143 0,1.1505 1.92202,-2.0016 1.82987,-0.8549 -0.1096,1.3648 -0.94643,3.1986 -1.52322,4.4584 0.006,0.3552 -0.0128,0.7354 -0.0668,1.1516 l 1.58998,-1.0598 2.00946,17.229 7.54038,-0.1059 c -0.25814,-13.7204 -3.6805,-25.8073 -6.33846,-39.9091 z m -38.21864,-0.3326 c -0.5389,-0.042 -2.38501,3.6042 -3.10952,4.077 l 3.82868,-1.0231 4.1625,20.0254 c 0,0 -1.39655,2.3709 -1.34476,3.6741 0.0688,1.7325 1.48835,-0.8103 1.48835,-0.8103 0,0 -1.47054,4.8808 -1.37668,7.7805 0.0249,0.7733 1.68569,-1.595 1.68569,-1.595 l 1.73177,8.2394 7.39031,0.038 c -0.72051,-9.9538 -5.38256,-33.99752 -7.55987,-36.50594 -1.51954,-1.75062 -5.79461,-3.81446 -6.89647,-3.89716 z m 0.71916,3.0539 -3.44582,0.2683 c -0.36341,0.4158 -0.59954,0.7521 -0.38286,0.7533 0.51766,0 3.82868,-1.0235 3.82868,-1.0235 z m 38.69749,20.1513 c -0.14022,0.3515 -0.16551,0.5208 0.0219,0.3961 l 0.12525,-0.083 c -0.0433,-0.083 -0.0923,-0.1852 -0.1471,-0.3137 z"
     style="opacity:0.3;fill:#ffffff;fill-opacity:1;stroke:none;stroke-width:1.21005344;stroke-linecap:round;stroke-linejoin:round;stroke-miterlimit:4;stroke-dasharray:none;stroke-opacity:1" />
  <path
     id="path826-6"
     d="M 193.82617 57.765625 A 6.9162431 2.5721564 0 0 0 186.91016 60.337891 A 6.9162431 2.5721564 0 0 0 193.82617 62.910156 A 6.9162431 2.5721564 0 0 0 197.95898 62.396484 C 197.9229 61.016847 197.89004 59.633303 197.85742 58.25 A 6.9162431 2.5721564 0 0 0 193.82617 57.765625 z "
     style="fill:url(#radialGradient1050);fill-opacity:1;stroke:none;stroke-width:1.21005344;stroke-linecap:round;stroke-linejoin:round;stroke-miterlimit:4;stroke-dasharray:none;stroke-opacity:1;opacity:0.7" />
  <path
     id="path951"
     d="m 195.87879,139.88442 c 0.82557,-4.15368 -3.1663,-12.1291 -3.31752,-18.9971 1.68459,6.93524 5.0538,13.01901 8.11982,18.54453 z"
     style="fill:#000000;stroke:#000000;stroke-width:1.21;stroke-linecap:round;stroke-linejoin:round;stroke-miterlimit:4;stroke-dasharray:none;stroke-opacity:1" />
  <path
     id="path826-56"
     d="m 128.93191,98.89062 c -4.39956,-8.49676 -6.09959,-17.50791 -5.77856,-26.90381 0.0242,-0.71018 -1.46239,1.41921 -1.41532,0.7045 0.0555,-0.84132 1.64893,-4.5275 1.73508,-5.37487 0.0777,-0.7646 -1.86214,2.02054 -1.76008,1.2514 0.15798,-1.19092 2.3746,-5.9399 2.58865,-7.14141 1.82062,-10.22098 5.62222,-20.81915 10.60179,-31.64183 0.17337,-0.37795 -0.99753,-1.6868 -0.82134,-2.064 0.17019,0.0454 0.71534,0.35528 1.2398,0.6531 0.0805,0.0454 0.4656,-0.85984 0.54373,-0.81562 0.37704,0.21165 0.40434,1.34702 0.53083,1.38898 5.15723,1.71212 10.43433,5.94217 16.0831,17.97619 2.68253,-0.66369 5.36715,-1.3217 8.12423,-1.79906 0.78934,-0.13606 -0.71203,-1.19131 0.0909,-1.29411 0.56852,-0.0718 3.4375,0.7971 4.01421,0.74457 0.79264,-0.0718 -1.0978,-1.30696 -0.28701,-1.3338 0.81122,-0.0378 4.32367,1.15578 5.15611,1.18224 3.11444,0.0983 6.38789,0.5949 9.90025,1.68831 2.08792,-6.41234 3.49689,-13.75823 9.15537,-15.26097 0.25512,-0.068 -0.57581,-1.97178 -0.30312,-2.01525 0.12019,0.068 0.58954,0.73474 1.01054,1.32246 0.10129,0.13984 1.15049,-0.51175 1.24051,-0.38854 0.19654,0.26835 -0.59754,1.26048 -0.53786,1.30054 10.40795,6.97474 6.21282,29.36391 8.71918,44.67931 1.07274,1.92113 1.96006,3.85738 2.61577,5.81215 0.11792,0.3515 2.38145,2.35465 2.48414,2.70728 0.16327,0.56164 -1.84589,-0.52573 -1.72286,0.0378 0.18217,0.83603 2.47188,4.18771 2.55957,5.0313 0.0964,0.92599 -2.01956,-0.65537 -2.04586,0.27969 -0.18482,6.58129 -3.51485,13.4177 -11.60462,20.63962 0.94125,6.10658 1.69217,12.23282 2.26794,18.37757 0.034,0.38098 2.03131,3.60227 2.21397,4.25764 0.15987,0.57336 -1.50584,-1.44302 -1.29211,-0.768 0.67378,2.12825 1.42885,5.52567 1.5103,6.57751 0.0915,1.18148 -1.80264,-2.40718 -1.72369,-1.22494 0.0642,0.96491 1.7907,10.50331 1.84691,11.4686 0.0416,0.71471 -1.72853,-1.76126 -1.69134,-1.04618 0.7779,14.95256 0.64221,28.20696 -0.24718,41.82126 -0.0378,0.5627 1.04167,3.3592 1.00233,3.9235 -0.0416,0.5949 -1.20084,-1.0428 -1.24509,-0.446 -0.0522,0.7034 1.06083,4.0471 1.00475,4.7535 -0.0593,0.7457 -1.28784,-1.1455 -1.3513,-0.3957 -0.6311,7.4525 -1.47228,15.1234 -2.49857,23.3352 l -20.11287,0.2872 -2.00961,-17.2293 -1.93779,1.2918 c -0.73333,0.4891 1.74462,-3.4375 1.93779,-5.842 0.0922,-1.1467 -1.83013,2.0054 -1.83013,0.8553 0,-0.9694 2.09613,-6.2819 1.83013,-7.2143 l -3.15786,-11.0665 -6.29292,-0.4059 c 0,0 -1.25465,7.9162 -1.08255,14.7813 0.0648,2.5845 1.62854,3.7395 1.16552,6.9721 -0.13863,0.968 -0.68442,-2.0867 -1.61923,-1.7998 -0.47024,0.1436 0.42914,3.4526 0.21067,4.7573 -0.0931,0.5564 -1.38771,-1.2488 -1.44733,-0.5563 -0.51604,5.9935 0.0852,16.2625 -0.56932,16.3872 l -21.5177,-0.102 -1.73146,-8.2394 c 0,0 -1.66075,2.3683 -1.68579,1.595 -0.0939,-2.8997 1.37652,-7.7806 1.37652,-7.7806 0,0 -1.41934,2.5425 -1.4882,0.81 -0.0518,-1.3032 1.34502,-3.6737 1.34502,-3.6737 l -4.16296,-20.0258 c 0,0 -3.31098,1.0265 -3.82865,1.0235 -0.55901,0 1.87809,-2.2243 1.81339,-2.3392 -0.21441,-0.381 -3.7659,1.6301 -4.14266,1.6135 -0.45168,-0.038 1.52295,-1.8187 1.16438,-2.0942 -0.51997,-0.3992 -2.53263,1.4229 -3.18672,1.6006 -0.67233,0.1814 0.4163,-1.6142 0.4163,-1.6142 l -17.78159,1.3938 c 0,0 -1.32148,1.5013 -3.316836,1.5546 -0.491842,0 0.676248,-1.3119 0.676248,-1.3119 0,0 -3.410249,2.1524 -4.893929,2.0058 -0.606391,-0.061 0.82422,-1.6316 0.82422,-1.6316 l -11.394398,1.0476 c 0,0 0.147023,1.4812 -0.163881,1.6063 -0.3456,0.1399 -0.832051,0.1097 -1.033689,0.4249 -0.146306,0.2267 0.160365,0.5737 0.03024,0.8107 -0.142942,0.2608 -1.539931,-0.7907 -1.539931,-0.7907 l -0.939639,13.285 c -0.01134,5.9513 1.028791,3.351 1.12574,9.4519 -0.01134,0.7185 -1.933701,-2.4231 -1.947999,-0.923 -0.01776,1.8539 1.248057,3.3222 0.937689,5.4826 -0.10851,0.7555 -1.322872,-0.6172 -1.322872,-0.6172 l -0.566548,7.0311 -21.923697,-0.406 c -0.374816,-7.8104 -0.454175,-15.0629 -0.263169,-21.8052 0.0257,-0.9101 -1.378892,1.203 -1.343297,0.3099 0.03213,-0.8054 1.503685,-4.6182 1.543737,-5.4089 0.04415,-0.8726 -1.342258,0.4891 -1.288577,-0.3666 0.05775,-0.9195 1.556387,-4.0535 1.624989,-4.9523 0.783761,-10.269 2.270445,-19.2109 4.346649,-27.0402 0.225714,-0.8512 -1.479367,0.3363 -1.239859,-0.4868 0.137764,-0.4747 0.984212,-1.6842 1.686271,-2.736 0.187918,-0.2797 -1.428802,0.3628 -1.277942,0.1209 0.219062,-0.3515 2.176101,-1.55754 2.232522,-1.73669 8.86656,-28.13555 25.98223,-40.70135 45.029138,-49.62141 0.42789,-0.20032 -1.72698,-0.47093 -1.29722,-0.66747 0.53838,-0.24567 2.9442,-0.0605 3.48526,-0.30236 0.5752,-0.25701 -1.32425,-1.12101 -0.74634,-1.37272 0.55322,-0.24189 4.3014,-0.22678 4.85683,-0.46489 4.79329,-2.04321 9.66243,-3.94318 14.51202,-5.88018 z"
     style="fill:none;fill-opacity:1;stroke:#481800;stroke-width:1.21;stroke-linecap:round;stroke-linejoin:round;stroke-miterlimit:4;stroke-dasharray:none;stroke-opacity:1" />
  <path
     id="path840"
     d="m 165.56567,181.97445 c 3.02767,-0.3099 6.05296,-0.6244 8.95155,-1.3383 0.47119,-0.1172 -0.9894,2.1932 -0.52539,2.0545 0.50623,-0.1512 2.93631,-2.7534 3.4326,-2.9359 0.53239,-0.1965 -1.78329,3.9024 -1.26398,3.6654 0.39715,-0.1814 3.63216,-4.6893 4.02073,-4.8972 0.28763,-0.1549 -0.27137,3.9576 0.0113,3.7879 0.31899,-0.1928 2.448,-4.9554 2.76019,-5.1685 2.16529,-1.4801 3.19151,-3.2077 4.94188,-5.9913"
     style="fill:none;fill-opacity:1;stroke:#481800;stroke-width:1.21005344;stroke-linecap:round;stroke-linejoin:round;stroke-miterlimit:4;stroke-dasharray:none;stroke-opacity:1" />
  <path
     id="path900"
     d="m 179.47819,46.1114 c 1.36411,0.45468 2.71827,0.92939 4.03775,1.47326 0.34922,0.14363 0.48071,-1.21436 0.82461,-1.05978 0.17953,0.0794 0.57358,1.67018 0.75149,1.75408 0.61757,0.29103 0.72253,-2.76926 1.31686,-2.43099 0.27553,0.15874 0.38665,1.9389 0.88486,2.71068 0.19767,0.30614 0.75319,-1.50539 0.93366,-1.24007 0.25701,0.37796 0.12246,2.79194 0.27175,2.89399 0.94613,0.64932 1.8494,1.38406 2.69714,2.22992"
     style="fill:#f07e13;fill-opacity:1;stroke:#481800;stroke-width:1.21005344;stroke-linecap:round;stroke-linejoin:round;stroke-miterlimit:4;stroke-dasharray:none;stroke-opacity:1" />
  <path
     id="path1002"
     d="m 105.87053,132.31147 c -0.34273,-0.67692 -6.965003,5.41152 -6.612124,8.72012 0.05632,0.528 4.142404,-3.70847 3.981884,-3.2999 -0.42208,1.07489 -2.41662,3.26702 -2.44326,4.67905 -0.0193,1.0167 3.44814,-1.28466 2.69448,-0.60208 -0.41677,0.37796 -3.28693,3.69676 -3.27657,4.58533 0.009,0.80617 1.40478,0.0529 2.15374,-0.10205"
     style="fill:none;stroke:#481800;stroke-width:1.21005344;stroke-linecap:round;stroke-linejoin:round;stroke-miterlimit:4;stroke-dasharray:none;stroke-opacity:1" />
  <path
     id="path1002-7"
     d="m 161.89222,158.94735 c -0.69059,-0.3137 -1.67909,2.9151 0.66512,5.2762 0.37413,0.3779 1.14068,-3.9428 1.27101,-3.5233 0.34272,1.1025 0.34737,6.3787 0.90646,7.6755 0.24162,0.5605 1.66105,-5.8746 1.83912,-4.6515 0.0811,0.5567 0.47864,3.3785 1.04236,4.0653 0.5113,0.6236 0.97459,-2.0448 1.46094,-2.6355"
     style="fill:none;stroke:#481800;stroke-width:1.21;stroke-linecap:round;stroke-linejoin:round;stroke-miterlimit:4;stroke-dasharray:none;stroke-opacity:1" />
  <text
     id="text1023"
     y="255.7644"
     x="26.112036"
     style="font-style:normal;font-weight:normal;font-size:24.05994225px;line-height:1.25;font-family:sans-serif;letter-spacing:0px;word-spacing:0px;fill:#ffffff;fill-opacity:1;stroke:none;stroke-width:0.60149854;stroke-linecap:round;stroke-linejoin:round"
     xml:space="preserve"><tspan
       style="font-style:normal;font-variant:normal;font-weight:normal;font-stretch:normal;font-family:'Open Sans Condensed';-inkscape-font-specification:'Open Sans Condensed, ';fill:#ffffff;fill-opacity:1;stroke-width:0.60149854;stroke-linecap:round;stroke-linejoin:round"
       y="255.7644"
       x="26.112036"
       id="tspan1021">Fred the Red Panda</tspan></text>
  <ellipse
     ry="2.9722698"
     rx="7.3163562"
     cy="61.43198"
     cx="156.88123"
     id="path985"
     style="opacity:0.7;fill:url(#radialGradient1026);fill-opacity:1;stroke:none;stroke-width:1.51181102;stroke-linecap:round;stroke-linejoin:round;stroke-miterlimit:4;stroke-dasharray:none;stroke-opacity:1" />
  <path
     id="path867"
     d="m 145.09207,75.088324 c 3.50488,-4.347154 10.29716,-1.850567 7.62512,1.181356 -5.27642,5.987077 -7.14891,14.497915 -3.86626,25.77505 0.45477,1.56231 -1.34445,2.76401 -2.79229,0.2148 -4.81799,-8.483001 -5.24029,-21.870444 -0.96657,-27.171206 z"
     style="fill:#ffffff;stroke:none;stroke-width:1px;stroke-linecap:butt;stroke-linejoin:miter;stroke-opacity:1;opacity:0.5;filter:url(#filter877)" />
  <path
     id="path906"
     d="m 163.05442,135.09308 0.18163,24.88299 38.36372,-0.57605 -0.7668,-22.85391 z"
     style="fill:#333333;fill-opacity:1;stroke:#000000;stroke-width:1.21;stroke-linecap:round;stroke-linejoin:round;stroke-miterlimit:4;stroke-dasharray:none;stroke-opacity:1" />
  <path
     id="path908"
     d="m 163.05442,135.09308 -8.01149,-0.74094 0.51372,23.11743 7.6794,2.5065 z"
     style="fill:#4d4d4d;fill-opacity:1;stroke:#000000;stroke-width:1.21;stroke-linecap:round;stroke-linejoin:round;stroke-miterlimit:4;stroke-dasharray:none;stroke-opacity:1" />
  <path
     id="path910"
     d="m 155.04293,134.35214 38.75718,1.20907 7.03286,0.9849 -37.77855,-1.45303 z"
     style="fill:none;stroke:#000000;stroke-width:1.44698501;stroke-linecap:round;stroke-linejoin:round;stroke-miterlimit:4;stroke-dasharray:none;stroke-opacity:1" />
  <path
     id="rect914"
     d="m 182.93664,138.82512 c -5.20897,0.12066 -8.11207,4.83131 -8.38989,8.7817 -0.25062,5.59026 3.17841,9.27005 7.74161,9.77226 3.89593,0.47208 8.55532,1.62081 12.71777,1.81114 -4.56339,-0.50529 -7.93993,-5.28087 -7.68669,-10.87159 0.26551,-5.8091 4.34147,-10.34191 9.10397,-10.12434 0.11555,0.007 0.231,0.0186 0.34616,0.0318 l 0.007,-0.16168 z"
     style="opacity:1;fill:#4d4d4d;fill-opacity:1;stroke:#000000;stroke-width:1.21000004;stroke-linecap:round;stroke-linejoin:round;stroke-miterlimit:4;stroke-dasharray:none;stroke-opacity:1" />
  <path
     id="path912"
     d="m 196.42341,138.19429 a 8.6323163,10.529391 2.6180619 0 0 -9.10397,10.12434 8.6323163,10.529391 2.6180619 0 0 8.14203,10.91296 8.6323163,10.529391 2.6180619 0 0 9.10399,-10.12437 8.6323163,10.529391 2.6180619 0 0 -8.14205,-10.91293 z"
     style="opacity:1;fill:#333333;fill-opacity:1;stroke:#000000;stroke-width:1.21000004;stroke-linecap:round;stroke-linejoin:round;stroke-miterlimit:4;stroke-dasharray:none;stroke-opacity:1" />
  <path
     id="path949"
     d="m 127.67003,98.810073 c 4.78297,12.247487 11.5523,30.457067 27.83946,38.675357 l 6.59198,1.26397 c -6.04904,-2.888 0,0 -6.04904,-2.888 -14.94877,-7.56728 -22.12324,-23.22859 -28.3824,-37.051327 z"
     style="fill:#000000;stroke:#000000;stroke-width:1.21;stroke-linecap:round;stroke-linejoin:round;stroke-miterlimit:4;stroke-dasharray:none;stroke-opacity:1" />
  <ellipse
     transform="rotate(2.6180619)"
     ry="7.8477273"
     rx="5.7813473"
     cy="139.51143"
     cx="202.78654"
     id="path953"
     style="opacity:1;fill:url(#linearGradient961);fill-opacity:1;stroke:#000000;stroke-width:1.21000004;stroke-linecap:round;stroke-linejoin:round;stroke-miterlimit:4;stroke-dasharray:none;stroke-opacity:1" />
  <ellipse
     ry="1.6053768"
     rx="1.4769466"
     cy="140.81393"
     cx="169.27475"
     id="path963"
     style="opacity:1;fill:#ff0000;fill-opacity:1;stroke:#000000;stroke-width:1.21;stroke-linecap:round;stroke-linejoin:round;stroke-miterlimit:4;stroke-dasharray:none;stroke-opacity:1" />
  <path
     id="path967"
     d="m 177.9035,135.05851 0.34311,-5.67753 8.25259,0.3853 -0.18353,5.42065 z"
     style="fill:#2e2e2e;fill-opacity:1;stroke:#000000;stroke-width:1.21;stroke-linecap:butt;stroke-linejoin:miter;stroke-miterlimit:4;stroke-dasharray:none;stroke-opacity:1" />
  <path
     id="path969"
     d="m 178.38511,129.69655 c -3.85025,-1.57916 -2.8081,1.95704 -3.91711,5.36195 l 3.4355,1e-5 z"
     style="fill:#3e3e3e;fill-opacity:1;stroke:#000000;stroke-width:1.21;stroke-linecap:butt;stroke-linejoin:miter;stroke-miterlimit:4;stroke-dasharray:none;stroke-opacity:1" />
  <path
     id="path967-5"
     d="m 179.61489,134.00176 0.21892,-3.42014 5.26509,0.23209 -0.11707,3.26541 z"
     style="fill:#ffdd55;fill-opacity:1;stroke:#000000;stroke-width:1.21;stroke-linecap:butt;stroke-linejoin:miter;stroke-miterlimit:4;stroke-dasharray:none;stroke-opacity:1" />
</svg>
