<?xml version="1.0" encoding="UTF-8" standalone="no"?>
<svg
   xmlns:dc="http://purl.org/dc/elements/1.1/"
   xmlns:cc="http://creativecommons.org/ns#"
   xmlns:rdf="http://www.w3.org/1999/02/22-rdf-syntax-ns#"
   xmlns:svg="http://www.w3.org/2000/svg"
   xmlns="http://www.w3.org/2000/svg"
   id="svg8"
   version="1.1"
   viewBox="0 0 400 80"
   height="80"
   width="400">
  <defs
     id="defs2" />
  <metadata
     id="metadata5">
    <rdf:RDF>
      <cc:Work
         rdf:about="">
        <dc:format>image/svg+xml</dc:format>
        <dc:type
           rdf:resource="http://purl.org/dc/dcmitype/StillImage" />
        <dc:title></dc:title>
      </cc:Work>
    </rdf:RDF>
  </metadata>
  <g
     transform="translate(0,-511.16666)"
     id="layer1">
    <path
       id="flowRoot827"
       transform="translate(0,511.16666)"
       d="M 18.636719 20.615234 L 18.636719 67.162109 L 24.273438 67.162109 L 24.273438 20.615234 L 18.636719 20.615234 z M 175.63672 20.615234 L 175.63672 67.162109 L 181.27344 67.162109 L 181.27344 30.615234 L 181.72656 30.615234 L 207.0918 67.162109 L 212.54492 67.162109 L 212.54492 20.615234 L 207 20.615234 L 207 57.251953 L 206.54492 57.251953 L 181.0918 20.615234 L 175.63672 20.615234 z M 376.7832 20.615234 L 376.7832 67.162109 L 382.14844 67.162109 L 382.14844 20.615234 L 376.7832 20.615234 z M 74.648438 23.888672 L 74.648438 32.251953 L 69.375 32.251953 L 69.375 36.798828 L 74.648438 36.798828 L 74.648438 58.615234 C 74.648438 60.645537 75.117247 62.328776 76.056641 63.662109 C 77.011186 64.995443 78.209044 65.987157 79.648438 66.638672 C 81.102983 67.290187 82.586411 67.615234 84.101562 67.615234 C 85.101562 67.615234 85.928563 67.540187 86.580078 67.388672 C 87.231593 67.252308 87.737926 67.116832 88.101562 66.980469 L 87.011719 62.162109 L 86.101562 62.34375 C 85.722775 62.404356 85.239347 62.433594 84.648438 62.433594 C 83.860559 62.433594 83.110559 62.312737 82.398438 62.070312 C 81.701468 61.812737 81.124467 61.312737 80.669922 60.570312 C 80.230528 59.812737 80.011719 58.677261 80.011719 57.162109 L 80.011719 36.798828 L 87.466797 36.798828 L 87.466797 32.251953 L 80.011719 32.251953 L 80.011719 23.888672 L 74.648438 23.888672 z M 147.04492 31.707031 C 144.93886 31.707031 143.05339 32.244555 141.38672 33.320312 C 139.72005 34.39607 138.57629 35.798118 137.95508 37.525391 L 137.5918 37.525391 L 137.5918 32.251953 L 132.4082 32.251953 L 132.4082 67.162109 L 137.77344 67.162109 L 137.77344 45.070312 C 137.77344 42.721828 138.60677 40.775923 140.27344 39.230469 C 141.9401 37.669863 144.04634 36.888672 146.5918 36.888672 C 147.25846 36.888672 147.8418 36.9491 148.3418 37.070312 C 148.85695 37.176373 149.30285 37.328421 149.68164 37.525391 L 151.5 32.980469 C 150.95455 32.586529 150.31907 32.276101 149.5918 32.048828 C 148.86452 31.821555 148.01462 31.707031 147.04492 31.707031 z M 275.79492 31.707031 C 273.70401 31.707031 271.82487 32.244555 270.1582 33.320312 C 268.49154 34.39607 267.34144 35.798118 266.70508 37.525391 L 266.3418 37.525391 L 266.3418 32.251953 L 261.1582 32.251953 L 261.1582 67.162109 L 266.52344 67.162109 L 266.52344 45.070312 C 266.52344 42.706676 267.35677 40.752486 269.02344 39.207031 C 270.6901 37.661577 272.79634 36.888672 275.3418 36.888672 C 276.05392 36.888672 276.72692 36.942768 277.36328 37.048828 C 278.0148 37.139737 278.43146 37.206499 278.61328 37.251953 L 278.61328 31.798828 C 278.31025 31.768525 277.86435 31.74562 277.27344 31.730469 C 276.68253 31.715317 276.18886 31.707031 275.79492 31.707031 z M 50.601562 31.798828 C 47.965199 31.798828 45.815104 32.342685 44.148438 33.433594 C 42.481771 34.509351 41.238104 35.934304 40.419922 37.707031 L 39.966797 37.707031 L 39.966797 32.251953 L 34.783203 32.251953 L 34.783203 67.162109 L 40.148438 67.162109 L 40.148438 46.162109 C 40.148438 43.116655 40.988104 40.76675 42.669922 39.115234 C 44.366892 37.448568 46.496035 36.615234 49.056641 36.615234 C 51.541489 36.615234 53.495679 37.388139 54.919922 38.933594 C 56.344164 40.463897 57.056641 42.601326 57.056641 45.34375 L 57.056641 67.162109 L 62.419922 67.162109 L 62.419922 44.980469 C 62.419922 40.525923 61.330256 37.215495 59.148438 35.048828 C 56.981771 32.882161 54.131866 31.798828 50.601562 31.798828 z M 109.25 31.798828 C 106.09848 31.798828 103.3402 32.56978 100.97656 34.115234 C 98.628078 35.645537 96.794744 37.782966 95.476562 40.525391 C 94.173532 43.252663 93.523437 46.404711 93.523438 49.980469 C 93.523437 53.556226 94.173532 56.691702 95.476562 59.388672 C 96.794744 62.07049 98.667554 64.162109 101.0918 65.662109 C 103.53119 67.146958 106.43129 67.888672 109.79492 67.888672 C 113.34038 67.888672 116.34038 67.078243 118.79492 65.457031 C 121.24947 63.835819 122.8869 61.706676 123.70508 59.070312 L 118.52344 57.615234 C 117.84162 59.433416 116.74171 60.79794 115.22656 61.707031 C 113.71141 62.616122 111.90098 63.070312 109.79492 63.070312 C 106.64341 63.070312 104.06836 62.078598 102.06836 60.09375 C 100.08351 58.108902 99.029415 55.252663 98.908203 51.525391 L 124.25 51.525391 L 124.25 49.251953 C 124.25 45.994377 123.81871 43.252663 122.95508 41.025391 C 122.09144 38.798118 120.93111 37.010594 119.47656 35.662109 C 118.02202 34.298473 116.40945 33.313092 114.63672 32.707031 C 112.86399 32.100971 111.06818 31.798828 109.25 31.798828 z M 237.2168 31.798828 C 234.06528 31.798828 231.29871 32.548828 228.91992 34.048828 C 226.55629 35.548828 224.70833 37.653113 223.375 40.365234 C 222.05682 43.077356 221.39844 46.252308 221.39844 49.888672 C 221.39844 53.494732 222.05682 56.64678 223.375 59.34375 C 224.70833 62.04072 226.55629 64.138672 228.91992 65.638672 C 231.29871 67.138672 234.06528 67.888672 237.2168 67.888672 C 240.36831 67.888672 243.12464 67.138672 245.48828 65.638672 C 247.86707 64.138672 249.71502 62.04072 251.0332 59.34375 C 252.36654 56.64678 253.0332 53.494732 253.0332 49.888672 C 253.0332 46.252308 252.36654 43.077356 251.0332 40.365234 C 249.71502 37.653113 247.86707 35.548828 245.48828 34.048828 C 243.12464 32.548828 240.36831 31.798828 237.2168 31.798828 z M 300.0332 31.798828 C 297.76048 31.798828 295.81457 32.31978 294.19336 33.365234 C 292.57215 34.395537 291.39719 35.843395 290.66992 37.707031 L 290.2168 37.707031 L 290.2168 32.251953 L 285.0332 32.251953 L 285.0332 67.162109 L 290.39844 67.162109 L 290.39844 45.34375 C 290.39844 43.631629 290.76101 42.123343 291.48828 40.820312 C 292.23071 39.502131 293.20147 38.472893 294.39844 37.730469 C 295.61056 36.988045 296.9127 36.615234 298.30664 36.615234 C 300.33694 36.615234 301.99532 37.229759 303.2832 38.457031 C 304.57108 39.669152 305.2168 41.267105 305.2168 43.251953 L 305.2168 67.162109 L 310.66992 67.162109 L 310.66992 44.433594 C 310.66992 42.176018 311.34487 40.313447 312.69336 38.84375 C 314.04184 37.358902 315.94389 36.615234 318.39844 36.615234 C 320.30753 36.615234 321.96591 37.16933 323.375 38.275391 C 324.78409 39.381451 325.48828 41.223071 325.48828 43.798828 L 325.48828 67.162109 L 330.85156 67.162109 L 330.85156 43.798828 C 330.85156 39.692768 329.85985 36.669863 327.875 34.730469 C 325.89015 32.775923 323.33801 31.798828 320.2168 31.798828 C 317.7168 31.798828 315.57108 32.336352 313.7832 33.412109 C 311.99532 34.472715 310.65566 35.904001 309.76172 37.707031 L 309.39844 37.707031 C 308.5348 35.843395 307.32866 34.395537 305.7832 33.365234 C 304.2529 32.31978 302.33623 31.798828 300.0332 31.798828 z M 354.02344 31.798828 C 352.26586 31.798828 350.47638 32.040542 348.6582 32.525391 C 346.85517 32.995088 345.18851 33.828421 343.6582 35.025391 C 342.14305 36.207209 340.93253 37.859257 340.02344 39.980469 L 345.11328 41.798828 C 345.70419 40.526101 346.7271 39.328243 348.18164 38.207031 C 349.63619 37.085819 351.64447 36.525391 354.20508 36.525391 C 356.67478 36.525391 358.51444 37.146248 359.72656 38.388672 C 360.95384 39.631096 361.56836 41.37281 361.56836 43.615234 L 361.56836 43.798828 C 361.56836 44.662464 361.25793 45.26675 360.63672 45.615234 C 360.03066 45.963719 359.0599 46.213719 357.72656 46.365234 C 356.40838 46.501598 354.68957 46.707741 352.56836 46.980469 C 350.94715 47.19259 349.33262 47.480114 347.72656 47.84375 C 346.13565 48.192235 344.68146 48.721473 343.36328 49.433594 C 342.0451 50.145715 340.99296 51.131096 340.20508 52.388672 C 339.4172 53.631096 339.02344 55.251953 339.02344 57.251953 C 339.02344 59.52468 339.55268 61.464252 340.61328 63.070312 C 341.67389 64.661222 343.10517 65.881984 344.9082 66.730469 C 346.71123 67.563802 348.71952 67.980469 350.93164 67.980469 C 352.96194 67.980469 354.68271 67.676373 356.0918 67.070312 C 357.50089 66.464252 358.62808 65.728871 359.47656 64.865234 C 360.32505 64.001598 360.93129 63.19117 361.29492 62.433594 L 361.56836 62.433594 L 361.56836 67.162109 L 366.93164 67.162109 L 366.93164 44.162109 C 366.93164 41.389382 366.47745 39.176906 365.56836 37.525391 C 364.65927 35.873875 363.51551 34.638494 362.13672 33.820312 C 360.77308 33.002131 359.35642 32.464607 357.88672 32.207031 C 356.43217 31.934304 355.14465 31.798828 354.02344 31.798828 z M 109.25 36.615234 C 112.15909 36.615234 114.47781 37.594283 116.20508 39.548828 C 117.93235 41.488222 118.79492 43.934126 118.79492 46.888672 L 98.908203 46.888672 C 99.029415 45.085642 99.523082 43.404356 100.38672 41.84375 C 101.25036 40.267992 102.43164 39.003374 103.93164 38.048828 C 105.43164 37.094283 107.20455 36.615234 109.25 36.615234 z M 237.2168 36.615234 C 239.61074 36.615234 241.57955 37.238045 243.125 38.480469 C 244.67045 39.722893 245.81422 41.350083 246.55664 43.365234 C 247.29906 45.380386 247.66992 47.555339 247.66992 49.888672 C 247.66992 52.222005 247.29906 54.388672 246.55664 56.388672 C 245.81422 58.388672 244.67045 60.003196 243.125 61.230469 C 241.57955 62.457741 239.61074 63.070312 237.2168 63.070312 C 234.82286 63.070312 232.8521 62.457741 231.30664 61.230469 C 229.76119 60.003196 228.61742 58.388672 227.875 56.388672 C 227.13258 54.388672 226.76172 52.222005 226.76172 49.888672 C 226.76172 47.555339 227.13258 45.380386 227.875 43.365234 C 228.61742 41.350083 229.76119 39.722893 231.30664 38.480469 C 232.8521 37.238045 234.82286 36.615234 237.2168 36.615234 z M 361.56836 49.615234 L 361.56836 54.525391 C 361.56836 55.979936 361.18922 57.365412 360.43164 58.683594 C 359.68922 60.001776 358.58298 61.078776 357.11328 61.912109 C 355.65874 62.745443 353.87121 63.162109 351.75 63.162109 C 349.61364 63.162109 347.84902 62.691347 346.45508 61.751953 C 345.07629 60.797408 344.38672 59.389027 344.38672 57.525391 C 344.38672 56.161754 344.74929 55.086707 345.47656 54.298828 C 346.21899 53.495798 347.18975 52.895893 348.38672 52.501953 C 349.59884 52.092862 350.90098 51.797053 352.29492 51.615234 C 352.87068 51.539477 353.62068 51.449811 354.54492 51.34375 C 355.48432 51.222538 356.44679 51.085109 357.43164 50.933594 C 358.43164 50.766927 359.31078 50.577356 360.06836 50.365234 C 360.84109 50.137962 361.34109 49.887962 361.56836 49.615234 z "
       style="font-style:normal;font-variant:normal;font-weight:normal;font-stretch:normal;font-size:40px;line-height:1.25;font-family:Inter;-inkscape-font-specification:Inter;letter-spacing:0px;word-spacing:0px;fill:#000000;fill-opacity:1;stroke:none" />
  </g>
</svg>
