<?xml version="1.0" encoding="UTF-8" standalone="no"?>
<svg
   xmlns:dc="http://purl.org/dc/elements/1.1/"
   xmlns:cc="http://creativecommons.org/ns#"
   xmlns:rdf="http://www.w3.org/1999/02/22-rdf-syntax-ns#"
   xmlns:svg="http://www.w3.org/2000/svg"
   xmlns="http://www.w3.org/2000/svg"
   xmlns:xlink="http://www.w3.org/1999/xlink"
   width="74.533203"
   height="74.533203"
   viewBox="0 0 74.533203 74.533203"
   version="1.1"
   id="svg114">
  <metadata
     id="metadata118">
    <rdf:RDF>
      <cc:Work
         rdf:about="">
        <dc:format>image/svg+xml</dc:format>
        <dc:type
           rdf:resource="http://purl.org/dc/dcmitype/StillImage" />
        <dc:title>icon/color/svg/pixelfed-icon-color</dc:title>
      </cc:Work>
    </rdf:RDF>
  </metadata>
  <!-- Generator: Sketch 51.3 (57544) - http://www.bohemiancoding.com/sketch -->
  <title
     id="title2">icon/color/svg/pixelfed-icon-color</title>
  <desc
     id="desc4">Created with Sketch.</desc>
  <defs
     id="defs61">
    <rect
       id="path-1"
       x="0"
       y="0.11210762"
       width="50"
       height="49.775784" />
    <linearGradient
       x1="1"
       y1="0.55806792"
       x2="0"
       y2="0.60117739"
       id="linearGradient-3">
      <stop
         stop-color="#FF5C34"
         offset="0%"
         id="stop7" />
      <stop
         stop-color="#EB0256"
         offset="100%"
         id="stop9" />
    </linearGradient>
    <linearGradient
       x1="18.604218"
       y1="60.088772"
       x2="29.551889"
       y2="34.263325"
       id="linearGradient-4"
       gradientTransform="scale(1.2181633,0.82090802)"
       gradientUnits="userSpaceOnUse">
      <stop
         stop-color="#A63FDB"
         offset="0%"
         id="stop12" />
      <stop
         stop-color="#FF257E"
         offset="100%"
         id="stop14" />
    </linearGradient>
    <linearGradient
       x1="31.906258"
       y1="22.861416"
       x2="56.143276"
       y2="28.198187"
       id="linearGradient-5"
       gradientTransform="scale(0.87861868,1.1381502)"
       gradientUnits="userSpaceOnUse">
      <stop
         stop-color="#00FFF0"
         offset="0%"
         id="stop17" />
      <stop
         stop-color="#0087FF"
         offset="100%"
         id="stop19" />
    </linearGradient>
    <linearGradient
       x1="40.01442"
       y1="3.0503507"
       x2="21.610674"
       y2="22.693472"
       id="linearGradient-6"
       gradientTransform="scale(1.0479971,0.95420109)"
       gradientUnits="userSpaceOnUse">
      <stop
         stop-color="#17C934"
         offset="0%"
         id="stop22" />
      <stop
         stop-color="#03FF6E"
         offset="100%"
         id="stop24" />
    </linearGradient>
    <linearGradient
       x1="0.5"
       y1="1.1191301"
       x2="0.30560157"
       y2="0"
       id="linearGradient-7">
      <stop
         stop-color="#FFB000"
         offset="0%"
         id="stop27" />
      <stop
         stop-color="#FF7725"
         offset="100%"
         id="stop29" />
    </linearGradient>
    <path
       d="M 25.87962,24.663677 C 25.518751,17.862325 19.644178,12.637694 12.758394,12.994138 5.8726091,13.350581 0.58311968,19.153122 0.94398835,25.954474 l 0.010371,0.195465 c -0.0295871,-0.491682 -0.0445914,-0.987241 -0.0445914,-1.486262 0,-10.155941 6.21464645,-18.8781713 15.09259805,-22.6588956 l 0.523383,-0.2088675 c 6.393149,-2.55132802 13.669757,0.4995351 16.252757,6.8142936 2.583,6.3147585 -0.505736,13.5021415 -6.898886,16.0534695 z"
       id="path-8" />
    <path
       d="m 16.338766,1.8705335 0.186983,-0.07462 c 6.393149,-2.55132802 13.669757,0.4995351 16.252757,6.8142936 2.583,6.3147589 -0.505736,13.5021419 -6.898886,16.0534699 -0.05343,-1.007011 -0.227732,-1.979458 -0.50829,-2.904343 3.429966,-1.856689 5.75552,-5.45605 5.75552,-9.591913 0,-6.0367452 -4.954499,-10.9304937 -11.066184,-10.9304937 -1.305803,0 -2.558782,0.223396 -3.7219,0.6336062 z"
       id="path-9" />
    <linearGradient
       x1="16.690788"
       y1="19.195547"
       x2="57.873302"
       y2="21.720842"
       id="linearGradient-10"
       gradientTransform="scale(0.85441984,1.1703848)"
       gradientUnits="userSpaceOnUse">
      <stop
         stop-color="#9EE85D"
         offset="0%"
         id="stop34" />
      <stop
         stop-color="#0ED061"
         offset="100%"
         id="stop36" />
    </linearGradient>
    <path
       d="m 28.379451,9.2701483 0.186983,-0.07462 c 6.393149,-2.551328 13.669757,0.4995351 16.252757,6.8142937 2.583,6.314759 -0.505736,13.502142 -6.898886,16.05347 -0.05343,-1.007011 -0.227732,-1.979458 -0.50829,-2.904343 3.429966,-1.856689 5.75552,-5.45605 5.75552,-9.591913 0,-6.036745 -4.954499,-10.9304939 -11.066184,-10.9304939 -1.305803,0 -2.558782,0.223396 -3.7219,0.6336062 z"
       id="path-11" />
    <linearGradient
       x1="38.66045"
       y1="42.313534"
       x2="29.417906"
       y2="17.769199"
       id="linearGradient-12"
       gradientTransform="scale(0.85441985,1.1703848)"
       gradientUnits="userSpaceOnUse">
      <stop
         stop-color="#21EFE3"
         offset="0%"
         id="stop40" />
      <stop
         stop-color="#2598FF"
         offset="100%"
         id="stop42" />
    </linearGradient>
    <path
       d="m 25.135241,22.73235 0.186983,-0.07462 c 6.39315,-2.551328 13.669757,0.499535 16.252757,6.814293 2.583001,6.314759 -0.505736,13.502142 -6.898886,16.05347 -0.05343,-1.007011 -0.227731,-1.979458 -0.50829,-2.904343 3.429966,-1.856689 5.755521,-5.45605 5.755521,-9.591913 0,-6.036745 -4.9545,-10.930494 -11.066185,-10.930494 -1.305803,0 -2.558782,0.223396 -3.7219,0.633607 z"
       id="path-13" />
    <linearGradient
       x1="32.778084"
       y1="31.292349"
       x2="-5.737164"
       y2="34.564075"
       id="linearGradient-14"
       gradientTransform="scale(0.85441985,1.1703848)"
       gradientUnits="userSpaceOnUse">
      <stop
         stop-color="#A63FDB"
         offset="0%"
         id="stop46" />
      <stop
         stop-color="#FF257E"
         offset="100%"
         id="stop48" />
    </linearGradient>
    <path
       d="m 10.654093,23.764822 0.186983,-0.07462 c 6.393149,-2.551328 13.669757,0.499535 16.252757,6.814293 2.583,6.314759 -0.505736,13.502142 -6.898886,16.05347 -0.05343,-1.007011 -0.227732,-1.979458 -0.50829,-2.904343 3.429966,-1.856689 5.75552,-5.45605 5.75552,-9.591913 0,-6.036745 -4.954499,-10.930493 -11.066184,-10.930493 -1.305803,0 -2.558782,0.223396 -3.7219,0.633606 z"
       id="path-15" />
    <path
       d="m 5.5458544,10.697205 0.1869826,-0.07462 c 6.39315,-2.5513278 13.669757,0.499535 16.252757,6.814294 2.583,6.314758 -0.505736,13.502141 -6.898886,16.053469 -0.05343,-1.007011 -0.227732,-1.979458 -0.50829,-2.904342 3.429966,-1.856689 5.755521,-5.45605 5.755521,-9.591914 0,-6.036745 -4.9545,-10.930493 -11.0661847,-10.930493 -1.3058034,0 -2.5587821,0.223396 -3.7218999,0.633606 z"
       id="path-16" />
    <path
       d="m 35.631732,42.373098 h 4.544831 c 4.281413,0 7.752184,-3.36365 7.752184,-7.512922 0,-4.149273 -3.470771,-7.512923 -7.752184,-7.512923 h -6.55954 c -2.470046,0 -4.472413,1.940568 -4.472413,4.334379 v 16.869977 z"
       id="path-17" />
    <filter
       x="-0.266"
       y="-0.189"
       width="1.5319999"
       height="1.472"
       filterUnits="objectBoundingBox"
       id="filter-18">
      <feOffset
         dx="0"
         dy="1"
         in="SourceAlpha"
         result="shadowOffsetOuter1"
         id="feOffset54" />
      <feGaussianBlur
         stdDeviation="1.5"
         in="shadowOffsetOuter1"
         result="shadowBlurOuter1"
         id="feGaussianBlur56" />
      <feColorMatrix
         values="0 0 0 0 0   0 0 0 0 0   0 0 0 0 0  0 0 0 0.298686594 0"
         type="matrix"
         in="shadowBlurOuter1"
         id="feColorMatrix58" />
    </filter>
    <linearGradient
       xlink:href="#linearGradient-3"
       id="linearGradient937"
       x1="30.973358"
       y1="27.509178"
       x2="1.1089396"
       y2="28.796618"
       gradientTransform="scale(0.83554453,1.1968243)"
       gradientUnits="userSpaceOnUse" />
    <linearGradient
       xlink:href="#linearGradient-7"
       id="linearGradient939"
       x1="15.185128"
       y1="33.220253"
       x2="9.5916662"
       y2="1.0193164"
       gradientTransform="scale(1.1392952,0.87773565)"
       gradientUnits="userSpaceOnUse" />
    <linearGradient
       xlink:href="#linearGradient-7"
       id="linearGradient941"
       x1="15.185128"
       y1="33.220253"
       x2="9.5916662"
       y2="1.0193164"
       gradientTransform="scale(1.1392952,0.87773565)"
       gradientUnits="userSpaceOnUse" />
    <linearGradient
       xlink:href="#linearGradient-7"
       id="linearGradient943"
       x1="15.185128"
       y1="33.220253"
       x2="9.5916662"
       y2="1.0193164"
       gradientTransform="scale(1.1392952,0.87773565)"
       gradientUnits="userSpaceOnUse" />
    <linearGradient
       xlink:href="#linearGradient-7"
       id="linearGradient945"
       x1="29.276991"
       y1="23.492514"
       x2="25.329012"
       y2="0.76444119"
       gradientTransform="scale(0.85441984,1.1703848)"
       gradientUnits="userSpaceOnUse" />
    <linearGradient
       xlink:href="#linearGradient-3"
       id="linearGradient947"
       x1="26.799479"
       y1="19.639755"
       x2="6.4907837"
       y2="20.515251"
       gradientTransform="scale(0.85441985,1.1703848)"
       gradientUnits="userSpaceOnUse" />
  </defs>
  <g
     id="Page-1"
     transform="translate(12.27485,12.36159)"
     style="fill:none;fill-rule:evenodd;stroke:none;stroke-width:1">
    <g
       id="icon-copy-9">
      <g
         id="Group">
        <mask
           id="mask-2"
           fill="white">
          <use
             xlink:href="#path-1"
             id="use63"
             x="0"
             y="0"
             width="100%"
             height="100%" />
        </mask>
        <g
           id="Rectangle" />
        <g
           id="Group-12"
           mask="url(#mask-2)">
          <g
             transform="translate(-12.598536,-12.100617)"
             id="g108">
            <g
               id="Group-5"
               transform="rotate(40,14.707207,46.948765)"
               style="fill-rule:evenodd;stroke-width:1">
              <path
                 d="m 25.87962,24.663677 c -6.690416,-1.647654 -13.466339,2.373809 -15.134447,8.982189 -1.6681085,6.60838 2.403277,13.301217 9.093693,14.948872 l 0.506171,0.124655 C 9.690881,46.338007 1.6209996,37.228229 0.95435936,26.149938 l -0.010371,-0.195464 C 0.58311968,19.153122 5.8726091,13.350581 12.758394,12.994138 19.644178,12.637694 25.518751,17.862325 25.87962,24.663677 Z"
                 id="Combined-Shape"
                 style="fill:url(#linearGradient937)" />
              <path
                 d="m 25.87962,24.663677 c -3.551308,5.837898 -1.638912,13.414052 4.271458,16.921815 5.910369,3.507763 13.580574,1.618816 17.131882,-4.219082 l 0.23527,-0.386753 c -4.315115,7.380735 -12.389614,12.347697 -21.63861,12.347697 -1.902025,0 -3.754379,-0.210055 -5.534583,-0.607961 L 19.838866,48.594738 C 13.14845,46.947083 9.0770645,40.254246 10.745173,33.645866 12.413281,27.037486 19.189204,23.016023 25.87962,24.663677 Z"
                 id="Combined-Shape-Copy-6"
                 style="fill:url(#linearGradient-4)" />
              <path
                 d="m 25.87962,24.663677 c 4.432171,5.217289 12.307108,5.897808 17.589163,1.519983 5.282056,-4.377824 5.971024,-12.1562 1.538853,-17.3734889 L 44.906151,8.6907085 c 3.706614,4.3033865 5.94332,9.8801755 5.94332,15.9729685 0,4.485786 -1.21242,8.691868 -3.331241,12.31598 L 47.28296,37.36641 C 43.731652,43.204308 36.061447,45.093255 30.151078,41.585492 24.240708,38.077729 22.328312,30.501575 25.87962,24.663677 Z"
                 id="Combined-Shape-Copy-5"
                 style="fill:url(#linearGradient-5)" />
              <path
                 d="M 25.87962,24.663677 C 32.27277,22.112349 35.361506,14.924966 32.778506,8.6102075 30.195506,2.295449 22.918898,-0.75541412 16.525749,1.7959139 L 16.002366,2.0047814 C 19.031719,0.71471464 22.371168,0 25.87962,0 33.501659,0 40.326061,3.373215 44.906151,8.6907085 l 0.101485,0.1194626 C 49.439807,14.02746 48.750839,21.805836 43.468783,26.18366 38.186728,30.561485 30.311791,29.880966 25.87962,24.663677 Z"
                 id="Combined-Shape-Copy-4"
                 style="fill:url(#linearGradient-6)" />
              <g
                 id="Combined-Shape-Copy-3"
                 style="fill:url(#linearGradient943)">
                <use
                   xlink:href="#path-8"
                   id="use71"
                   style="fill:url(#linearGradient939)"
                   x="0"
                   y="0"
                   width="100%"
                   height="100%" />
                <use
                   style="mix-blend-mode:multiply;fill:url(#linearGradient941);fill-opacity:0.1"
                   xlink:href="#path-8"
                   id="use73"
                   x="0"
                   y="0"
                   width="100%"
                   height="100%" />
              </g>
              <g
                 id="g80"
                 style="opacity:0.5049107">
                <use
                   xlink:href="#path-9"
                   id="use76"
                   style="fill:url(#linearGradient945)"
                   x="0"
                   y="0"
                   width="100%"
                   height="100%" />
                <use
                   style="mix-blend-mode:overlay;fill:#000000;fill-opacity:0.49617866"
                   xlink:href="#path-9"
                   id="use78"
                   x="0"
                   y="0"
                   width="100%"
                   height="100%" />
              </g>
              <g
                 id="Combined-Shape-Copy-7"
                 transform="rotate(72,37.055527,20.178799)"
                 style="opacity:0.54425222">
                <use
                   xlink:href="#path-11"
                   id="use82"
                   style="fill:url(#linearGradient-10)"
                   x="0"
                   y="0"
                   width="100%"
                   height="100%" />
                <use
                   style="mix-blend-mode:overlay;fill:#000000;fill-opacity:0.49988679"
                   xlink:href="#path-11"
                   id="use84"
                   x="0"
                   y="0"
                   width="100%"
                   height="100%" />
              </g>
              <g
                 id="Combined-Shape-Copy-8"
                 transform="rotate(143,33.811317,33.641001)"
                 style="opacity:0.56222097">
                <use
                   xlink:href="#path-13"
                   id="use87"
                   style="fill:url(#linearGradient-12)"
                   x="0"
                   y="0"
                   width="100%"
                   height="100%" />
                <use
                   style="mix-blend-mode:overlay;fill:#000000"
                   xlink:href="#path-13"
                   id="use89"
                   x="0"
                   y="0"
                   width="100%"
                   height="100%" />
              </g>
              <g
                 id="Combined-Shape-Copy-9"
                 transform="rotate(-143,19.330169,34.673473)"
                 style="opacity:0.5841518">
                <use
                   xlink:href="#path-15"
                   id="use92"
                   style="fill:url(#linearGradient-14)"
                   x="0"
                   y="0"
                   width="100%"
                   height="100%" />
                <use
                   style="mix-blend-mode:overlay;fill:#000000;fill-opacity:0.50308539"
                   xlink:href="#path-15"
                   id="use94"
                   x="0"
                   y="0"
                   width="100%"
                   height="100%" />
              </g>
              <g
                 id="Combined-Shape-Copy-10"
                 transform="rotate(-71,14.22193,21.605855)"
                 style="opacity:0.18013395">
                <use
                   xlink:href="#path-16"
                   id="use97"
                   style="fill:url(#linearGradient947)"
                   x="0"
                   y="0"
                   width="100%"
                   height="100%" />
                <use
                   style="mix-blend-mode:multiply;fill:#000000;fill-opacity:0.77284307"
                   xlink:href="#path-16"
                   id="use99"
                   x="0"
                   y="0"
                   width="100%"
                   height="100%" />
              </g>
            </g>
            <g
               id="Path-6-Copy-2"
               style="fill-rule:nonzero">
              <use
                 xlink:href="#path-17"
                 id="use103"
                 style="fill:#000000;fill-opacity:1;filter:url(#filter-18)"
                 x="0"
                 y="0"
                 width="100%"
                 height="100%" />
              <use
                 xlink:href="#path-17"
                 id="use105"
                 style="fill:#ffffff"
                 x="0"
                 y="0"
                 width="100%"
                 height="100%" />
            </g>
          </g>
        </g>
      </g>
    </g>
  </g>
  <rect
     ry="3.6289096"
     style="opacity:1;fill:none;fill-opacity:1;fill-rule:evenodd;stroke:#9a9996;stroke-width:1;stroke-linecap:butt;stroke-linejoin:miter;stroke-miterlimit:4;stroke-dasharray:2, 1;stroke-dashoffset:0;stroke-opacity:1;paint-order:normal"
     id="rect968"
     width="73.53302"
     height="73.53302"
     x="0.50009125"
     y="0.50009185" />
</svg>
