<?xml version="1.0" encoding="utf-8"?>
<!-- Generator: Adobe Illustrator 25.2.1, SVG Export Plug-In . SVG Version: 6.00 Build 0)  -->
<svg version="1.1"
	 id="svg114" xmlns:cc="http://creativecommons.org/ns#" xmlns:dc="http://purl.org/dc/elements/1.1/" xmlns:inkscape="http://www.inkscape.org/namespaces/inkscape" xmlns:rdf="http://www.w3.org/1999/02/22-rdf-syntax-ns#" xmlns:sodipodi="http://sodipodi.sourceforge.net/DTD/sodipodi-0.dtd" xmlns:svg="http://www.w3.org/2000/svg"
	 xmlns="http://www.w3.org/2000/svg" xmlns:xlink="http://www.w3.org/1999/xlink" x="0px" y="0px" viewBox="0 0 300 300"
	 style="enable-background:new 0 0 300 300;" xml:space="preserve">
<style type="text/css">
	.st0{fill:none;stroke:#C0BFBC;stroke-dasharray:2,1;}
	.st1{fill:#F32848;}
	.st2{fill:#D332AC;}
	.st3{fill:#00C2F8;}
	.st4{fill:#0DE552;}
	.st5{fill:#FFA10A;}
	.st6{fill:#FFFFFF;}
</style>
<sodipodi:namedview  bordercolor="#666666" borderopacity="1" gridtolerance="10" guidetolerance="10" id="namedview84" inkscape:current-layer="svg114" inkscape:cx="177.05496" inkscape:cy="82.980987" inkscape:guide-bbox="true" inkscape:pageopacity="0" inkscape:pageshadow="2" inkscape:window-height="1016" inkscape:window-maximized="1" inkscape:window-width="1920" inkscape:window-x="0" inkscape:window-y="27" inkscape:zoom="2.2389646" objecttolerance="10" pagecolor="#ffffff" showgrid="false" showguides="true">
	</sodipodi:namedview>
<desc  id="desc4">Created with Sketch.</desc>
<path id="rect968" class="st0" d="M15.3,0.8h269.9c7.7,0,14,6.3,14,14v269.9c0,7.7-6.3,14-14,14H15.3c-7.7,0-14-6.3-14-14V14.8
	C1.3,7,7.5,0.8,15.3,0.8z"/>
<g id="svg102">
	<g>
		<path id="path58" class="st1" d="M150.1,149.8c-16.5-22.6-48.2-27.8-70.6-11.6C57,154.5,52.2,186,68.7,208.6l1.3,1.7
			c-27-35.3-28.3-84.7-1.4-121l0.5-0.6c16.7-22.1,48.3-26.4,70.7-9.5S166.7,127.7,150.1,149.8z"/>
		<path id="path60" class="st2" d="M150.1,149.8c-26.3,8.9-40.2,37.5-30.9,63.9s38.1,40.5,64.4,31.6l1.7-0.6
			c-32.7,11.7-70.9,6.1-99.7-18.1c-5.9-5-11.1-10.5-15.7-16.4l-1.3-1.7C52.2,186,57,154.5,79.4,138.3
			C101.9,122,133.5,127.2,150.1,149.8z"/>
		<path id="path62" class="st3" d="M150.1,149.8c0.2,27.8,22.9,50.5,50.8,50.7c27.9,0.2,50.4-22.3,50.2-50.1l0-0.6
			c0.3,23.1-7.3,46.3-23.2,65.3c-11.7,14-26.5,23.9-42.6,29.7l-1.7,0.6c-26.3,8.9-55.2-5.3-64.4-31.6S123.7,158.7,150.1,149.8z"/>
		<path id="path64" class="st4" d="M150.1,149.8c26.6,8.8,55-5.6,63.4-32s-6.2-54.9-32.8-63.7l-2.2-0.7c12.8,3.9,25.1,10.4,36,19.6
			c23.7,19.9,36.2,48.3,36.6,76.8l0,0.6c0.2,27.8-22.3,50.3-50.2,50.1S150.2,177.7,150.1,149.8z"/>
		<path id="path66" class="st5" d="M150.1,149.8c16.7-22.1,12-53.8-10.4-70.6c-22.4-16.9-54-12.6-70.7,9.5l-0.5,0.6
			c1.2-1.6,2.4-3.2,3.7-4.7C98.8,52.9,141,42,178.5,53.4l2.2,0.7c26.6,8.8,41.3,37.3,32.8,63.7C205.1,144.3,176.6,158.6,150.1,149.8
			z"/>
		<path id="P_Letter" class="st6" d="M142.1,171.4h18.5c17.4,0,31.5-13.7,31.5-30.5c0-16.9-14.1-30.5-31.5-30.5h-26.7
			c-10,0-18.2,7.9-18.2,17.6v68.6L142.1,171.4z"/>
	</g>
</g>
<rect id="rect968-3" x="49" y="48.9" class="st0" width="202.1" height="201.8"/>
<path id="rect906" inkscape:connector-curvature="0" sodipodi:nodetypes="ccc" class="st0" d="M49,298.7v-48.1H1.3"/>
<path id="text912" d="M13.4,267.5c-1.3,0-2.3,0.5-3,1.6c-0.7,1.1-1.1,2.5-1.1,4.5c0,1.9,0.4,3.4,1.1,4.5c0.7,1.1,1.7,1.6,3,1.6
	s2.3-0.5,3-1.6c0.7-1.1,1.1-2.5,1.1-4.5c0-1.9-0.4-3.4-1.1-4.5C15.7,268.1,14.7,267.5,13.4,267.5z M27.9,267.5
	c-0.7,0-1.3,0.1-1.9,0.4c-0.5,0.3-1,0.7-1.3,1.2s-0.5,1.1-0.5,1.8h1.4c0-0.7,0.2-1.2,0.6-1.6c0.4-0.4,0.9-0.6,1.6-0.6
	c0.6,0,1.2,0.2,1.6,0.5c0.4,0.4,0.7,0.9,0.7,1.5c0,0.4-0.1,0.7-0.2,1c-0.1,0.3-0.4,0.7-0.7,1c-0.3,0.4-0.7,0.8-1.1,1.3l-3.9,4.3v1
	h7.4v-1.3h-5.5v-0.1l2.6-2.8c0.7-0.7,1.2-1.3,1.6-1.8c0.4-0.5,0.7-1,0.8-1.4c0.2-0.4,0.2-0.8,0.2-1.3c0-0.6-0.1-1.2-0.5-1.7
	s-0.7-0.9-1.3-1.2S28.5,267.5,27.9,267.5z M149.8,267.5c-1.3,0-2.3,0.5-3,1.6c-0.7,1.1-1.1,2.5-1.1,4.5c0,1.9,0.4,3.4,1.1,4.5
	c0.7,1.1,1.7,1.6,3,1.6c1.3,0,2.3-0.5,3-1.6c0.7-1.1,1.1-2.5,1.1-4.5c0-1.9-0.4-3.4-1.1-4.5C152.1,268.1,151.1,267.5,149.8,267.5z
	 M160,267.5c-1.3,0-2.3,0.5-3,1.6c-0.7,1.1-1.1,2.5-1.1,4.5c0,1.9,0.4,3.4,1.1,4.5c0.7,1.1,1.7,1.6,3,1.6c1.3,0,2.3-0.5,3-1.6
	c0.7-1.1,1.1-2.5,1.1-4.5c0-1.9-0.4-3.4-1.1-4.5C162.3,268.1,161.3,267.5,160,267.5z M34.9,267.7l-0.7,5.8l1.3,0.2
	c0.2-0.2,0.6-0.3,0.9-0.4c0.4-0.1,0.8-0.2,1.1-0.2c0.5,0,0.9,0.1,1.3,0.4s0.7,0.6,0.9,1c0.2,0.4,0.3,0.9,0.3,1.4
	c0,0.5-0.1,1-0.3,1.4c-0.2,0.4-0.5,0.7-0.9,0.9c-0.4,0.2-0.8,0.3-1.3,0.3c-0.6,0-1.1-0.2-1.6-0.5c-0.4-0.3-0.7-0.8-0.7-1.3H34
	c0,0.6,0.2,1.1,0.5,1.6s0.8,0.8,1.3,1.1s1.1,0.4,1.8,0.4c0.7,0,1.4-0.2,2-0.5c0.6-0.3,1-0.8,1.4-1.4c0.3-0.6,0.5-1.3,0.5-2
	c0-0.8-0.2-1.4-0.5-2c-0.3-0.6-0.8-1.1-1.3-1.4c-0.6-0.3-1.2-0.5-1.9-0.5c-0.4,0-0.8,0.1-1.1,0.2s-0.7,0.3-0.9,0.5h-0.1l0.4-3.5H41
	v-1.3H34.9z M137.5,267.7c0,0-0.1,0.1-0.2,0.3c-0.1,0.2-0.3,0.4-0.5,0.6c-0.2,0.2-0.5,0.4-0.8,0.6s-0.7,0.2-1.2,0.2v1.2
	c0.5,0,0.9-0.1,1.2-0.2c0.4-0.1,0.6-0.2,0.9-0.4c0.2-0.1,0.4-0.3,0.4-0.4h0.1v9.7h1.4v-11.8H137.5z M13.4,268.8c0.9,0,1.5,0.4,2,1.3
	c0.5,0.8,0.7,2,0.7,3.6c0,1.5-0.2,2.7-0.7,3.5s-1.1,1.2-2,1.2c-0.9,0-1.5-0.4-2-1.2c-0.5-0.8-0.7-2-0.7-3.5c0-1.5,0.2-2.7,0.7-3.6
	C11.9,269.2,12.6,268.8,13.4,268.8z M149.8,268.8c0.9,0,1.5,0.4,2,1.3c0.5,0.8,0.7,2,0.7,3.6c0,1.5-0.2,2.7-0.7,3.5s-1.1,1.2-2,1.2
	c-0.9,0-1.5-0.4-2-1.2c-0.5-0.8-0.7-2-0.7-3.5c0-1.5,0.2-2.7,0.7-3.6C148.3,269.2,149,268.8,149.8,268.8z M160,268.8
	c0.9,0,1.5,0.4,2,1.3c0.5,0.8,0.7,2,0.7,3.6c0,1.5-0.2,2.7-0.7,3.5s-1.1,1.2-2,1.2c-0.9,0-1.5-0.4-2-1.2c-0.5-0.8-0.7-2-0.7-3.5
	c0-1.5,0.2-2.7,0.7-3.6C158.4,269.2,159.1,268.8,160,268.8z M20.7,277.5c-0.3,0-0.5,0.1-0.7,0.3s-0.3,0.4-0.3,0.7s0.1,0.5,0.3,0.7
	s0.4,0.3,0.7,0.3s0.5-0.1,0.7-0.3s0.3-0.4,0.3-0.7s-0.1-0.5-0.3-0.7S21,277.5,20.7,277.5z M143.2,277.5c-0.3,0-0.5,0.1-0.7,0.3
	c-0.2,0.2-0.3,0.4-0.3,0.7s0.1,0.5,0.3,0.7c0.2,0.2,0.4,0.3,0.7,0.3s0.5-0.1,0.7-0.3s0.3-0.4,0.3-0.7s-0.1-0.5-0.3-0.7
	S143.5,277.5,143.2,277.5z"/>
</svg>
