<?xml version="1.0" encoding="UTF-8" standalone="no"?>
<svg xmlns:dc="http://purl.org/dc/elements/1.1/" xmlns:cc="http://creativecommons.org/ns#" xmlns:rdf="http://www.w3.org/1999/02/22-rdf-syntax-ns#" xmlns:svg="http://www.w3.org/2000/svg" xmlns="http://www.w3.org/2000/svg" xmlns:xlink="http://www.w3.org/1999/xlink" version="1.1" width="300" height="300">
  <metadata>
    <rdf:RDF>
      <cc:Work rdf:about="">
        <dc:format>image/svg+xml</dc:format>
        <dc:type rdf:resource="http://purl.org/dc/dcmitype/StillImage"/>
        <dc:title/>
      </cc:Work>
    </rdf:RDF>
  </metadata>
  <defs>
    <path id="drop_shape"
          d="M 25,25 C 20.77843,19.646166 13.002814,18.371306 7.4771766,22.36138 1.9515387,26.351453 0.76832601,34.0955 4.8343958,39.658194 l 0.3076235,0.420851 C -1.4888222,31.406438 -1.8150576,19.240724 4.7952638,10.325752 l 0.1176971,-0.1564 C 9.0083499,4.727252 16.349349,3.1924903 22.245111,7.492469 27.815889,11.555425 29.094652,19.5568 24.999264,24.9989 Z"/>
    <path id="drop_seam"
          d="M 4.6509281,10.522194 5.0518818,9.9826897 C 8.6356397,5.1605552 15.78973,3.0336301 22.058507,7.313428 27.42354,10.976225 29.394263,19.240316 24.999095,25.00276 24.35604,24.171629 23.693795,23.538046 22.974862,22.941509 24.829588,19.455111 24.872048,15.023616 22.610184,11.454011 19.308744,6.2437786 12.486566,4.7413237 7.3724229,8.0981786 c -1.092672,0.717216 -2.054107,1.542418 -2.803043,2.5353084 z"/>
    <path id="center_logo_shape" d="m 22.885879,30.523071 h 4.544837 c 4.281419,0 7.752195,-3.36365 7.752195,-7.512922 0,-4.149273 -3.470776,-7.512923 -7.752195,-7.512923 h -6.559549 c -2.47005,0 -4.47242,1.940568 -4.47242,4.334379 v 16.869977 z"/>
    <linearGradient id="drop_shape_red_gradient" gradientTransform="rotate(45 0.5 0.5)">
      <stop stop-color="#ea0d30" offset="0"/>
      <stop stop-color="#fbafbb" offset="1"/>
    </linearGradient>
    <linearGradient id="drop_seam_red_gradient" gradientTransform="rotate(60 0.5 0.5)">
      <stop stop-color="#ea0d30" offset="0"/>
      <stop stop-color="#f54a65" offset="1"/>
    </linearGradient>
    <linearGradient id="drop_shape_yellow_gradient" gradientTransform="rotate(45 0.5 0.5)">
      <stop stop-color="#e58d00" offset="0"/>
      <stop stop-color="#ffd899" offset="1"/>
    </linearGradient>
    <linearGradient id="drop_seam_yellow_gradient" gradientTransform="rotate(60 0.5 0.5)">
      <stop stop-color="#e58d00" offset="0"/>
      <stop stop-color="#ffaf2e" offset="1"/>
    </linearGradient>
    <linearGradient id="drop_shape_green_gradient" gradientTransform="rotate(45 0.5 0.5)">
      <stop stop-color="#0bc346" offset="0"/>
      <stop stop-color="#89f8ac" offset="1"/>
    </linearGradient>
    <linearGradient id="drop_seam_green_gradient" gradientTransform="rotate(60 0.5 0.5)">
      <stop stop-color="#0bc346" offset="0"/>
      <stop stop-color="#23f365" offset="1"/>
    </linearGradient>
    <linearGradient id="drop_shape_blue_gradient" gradientTransform="rotate(45 0.5 0.5)">
      <stop stop-color="#00a6d4" offset="0"/>
      <stop stop-color="#88e5ff" offset="1"/>
    </linearGradient>
    <linearGradient id="drop_seam_blue_gradient" gradientTransform="rotate(60 0.5 0.5)">
      <stop stop-color="#00a6d4" offset="0"/>
      <stop stop-color="#1dceff" offset="1"/>
    </linearGradient>
    <linearGradient id="drop_shape_purple_gradient" gradientTransform="rotate(45 0.5 0.5)">
      <stop stop-color="#b92896" offset="0"/>
      <stop stop-color="#eca8dc" offset="1"/>
    </linearGradient>
    <linearGradient id="drop_seam_purple_gradient" gradientTransform="rotate(60 0.5 0.5)">
      <stop stop-color="#b92896" offset="0"/>
      <stop stop-color="#d94fb8" offset="1"/>
    </linearGradient>
    <filter id="outset_shadow" x="-2" y="-2" width="4" height="4">
      <feFlood flood-color="#0006"/>
      <feComposite operator="in" in2="SourceAlpha" in="shadowOffset"/>
      <feGaussianBlur stdDeviation="1"/>
      <feOffset result="shadowOffset" in="shadowOffset" dx="1" dy="1.2"/>

      <feComposite operator="out" in2="SourceGraphic" in="shadowOffset"/>
      <feComposite operator="over" in2="shadowOffset" in="SourceGraphic"/>
    </filter>
    <filter id="inset_shadow">
      <feFlood flood-color="#0006"/>
      <feComposite operator="out" in2="SourceAlpha" in="shadowOffset"/>
      <feGaussianBlur stdDeviation="5"/>
      <feOffset result="shadowOffset" in="shadowOffset" dx="-5" dy="-5"/>

      <feFlood flood-color="#fff3"/>
      <feComposite operator="out" in2="SourceAlpha" in="lightOffset"/>
      <feGaussianBlur stdDeviation="2"/>
      <feOffset result="lightOffset" in="lightOffset" dx="2" dy="2"/>
      
      <feComposite operator="atop" in2="SourceGraphic" in="shadowOffset"/>
      <feComposite operator="atop" in2="result" in="shadowOffset"/>
      <feComposite operator="atop" in2="result" in="lightOffset"/>
    </filter>
  </defs>
  <g id="logo" transform="translate(50,50) scale(4)">
    <g id="wheel_filter" filter="url(#inset_shadow)">
      <g id="wheel">
        <g id="drop_red" transform="rotate(0,25,25)">
          <use id="drop_shape_red" xlink:href="#drop_shape" style="fill:url(#drop_shape_red_gradient)"/>
          <use id="drop_seam_red" xlink:href="#drop_seam" style="fill:url(#drop_seam_red_gradient)"/>
        </g>
        <g id="drop_yellow" transform="rotate(72,25,25)">
          <use id="drop_shape_yellow" xlink:href="#drop_shape" style="fill:url(#drop_shape_yellow_gradient)"/>
          <use id="drop_seam_yellow" xlink:href="#drop_seam" style="fill:url(#drop_seam_yellow_gradient)"/>
        </g>
        <g id="drop_green" transform="rotate(144,25,25)">
          <use id="drop_shape_green" xlink:href="#drop_shape" style="fill:url(#drop_shape_green_gradient)"/>
          <use id="drop_seam_green" xlink:href="#drop_seam" style="fill:url(#drop_seam_green_gradient)"/>
        </g>
        <g id="drop_blue" transform="rotate(216,25,25)">
          <use id="drop_shape_blue" xlink:href="#drop_shape" style="fill:url(#drop_shape_blue_gradient)"/>
          <use id="drop_seam_blue" xlink:href="#drop_seam" style="fill:url(#drop_seam_blue_gradient)"/>
        </g>
        <g id="drop_purple" transform="rotate(288,25,25)">
          <use id="drop_shape_purple" xlink:href="#drop_shape" style="fill:url(#drop_shape_purple_gradient)"/>
          <use id="drop_seam_purple" xlink:href="#drop_seam" style="fill:url(#drop_seam_purple_gradient)"/>
        </g>
      </g>
    </g>
    <g id="center_logo">
      <use id="center_logo_use" xlink:href="#center_logo_shape" style="fill:#ffffff;filter:url(#outset_shadow)"/>
    </g>
  </g>
  <rect
     ry="14.026531"
     style="opacity:1;fill:none;fill-opacity:1;fill-rule:evenodd;stroke:#c0bfbc;stroke-width:1;stroke-linecap:butt;stroke-linejoin:miter;stroke-miterlimit:4;stroke-dasharray:2, 1;stroke-dashoffset:0;stroke-opacity:1;paint-order:normal"
     id="rect968"
     width="297.97388"
     height="297.97388"
     x="1.2631528"
     y="0.76296997" />
  <rect
     ry="0"
     style="opacity:1;fill:none;fill-opacity:1;fill-rule:evenodd;stroke:#c0bfbc;stroke-width:1;stroke-linecap:butt;stroke-linejoin:miter;stroke-miterlimit:4;stroke-dasharray:2, 1;stroke-dashoffset:0;stroke-opacity:1;paint-order:normal"
     id="rect968-3"
     width="202.1046"
     height="201.78877"
     x="49.038212"
     y="48.857193" />
  <path
     style="opacity:1;fill:none;fill-opacity:1;fill-rule:evenodd;stroke:#c0bfbc;stroke-width:1;stroke-linecap:butt;stroke-linejoin:miter;stroke-miterlimit:4;stroke-dasharray:2, 1;stroke-dashoffset:0;stroke-opacity:1;paint-order:normal"
     d="m 49.038212,298.73685 0,-48.09088 -47.7750592,0"
     id="rect906"/>
  <path
     style="font-style:normal;font-weight:normal;font-size:162.08982849px;line-height:1.25;font-family:sans-serif;letter-spacing:0px;word-spacing:0px;fill:#000000;fill-opacity:1;stroke:none;stroke-width:4.05224609;"
     d="M 13.419922 267.53711 C 12.130571 267.53711 11.125719 268.06987 10.404297 269.13281 C 9.6828743 270.19576 9.3222656 271.68275 9.3222656 273.59375 C 9.3222656 275.5201 9.6788302 277.00918 10.392578 278.06445 C 11.110163 279.11973 12.119059 279.64844 13.419922 279.64844 C 14.720785 279.64844 15.727658 279.11973 16.441406 278.06445 C 17.158991 277.00918 17.519531 275.5201 17.519531 273.59375 C 17.519531 271.68275 17.158923 270.19576 16.4375 269.13281 C 15.716077 268.06987 14.709273 267.53711 13.419922 267.53711 z M 27.853516 267.53711 C 27.166629 267.53711 26.54672 267.68297 25.994141 267.97461 C 25.445399 268.26625 25.01186 268.67343 24.693359 269.19531 C 24.374859 269.71719 24.214844 270.32295 24.214844 271.01367 L 25.574219 271.01367 C 25.574219 270.34213 25.774812 269.80324 26.177734 269.39648 C 26.580657 268.98589 27.123592 268.78125 27.806641 268.78125 C 28.447479 268.78125 28.984279 268.96358 29.414062 269.32812 C 29.847684 269.69267 30.064453 270.18499 30.064453 270.80664 C 30.064453 271.16735 29.991523 271.51374 29.845703 271.84375 C 29.703721 272.16993 29.484929 272.5184 29.189453 272.89062 C 28.893977 273.25901 28.517192 273.69255 28.060547 274.19141 L 24.169922 278.45117 L 24.169922 279.48633 L 31.607422 279.48633 L 31.607422 278.2207 L 26.126953 278.2207 L 26.126953 278.12891 L 28.775391 275.29688 C 29.450765 274.57162 29.977524 273.95777 30.357422 273.45508 C 30.741157 272.94855 31.010568 272.48872 31.164062 272.07812 C 31.321394 271.66369 31.398438 271.24026 31.398438 270.80664 C 31.398438 270.20034 31.248463 269.64932 30.945312 269.1543 C 30.642162 268.65928 30.222845 268.26625 29.689453 267.97461 C 29.156061 267.68297 28.544239 267.53711 27.853516 267.53711 z M 149.83594 267.53711 C 148.54659 267.53711 147.53978 268.06987 146.81836 269.13281 C 146.09694 270.19576 145.73633 271.68275 145.73633 273.59375 C 145.73633 275.5201 146.09485 277.00918 146.80859 278.06445 C 147.52618 279.11973 148.53507 279.64844 149.83594 279.64844 C 151.1368 279.64844 152.14367 279.11973 152.85742 278.06445 C 153.57501 277.00918 153.93359 275.5201 153.93359 273.59375 C 153.93359 271.68275 153.57299 270.19576 152.85156 269.13281 C 152.13014 268.06987 151.12529 267.53711 149.83594 267.53711 z M 159.9668 267.53711 C 158.67745 267.53711 157.67064 268.06987 156.94922 269.13281 C 156.2278 270.19576 155.86719 271.68275 155.86719 273.59375 C 155.86719 275.5201 156.22375 277.00918 156.9375 278.06445 C 157.65509 279.11973 158.66593 279.64844 159.9668 279.64844 C 161.26766 279.64844 162.27453 279.11973 162.98828 278.06445 C 163.70587 277.00918 164.06445 275.5201 164.06445 273.59375 C 164.06445 271.68275 163.70384 270.19576 162.98242 269.13281 C 162.261 268.06987 161.25615 267.53711 159.9668 267.53711 z M 34.904297 267.69922 L 34.191406 273.5 L 35.527344 273.66211 C 35.772934 273.48559 36.084946 273.34175 36.464844 273.23047 C 36.844742 273.11535 37.215461 273.05866 37.576172 273.0625 C 38.078865 273.06634 38.524605 273.18584 38.916016 273.41992 C 39.307426 273.654 39.615324 273.9741 39.837891 274.38086 C 40.064295 274.78378 40.177734 275.24361 40.177734 275.75781 C 40.177734 276.26051 40.068339 276.71029 39.849609 277.10938 C 39.634718 277.50462 39.336929 277.81656 38.957031 278.04297 C 38.580971 278.26937 38.151475 278.38281 37.667969 278.38281 C 37.065504 278.38281 36.546902 278.20864 36.113281 277.86328 C 35.683498 277.51408 35.442395 277.07245 35.388672 276.53906 L 34.005859 276.53906 C 34.036558 277.13769 34.216794 277.67247 34.542969 278.14062 C 34.869144 278.60878 35.302683 278.97748 35.84375 279.24609 C 36.384817 279.51471 36.992594 279.64844 37.667969 279.64844 C 38.416253 279.64844 39.082807 279.48027 39.669922 279.14258 C 40.257037 278.80105 40.718885 278.33516 41.052734 277.74805 C 41.390422 277.15709 41.558594 276.4865 41.558594 275.73438 C 41.558594 274.97074 41.396488 274.29206 41.070312 273.69727 C 40.747975 273.10248 40.302303 272.63449 39.734375 272.29297 C 39.170284 271.94761 38.528063 271.77344 37.806641 271.77344 C 37.411393 271.77344 37.030564 271.83821 36.666016 271.96484 C 36.301467 272.09148 35.997613 272.24954 35.755859 272.44141 L 35.6875 272.44141 L 36.101562 268.96484 L 41.029297 268.96484 L 41.029297 267.69922 L 34.904297 267.69922 z M 137.51367 267.69922 C 137.49449 267.72992 137.4256 267.83527 137.30664 268.01562 C 137.19152 268.19598 137.02133 268.39657 136.79492 268.61914 C 136.57236 268.84171 136.29479 269.03617 135.96094 269.20117 C 135.62709 269.36618 135.23204 269.44922 134.77539 269.44922 L 134.77539 270.64648 C 135.2282 270.64648 135.63134 270.59586 135.98438 270.49609 C 136.33741 270.39249 136.62509 270.27298 136.84766 270.13867 C 137.07022 270.00053 137.208 269.87893 137.26172 269.77148 L 137.35352 269.77148 L 137.35352 279.48633 L 138.78125 279.48633 L 138.78125 267.69922 L 137.51367 267.69922 z M 13.419922 268.78125 C 14.271815 268.78125 14.938299 269.20064 15.417969 270.04102 C 15.897638 270.87756 16.136719 272.06265 16.136719 273.59375 C 16.136719 275.12869 15.89966 276.3098 15.423828 277.13867 C 14.947996 277.96754 14.279489 278.38281 13.419922 278.38281 C 12.564192 278.38281 11.897638 277.96754 11.417969 277.13867 C 10.942137 276.3098 10.703125 275.12869 10.703125 273.59375 C 10.703125 272.06265 10.944159 270.87756 11.423828 270.04102 C 11.903497 269.20064 12.568029 268.78125 13.419922 268.78125 z M 149.83594 268.78125 C 150.68783 268.78125 151.35236 269.20064 151.83203 270.04102 C 152.3117 270.87756 152.55273 272.06265 152.55273 273.59375 C 152.55273 275.12869 152.31372 276.3098 151.83789 277.13867 C 151.36206 277.96754 150.6955 278.38281 149.83594 278.38281 C 148.98021 278.38281 148.3117 277.96754 147.83203 277.13867 C 147.3562 276.3098 147.11914 275.12869 147.11914 273.59375 C 147.11914 272.06265 147.35822 270.87756 147.83789 270.04102 C 148.31756 269.20064 148.98404 268.78125 149.83594 268.78125 z M 159.9668 268.78125 C 160.81869 268.78125 161.48322 269.20064 161.96289 270.04102 C 162.44256 270.87756 162.68359 272.06265 162.68359 273.59375 C 162.68359 275.12869 162.44458 276.3098 161.96875 277.13867 C 161.49292 277.96754 160.82636 278.38281 159.9668 278.38281 C 159.11107 278.38281 158.44256 277.96754 157.96289 277.13867 C 157.48706 276.3098 157.25 275.12869 157.25 273.59375 C 157.25 272.06265 157.48908 270.87756 157.96875 270.04102 C 158.44842 269.20064 159.1149 268.78125 159.9668 268.78125 z M 20.71875 277.50781 C 20.434786 277.50781 20.191661 277.60912 19.988281 277.8125 C 19.784901 278.01588 19.683594 278.259 19.683594 278.54297 C 19.683594 278.82693 19.784901 279.07006 19.988281 279.27344 C 20.191661 279.47682 20.434786 279.58008 20.71875 279.58008 C 21.002714 279.58008 21.245839 279.47682 21.449219 279.27344 C 21.652599 279.07006 21.755859 278.82693 21.755859 278.54297 C 21.755859 278.259 21.652599 278.01588 21.449219 277.8125 C 21.245839 277.60912 21.002714 277.50781 20.71875 277.50781 z M 143.17188 277.50781 C 142.88791 277.50781 142.64479 277.60912 142.44141 277.8125 C 142.23803 278.01588 142.13672 278.259 142.13672 278.54297 C 142.13672 278.82693 142.23803 279.07006 142.44141 279.27344 C 142.64479 279.47682 142.88791 279.58008 143.17188 279.58008 C 143.45584 279.58008 143.70092 279.47682 143.9043 279.27344 C 144.10768 279.07006 144.20898 278.82693 144.20898 278.54297 C 144.20898 278.259 144.10768 278.01588 143.9043 277.8125 C 143.70092 277.60912 143.45584 277.50781 143.17188 277.50781 z "
     id="text912" />
</svg>
